G75*
%MOIN*%
%OFA0B0*%
%FSLAX25Y25*%
%IPPOS*%
%LPD*%
%AMOC8*
5,1,8,0,0,1.08239X$1,22.5*
%
%ADD10C,0.00000*%
%ADD11C,0.00800*%
D10*
X0014920Y0007058D02*
X0014920Y0207846D01*
X0215707Y0207846D01*
X0215707Y0007058D01*
X0014920Y0007058D01*
D11*
X0017420Y0067058D02*
X0014920Y0069558D01*
X0014920Y0074558D01*
X0017420Y0077058D01*
X0014920Y0079558D01*
X0014920Y0084558D01*
X0017420Y0087058D01*
X0014920Y0089558D01*
X0014920Y0094558D01*
X0017420Y0097058D01*
X0014920Y0099558D01*
X0014920Y0104558D01*
X0017420Y0107058D01*
X0014920Y0109558D01*
X0014920Y0114558D01*
X0017420Y0117058D01*
X0014920Y0119558D01*
X0014920Y0124558D01*
X0017420Y0127058D01*
X0014920Y0129558D01*
X0014920Y0134558D01*
X0017420Y0137058D01*
X0014920Y0139558D01*
X0014920Y0144558D01*
X0017420Y0147058D01*
X0022420Y0147058D01*
X0024920Y0144558D01*
X0024920Y0139558D01*
X0022420Y0137058D01*
X0024920Y0134558D01*
X0024920Y0129558D01*
X0022420Y0127058D01*
X0024920Y0124558D01*
X0024920Y0119558D01*
X0022420Y0117058D01*
X0024920Y0114558D01*
X0024920Y0109558D01*
X0022420Y0107058D01*
X0024920Y0104558D01*
X0024920Y0099558D01*
X0022420Y0097058D01*
X0024920Y0094558D01*
X0024920Y0089558D01*
X0022420Y0087058D01*
X0024920Y0084558D01*
X0024920Y0079558D01*
X0022420Y0077058D01*
X0024920Y0074558D01*
X0024920Y0069558D01*
X0022420Y0067058D01*
X0017420Y0067058D01*
X0019105Y0192005D02*
X0016605Y0194505D01*
X0016605Y0199505D01*
X0019105Y0202005D01*
X0024105Y0202005D01*
X0026605Y0199505D01*
X0029105Y0202005D01*
X0034105Y0202005D01*
X0036605Y0199505D01*
X0039105Y0202005D01*
X0044105Y0202005D01*
X0046605Y0199505D01*
X0049105Y0202005D01*
X0054105Y0202005D01*
X0056605Y0199505D01*
X0059105Y0202005D01*
X0064105Y0202005D01*
X0066605Y0199505D01*
X0069105Y0202005D01*
X0074105Y0202005D01*
X0076605Y0199505D01*
X0076605Y0194505D01*
X0074105Y0192005D01*
X0069105Y0192005D01*
X0066605Y0194505D01*
X0064105Y0192005D01*
X0059105Y0192005D01*
X0056605Y0194505D01*
X0054105Y0192005D01*
X0049105Y0192005D01*
X0046605Y0194505D01*
X0044105Y0192005D01*
X0039105Y0192005D01*
X0036605Y0194505D01*
X0034105Y0192005D01*
X0029105Y0192005D01*
X0026605Y0194505D01*
X0024105Y0192005D01*
X0019105Y0192005D01*
X0204920Y0144558D02*
X0204920Y0139558D01*
X0207420Y0137058D01*
X0204920Y0134558D01*
X0204920Y0129558D01*
X0207420Y0127058D01*
X0204920Y0124558D01*
X0204920Y0119558D01*
X0207420Y0117058D01*
X0204920Y0114558D01*
X0204920Y0109558D01*
X0207420Y0107058D01*
X0204920Y0104558D01*
X0204920Y0099558D01*
X0207420Y0097058D01*
X0204920Y0094558D01*
X0204920Y0089558D01*
X0207420Y0087058D01*
X0204920Y0084558D01*
X0204920Y0079558D01*
X0207420Y0077058D01*
X0204920Y0074558D01*
X0204920Y0069558D01*
X0207420Y0067058D01*
X0212420Y0067058D01*
X0214920Y0069558D01*
X0214920Y0074558D01*
X0212420Y0077058D01*
X0214920Y0079558D01*
X0214920Y0084558D01*
X0212420Y0087058D01*
X0214920Y0089558D01*
X0214920Y0094558D01*
X0212420Y0097058D01*
X0214920Y0099558D01*
X0214920Y0104558D01*
X0212420Y0107058D01*
X0214920Y0109558D01*
X0214920Y0114558D01*
X0212420Y0117058D01*
X0214920Y0119558D01*
X0214920Y0124558D01*
X0212420Y0127058D01*
X0214920Y0129558D01*
X0214920Y0134558D01*
X0212420Y0137058D01*
X0214920Y0139558D01*
X0214920Y0144558D01*
X0212420Y0147058D01*
X0207420Y0147058D01*
X0204920Y0144558D01*
M02*
