%
M48
M72
T01C0.02362
T02C0.02756
T03C0.03200
T04C0.04000
T05C0.04331
T06C0.06299
%
T01
X181920Y35502
X185070Y30778
X188219Y35502
X191369Y30778
X194518Y35502
X204011Y33092
T02
X87905Y110432
X97511Y110432
X106905Y110432
T03
X53449Y129380
X52711Y102372
X72711Y102372
X88604Y81561
X83766Y63453
X108452Y59275
X118452Y59275
X136327Y63082
X136327Y73082
X136327Y83082
X136327Y93082
X136327Y103082
X136327Y113082
X136327Y123082
X136327Y133082
X136327Y143082
X136327Y153082
X136327Y163082
X136327Y173082
X136327Y183082
X117358Y194187
X107358Y194187
X166327Y183082
X166327Y173082
X166327Y163082
X166327Y153082
X166327Y143082
X166327Y133082
X166327Y123082
X166327Y113082
X166327Y103082
X166327Y93082
X166327Y83082
X166327Y73082
X166327Y63082
X166327Y53082
X180963Y55860
X200963Y55860
X153443Y15692
X117856Y40125
X107856Y40125
X98337Y27584
X98337Y17584
X113443Y15692
X136327Y53082
X93449Y129380
X48604Y81561
X43766Y63453
X46693Y48933
X36693Y48933
X27747Y31814
X35247Y26814
X27747Y21814
X182496Y188346
X192496Y188346
T04
X21605Y197005
X31605Y197005
X41605Y197005
X51605Y197005
X61605Y197005
X71605Y197005
X79683Y170746
X99683Y170746
X112114Y94716
X112114Y74716
X19920Y72058
X19920Y82058
X19920Y92058
X19920Y102058
X19920Y112058
X19920Y122058
X19920Y132058
X19920Y142058
X209920Y142058
X209920Y132058
X209920Y122058
X209920Y112058
X209920Y102058
X209920Y92058
X209920Y82058
X209920Y72058
T05
X63751Y14829
X63751Y22703
X63751Y30577
X63751Y38451
X63751Y46325
T06
X173849Y13652
X202589Y13652
M30
