G75*
%MOIN*%
%OFA0B0*%
%FSLAX25Y25*%
%IPPOS*%
%LPD*%
%AMOC8*
5,1,8,0,0,1.08239X$1,22.5*
%
%ADD10C,0.00000*%
%ADD11C,0.00500*%
%ADD12C,0.00800*%
D10*
X0001800Y0007058D02*
X0001800Y0207846D01*
X0202587Y0207846D01*
X0202587Y0007058D01*
X0001800Y0007058D01*
D11*
X0007123Y0170128D02*
X0009158Y0172163D01*
X0007123Y0174198D01*
X0013228Y0174198D01*
X0012211Y0176205D02*
X0013228Y0177222D01*
X0013228Y0179258D01*
X0012211Y0180275D01*
X0013228Y0182282D02*
X0013228Y0186352D01*
X0013228Y0188359D02*
X0007123Y0188359D01*
X0007123Y0191412D01*
X0008140Y0192429D01*
X0010175Y0192429D01*
X0011193Y0191412D01*
X0011193Y0188359D01*
X0011193Y0190394D02*
X0013228Y0192429D01*
X0017023Y0189391D02*
X0021093Y0189391D01*
X0023128Y0187356D01*
X0021093Y0185321D01*
X0017023Y0185321D01*
X0018040Y0183314D02*
X0019058Y0183314D01*
X0020075Y0182296D01*
X0021093Y0183314D01*
X0022111Y0183314D01*
X0023128Y0182296D01*
X0023128Y0180261D01*
X0022111Y0179244D01*
X0022111Y0177222D02*
X0023128Y0177222D01*
X0023128Y0176205D01*
X0022111Y0176205D01*
X0022111Y0177222D01*
X0022111Y0174198D02*
X0023128Y0173180D01*
X0023128Y0171145D01*
X0022111Y0170128D01*
X0020075Y0172163D02*
X0020075Y0173180D01*
X0021093Y0174198D01*
X0022111Y0174198D01*
X0020075Y0173180D02*
X0019058Y0174198D01*
X0018040Y0174198D01*
X0017023Y0173180D01*
X0017023Y0171145D01*
X0018040Y0170128D01*
X0013228Y0170128D02*
X0007123Y0170128D01*
X0008140Y0176205D02*
X0012211Y0176205D01*
X0008140Y0176205D02*
X0007123Y0177222D01*
X0007123Y0179258D01*
X0008140Y0180275D01*
X0007123Y0182282D02*
X0013228Y0182282D01*
X0017023Y0182296D02*
X0017023Y0180261D01*
X0018040Y0179244D01*
X0020075Y0181279D02*
X0020075Y0182296D01*
X0018040Y0183314D02*
X0017023Y0182296D01*
X0026923Y0182282D02*
X0026923Y0185335D01*
X0027940Y0186352D01*
X0032011Y0186352D01*
X0033028Y0185335D01*
X0033028Y0182282D01*
X0026923Y0182282D01*
X0026923Y0180275D02*
X0033028Y0180275D01*
X0026923Y0176205D01*
X0033028Y0176205D01*
X0032011Y0174198D02*
X0029975Y0174198D01*
X0029975Y0172163D01*
X0027940Y0174198D02*
X0026923Y0173180D01*
X0026923Y0171145D01*
X0027940Y0170128D01*
X0032011Y0170128D01*
X0033028Y0171145D01*
X0033028Y0173180D01*
X0032011Y0174198D01*
X0036823Y0173180D02*
X0036823Y0170128D01*
X0042928Y0170128D01*
X0040893Y0170128D02*
X0040893Y0173180D01*
X0039875Y0174198D01*
X0037840Y0174198D01*
X0036823Y0173180D01*
X0037840Y0176205D02*
X0041911Y0176205D01*
X0042928Y0177222D01*
X0042928Y0179258D01*
X0041911Y0180275D01*
X0039875Y0180275D01*
X0039875Y0178240D01*
X0037840Y0180275D02*
X0036823Y0179258D01*
X0036823Y0177222D01*
X0037840Y0176205D01*
X0036823Y0182282D02*
X0036823Y0185335D01*
X0037840Y0186352D01*
X0041911Y0186352D01*
X0042928Y0185335D01*
X0042928Y0182282D01*
X0036823Y0182282D01*
X0046723Y0183300D02*
X0047740Y0182282D01*
X0051811Y0182282D01*
X0052828Y0183300D01*
X0052828Y0185335D01*
X0051811Y0186352D01*
X0047740Y0186352D02*
X0046723Y0185335D01*
X0046723Y0183300D01*
X0047740Y0180275D02*
X0046723Y0179258D01*
X0046723Y0177222D01*
X0047740Y0176205D01*
X0051811Y0176205D01*
X0052828Y0177222D01*
X0052828Y0179258D01*
X0051811Y0180275D01*
X0049775Y0180275D01*
X0049775Y0178240D01*
X0049775Y0174198D02*
X0047740Y0174198D01*
X0046723Y0173180D01*
X0046723Y0170128D01*
X0052828Y0170128D01*
X0050793Y0170128D02*
X0050793Y0173180D01*
X0049775Y0174198D01*
D12*
X0011800Y0144558D02*
X0011800Y0139558D01*
X0009300Y0137058D01*
X0011800Y0134558D01*
X0011800Y0129558D01*
X0009300Y0127058D01*
X0011800Y0124558D01*
X0011800Y0119558D01*
X0009300Y0117058D01*
X0011800Y0114558D01*
X0011800Y0109558D01*
X0009300Y0107058D01*
X0011800Y0104558D01*
X0011800Y0099558D01*
X0009300Y0097058D01*
X0011800Y0094558D01*
X0011800Y0089558D01*
X0009300Y0087058D01*
X0011800Y0084558D01*
X0011800Y0079558D01*
X0009300Y0077058D01*
X0011800Y0074558D01*
X0011800Y0069558D01*
X0009300Y0067058D01*
X0004300Y0067058D01*
X0001800Y0069558D01*
X0001800Y0074558D01*
X0004300Y0077058D01*
X0001800Y0079558D01*
X0001800Y0084558D01*
X0004300Y0087058D01*
X0001800Y0089558D01*
X0001800Y0094558D01*
X0004300Y0097058D01*
X0001800Y0099558D01*
X0001800Y0104558D01*
X0004300Y0107058D01*
X0001800Y0109558D01*
X0001800Y0114558D01*
X0004300Y0117058D01*
X0001800Y0119558D01*
X0001800Y0124558D01*
X0004300Y0127058D01*
X0001800Y0129558D01*
X0001800Y0134558D01*
X0004300Y0137058D01*
X0001800Y0139558D01*
X0001800Y0144558D01*
X0004300Y0147058D01*
X0009300Y0147058D01*
X0011800Y0144558D01*
X0191800Y0144558D02*
X0191800Y0139558D01*
X0194300Y0137058D01*
X0191800Y0134558D01*
X0191800Y0129558D01*
X0194300Y0127058D01*
X0191800Y0124558D01*
X0191800Y0119558D01*
X0194300Y0117058D01*
X0191800Y0114558D01*
X0191800Y0109558D01*
X0194300Y0107058D01*
X0191800Y0104558D01*
X0191800Y0099558D01*
X0194300Y0097058D01*
X0191800Y0094558D01*
X0191800Y0089558D01*
X0194300Y0087058D01*
X0191800Y0084558D01*
X0191800Y0079558D01*
X0194300Y0077058D01*
X0191800Y0074558D01*
X0191800Y0069558D01*
X0194300Y0067058D01*
X0199300Y0067058D01*
X0201800Y0069558D01*
X0201800Y0074558D01*
X0199300Y0077058D01*
X0201800Y0079558D01*
X0201800Y0084558D01*
X0199300Y0087058D01*
X0201800Y0089558D01*
X0201800Y0094558D01*
X0199300Y0097058D01*
X0201800Y0099558D01*
X0201800Y0104558D01*
X0199300Y0107058D01*
X0201800Y0109558D01*
X0201800Y0114558D01*
X0199300Y0117058D01*
X0201800Y0119558D01*
X0201800Y0124558D01*
X0199300Y0127058D01*
X0201800Y0129558D01*
X0201800Y0134558D01*
X0199300Y0137058D01*
X0201800Y0139558D01*
X0201800Y0144558D01*
X0199300Y0147058D01*
X0194300Y0147058D01*
X0191800Y0144558D01*
M02*
