%
M48
M72
T01C0.02362
T02C0.02756
T03C0.03200
T04C0.04000
T05C0.04331
T06C0.06299
%
T01
X168800Y35502
X171950Y30778
X175099Y35502
X178249Y30778
X181399Y35502
X190891Y33092
T02
X74785Y110432
X84391Y110432
X93785Y110432
T03
X40329Y129380
X39591Y102372
X59591Y102372
X75484Y81561
X70647Y63453
X95332Y59275
X105332Y59275
X123207Y63082
X123207Y73082
X123207Y83082
X123207Y93082
X123207Y103082
X123207Y113082
X123207Y123082
X123207Y133082
X123207Y143082
X123207Y153082
X123207Y163082
X123207Y173082
X123207Y183082
X117417Y197903
X107417Y197903
X130629Y197389
X140629Y197389
X153207Y183082
X153207Y173082
X153207Y163082
X153207Y153082
X153207Y143082
X153207Y133082
X153207Y123082
X153207Y113082
X153207Y103082
X153207Y93082
X153207Y83082
X153207Y73082
X153207Y63082
X153207Y53082
X167843Y55860
X187843Y55860
X140323Y15692
X104736Y40125
X94736Y40125
X85217Y27584
X85217Y17584
X100323Y15692
X123207Y53082
X80329Y129380
X35484Y81561
X30647Y63453
X33574Y48933
X23574Y48933
X14627Y31814
X22127Y26814
X14627Y21814
T04
X6800Y72058
X6800Y82058
X6800Y92058
X6800Y102058
X6800Y112058
X6800Y122058
X6800Y132058
X6800Y142058
X9521Y198551
X19521Y198551
X29521Y198551
X39521Y198551
X49521Y198551
X59521Y198551
X66563Y170746
X86563Y170746
X98994Y94716
X98994Y74716
X196800Y72058
X196800Y82058
X196800Y92058
X196800Y102058
X196800Y112058
X196800Y122058
X196800Y132058
X196800Y142058
T05
X35226Y15385
X43100Y15385
X50974Y15385
X58848Y15385
X66722Y15385
T06
X160729Y13652
X189469Y13652
M30
