G75*
%MOIN*%
%OFA0B0*%
%FSLAX25Y25*%
%IPPOS*%
%LPD*%
%AMOC8*
5,1,8,0,0,1.08239X$1,22.5*
%
%ADD10C,0.00000*%
%ADD11OC8,0.05600*%
%ADD12C,0.07900*%
%ADD13OC8,0.07900*%
%ADD14C,0.05600*%
%ADD15C,0.07800*%
%ADD16C,0.05156*%
%ADD17C,0.08000*%
%ADD18C,0.06896*%
%ADD19C,0.07000*%
%ADD20C,0.04762*%
%ADD21C,0.09849*%
D10*
X0001800Y0007058D02*
X0001800Y0207846D01*
X0202587Y0207846D01*
X0202587Y0007058D01*
X0001800Y0007058D01*
D11*
X0014627Y0021814D03*
X0022127Y0026814D03*
X0014627Y0031814D03*
X0023574Y0048933D03*
X0033574Y0048933D03*
X0030647Y0063453D03*
X0035484Y0081561D03*
X0070647Y0063453D03*
X0075484Y0081561D03*
X0095332Y0059275D03*
X0105332Y0059275D03*
X0104736Y0040125D03*
X0094736Y0040125D03*
X0085217Y0027584D03*
X0085217Y0017584D03*
X0100323Y0015692D03*
X0140323Y0015692D03*
X0080329Y0129380D03*
X0040329Y0129380D03*
X0107417Y0197903D03*
X0117417Y0197903D03*
X0130629Y0197389D03*
X0140629Y0197389D03*
D12*
X0039591Y0102372D03*
X0167843Y0055860D03*
D13*
X0187843Y0055860D03*
X0059591Y0102372D03*
D14*
X0120607Y0103082D02*
X0125807Y0103082D01*
X0125807Y0093082D02*
X0120607Y0093082D01*
X0120607Y0083082D02*
X0125807Y0083082D01*
X0125807Y0073082D02*
X0120607Y0073082D01*
X0120607Y0063082D02*
X0125807Y0063082D01*
X0125807Y0053082D02*
X0120607Y0053082D01*
X0150607Y0053082D02*
X0155807Y0053082D01*
X0155807Y0063082D02*
X0150607Y0063082D01*
X0150607Y0073082D02*
X0155807Y0073082D01*
X0155807Y0083082D02*
X0150607Y0083082D01*
X0150607Y0093082D02*
X0155807Y0093082D01*
X0155807Y0103082D02*
X0150607Y0103082D01*
X0150607Y0113082D02*
X0155807Y0113082D01*
X0155807Y0123082D02*
X0150607Y0123082D01*
X0150607Y0133082D02*
X0155807Y0133082D01*
X0155807Y0143082D02*
X0150607Y0143082D01*
X0150607Y0153082D02*
X0155807Y0153082D01*
X0155807Y0163082D02*
X0150607Y0163082D01*
X0150607Y0173082D02*
X0155807Y0173082D01*
X0155807Y0183082D02*
X0150607Y0183082D01*
X0125807Y0183082D02*
X0120607Y0183082D01*
X0120607Y0173082D02*
X0125807Y0173082D01*
X0125807Y0163082D02*
X0120607Y0163082D01*
X0120607Y0153082D02*
X0125807Y0153082D01*
X0125807Y0143082D02*
X0120607Y0143082D01*
X0120607Y0133082D02*
X0125807Y0133082D01*
X0125807Y0123082D02*
X0120607Y0123082D01*
X0120607Y0113082D02*
X0125807Y0113082D01*
D15*
X0196800Y0112058D03*
X0196800Y0102058D03*
X0196800Y0092058D03*
X0196800Y0082058D03*
X0196800Y0072058D03*
X0196800Y0122058D03*
X0196800Y0132058D03*
X0196800Y0142058D03*
X0059521Y0198551D03*
X0049521Y0198551D03*
X0039521Y0198551D03*
X0029521Y0198551D03*
X0019521Y0198551D03*
X0009521Y0198551D03*
X0006800Y0142058D03*
X0006800Y0132058D03*
X0006800Y0122058D03*
X0006800Y0112058D03*
X0006800Y0102058D03*
X0006800Y0092058D03*
X0006800Y0082058D03*
X0006800Y0072058D03*
D16*
X0074785Y0110432D03*
X0084391Y0110432D03*
X0093785Y0110432D03*
D17*
X0098994Y0094716D03*
X0098994Y0074716D03*
X0086563Y0170746D03*
X0066563Y0170746D03*
D18*
X0058848Y0018633D02*
X0058848Y0012137D01*
X0050974Y0012137D02*
X0050974Y0018633D01*
X0043100Y0018633D02*
X0043100Y0012137D01*
D19*
X0035226Y0015385D03*
X0066722Y0015385D03*
D20*
X0168800Y0035502D03*
X0171950Y0030778D03*
X0175099Y0035502D03*
X0178249Y0030778D03*
X0181399Y0035502D03*
D21*
X0189469Y0013652D03*
X0160729Y0013652D03*
M02*
