G75*
%MOIN*%
%OFA0B0*%
%FSLAX25Y25*%
%IPPOS*%
%LPD*%
%AMOC8*
5,1,8,0,0,1.08239X$1,22.5*
%
%ADD10C,0.00000*%
%ADD11OC8,0.05200*%
%ADD12C,0.07500*%
%ADD13OC8,0.07500*%
%ADD14C,0.05200*%
%ADD15C,0.07400*%
%ADD16C,0.04756*%
%ADD17C,0.07600*%
%ADD18C,0.06496*%
%ADD19C,0.06600*%
%ADD20C,0.04362*%
%ADD21C,0.09449*%
%ADD22C,0.01600*%
%ADD23R,0.03562X0.03562*%
D10*
X0014920Y0007058D02*
X0014920Y0207846D01*
X0215707Y0207846D01*
X0215707Y0007058D01*
X0014920Y0007058D01*
D11*
X0027747Y0021814D03*
X0035247Y0026814D03*
X0027747Y0031814D03*
X0036693Y0048933D03*
X0046693Y0048933D03*
X0043766Y0063453D03*
X0048604Y0081561D03*
X0083766Y0063453D03*
X0088604Y0081561D03*
X0108452Y0059275D03*
X0118452Y0059275D03*
X0117856Y0040125D03*
X0107856Y0040125D03*
X0098337Y0027584D03*
X0098337Y0017584D03*
X0113443Y0015692D03*
X0153443Y0015692D03*
X0093449Y0129380D03*
X0053449Y0129380D03*
X0107358Y0194187D03*
X0117358Y0194187D03*
X0182496Y0188346D03*
X0192496Y0188346D03*
D12*
X0180963Y0055860D03*
X0052711Y0102372D03*
D13*
X0072711Y0102372D03*
X0200963Y0055860D03*
D14*
X0168927Y0053082D02*
X0163727Y0053082D01*
X0163727Y0063082D02*
X0168927Y0063082D01*
X0168927Y0073082D02*
X0163727Y0073082D01*
X0163727Y0083082D02*
X0168927Y0083082D01*
X0168927Y0093082D02*
X0163727Y0093082D01*
X0163727Y0103082D02*
X0168927Y0103082D01*
X0168927Y0113082D02*
X0163727Y0113082D01*
X0163727Y0123082D02*
X0168927Y0123082D01*
X0168927Y0133082D02*
X0163727Y0133082D01*
X0163727Y0143082D02*
X0168927Y0143082D01*
X0168927Y0153082D02*
X0163727Y0153082D01*
X0163727Y0163082D02*
X0168927Y0163082D01*
X0168927Y0173082D02*
X0163727Y0173082D01*
X0163727Y0183082D02*
X0168927Y0183082D01*
X0138927Y0183082D02*
X0133727Y0183082D01*
X0133727Y0173082D02*
X0138927Y0173082D01*
X0138927Y0163082D02*
X0133727Y0163082D01*
X0133727Y0153082D02*
X0138927Y0153082D01*
X0138927Y0143082D02*
X0133727Y0143082D01*
X0133727Y0133082D02*
X0138927Y0133082D01*
X0138927Y0123082D02*
X0133727Y0123082D01*
X0133727Y0113082D02*
X0138927Y0113082D01*
X0138927Y0103082D02*
X0133727Y0103082D01*
X0133727Y0093082D02*
X0138927Y0093082D01*
X0138927Y0083082D02*
X0133727Y0083082D01*
X0133727Y0073082D02*
X0138927Y0073082D01*
X0138927Y0063082D02*
X0133727Y0063082D01*
X0133727Y0053082D02*
X0138927Y0053082D01*
D15*
X0209920Y0072058D03*
X0209920Y0082058D03*
X0209920Y0092058D03*
X0209920Y0102058D03*
X0209920Y0112058D03*
X0209920Y0122058D03*
X0209920Y0132058D03*
X0209920Y0142058D03*
X0071605Y0197005D03*
X0061605Y0197005D03*
X0051605Y0197005D03*
X0041605Y0197005D03*
X0031605Y0197005D03*
X0021605Y0197005D03*
X0019920Y0142058D03*
X0019920Y0132058D03*
X0019920Y0122058D03*
X0019920Y0112058D03*
X0019920Y0102058D03*
X0019920Y0092058D03*
X0019920Y0082058D03*
X0019920Y0072058D03*
D16*
X0087905Y0110432D03*
X0097511Y0110432D03*
X0106905Y0110432D03*
D17*
X0112114Y0094716D03*
X0112114Y0074716D03*
X0099683Y0170746D03*
X0079683Y0170746D03*
D18*
X0066999Y0038451D02*
X0060503Y0038451D01*
X0060503Y0030577D02*
X0066999Y0030577D01*
X0066999Y0022703D02*
X0060503Y0022703D01*
D19*
X0063751Y0014829D03*
X0063751Y0046325D03*
D20*
X0181920Y0035502D03*
X0185070Y0030778D03*
X0188219Y0035502D03*
X0191369Y0030778D03*
X0194518Y0035502D03*
D21*
X0202589Y0013652D03*
X0173849Y0013652D03*
D22*
X0167725Y0013452D02*
X0157426Y0013452D01*
X0157843Y0013869D02*
X0157843Y0015692D01*
X0157843Y0017514D01*
X0155265Y0020092D01*
X0153443Y0020092D01*
X0153443Y0015692D01*
X0157843Y0015692D01*
X0153443Y0015692D01*
X0153443Y0015692D01*
X0153443Y0015692D01*
X0153443Y0020092D01*
X0151620Y0020092D01*
X0149043Y0017514D01*
X0149043Y0015692D01*
X0153442Y0015692D01*
X0153442Y0015692D01*
X0149043Y0015692D01*
X0149043Y0013869D01*
X0151620Y0011292D01*
X0153443Y0011292D01*
X0155265Y0011292D01*
X0157843Y0013869D01*
X0157843Y0015051D02*
X0167800Y0015051D01*
X0167725Y0014870D02*
X0167725Y0012433D01*
X0168657Y0010182D01*
X0169981Y0008858D01*
X0016720Y0008858D01*
X0016720Y0067585D01*
X0017037Y0067354D01*
X0017809Y0066961D01*
X0018632Y0066694D01*
X0019487Y0066558D01*
X0019720Y0066558D01*
X0019720Y0071858D01*
X0020120Y0071858D01*
X0020120Y0072258D01*
X0025420Y0072258D01*
X0025420Y0072491D01*
X0025284Y0073346D01*
X0025218Y0073552D01*
X0032484Y0066286D01*
X0032484Y0056913D01*
X0033004Y0056393D01*
X0034292Y0055104D01*
X0078229Y0055104D01*
X0087354Y0045979D01*
X0088643Y0044690D01*
X0110178Y0044690D01*
X0113856Y0041013D01*
X0113856Y0038468D01*
X0116199Y0036125D01*
X0119512Y0036125D01*
X0121856Y0038468D01*
X0121856Y0041013D01*
X0129439Y0048597D01*
X0130728Y0049886D01*
X0130728Y0050424D01*
X0131461Y0049691D01*
X0132931Y0049082D01*
X0134127Y0049082D01*
X0134127Y0044705D01*
X0141444Y0037388D01*
X0142733Y0036099D01*
X0164041Y0036099D01*
X0176811Y0023329D01*
X0178100Y0022041D01*
X0185743Y0022041D01*
X0190899Y0027196D01*
X0192081Y0027196D01*
X0193397Y0027742D01*
X0194405Y0028749D01*
X0194950Y0030065D01*
X0194950Y0031490D01*
X0194935Y0031526D01*
X0195680Y0031674D01*
X0196404Y0031974D01*
X0197056Y0032410D01*
X0197611Y0032964D01*
X0198046Y0033616D01*
X0198346Y0034341D01*
X0198499Y0035110D01*
X0198499Y0035502D01*
X0198499Y0035894D01*
X0198346Y0036663D01*
X0198046Y0037388D01*
X0197611Y0038040D01*
X0197056Y0038594D01*
X0196894Y0038703D01*
X0197637Y0038703D01*
X0200858Y0035482D01*
X0200830Y0035453D01*
X0200830Y0030731D01*
X0201650Y0029911D01*
X0206372Y0029911D01*
X0207192Y0030731D01*
X0207192Y0033162D01*
X0210112Y0036083D01*
X0210112Y0058736D01*
X0208823Y0060025D01*
X0201529Y0067319D01*
X0201529Y0071232D01*
X0205193Y0074896D01*
X0204823Y0074170D01*
X0204555Y0073346D01*
X0204420Y0072491D01*
X0204420Y0072258D01*
X0209720Y0072258D01*
X0209720Y0071858D01*
X0210120Y0071858D01*
X0210120Y0066558D01*
X0210353Y0066558D01*
X0211208Y0066694D01*
X0212031Y0066961D01*
X0212457Y0067178D01*
X0211163Y0008858D01*
X0206457Y0008858D01*
X0207781Y0010182D01*
X0208714Y0012433D01*
X0208714Y0014870D01*
X0207781Y0017121D01*
X0206058Y0018844D01*
X0203807Y0019776D01*
X0201371Y0019776D01*
X0199120Y0018844D01*
X0197397Y0017121D01*
X0196465Y0014870D01*
X0196465Y0012433D01*
X0197397Y0010182D01*
X0198721Y0008858D01*
X0177717Y0008858D01*
X0179041Y0010182D01*
X0179973Y0012433D01*
X0179973Y0014870D01*
X0179041Y0017121D01*
X0177318Y0018844D01*
X0175067Y0019776D01*
X0172631Y0019776D01*
X0170380Y0018844D01*
X0168657Y0017121D01*
X0167725Y0014870D01*
X0168462Y0016649D02*
X0157843Y0016649D01*
X0157109Y0018248D02*
X0169784Y0018248D01*
X0167965Y0011854D02*
X0155827Y0011854D01*
X0153443Y0011854D02*
X0153443Y0011854D01*
X0153443Y0011292D02*
X0153443Y0015692D01*
X0153443Y0015692D01*
X0153443Y0011292D01*
X0153443Y0013452D02*
X0153443Y0013452D01*
X0153443Y0015051D02*
X0153443Y0015051D01*
X0153443Y0016649D02*
X0153443Y0016649D01*
X0153443Y0018248D02*
X0153443Y0018248D01*
X0153443Y0019846D02*
X0153443Y0019846D01*
X0155511Y0019846D02*
X0211406Y0019846D01*
X0211371Y0018248D02*
X0206654Y0018248D01*
X0207977Y0016649D02*
X0211336Y0016649D01*
X0211300Y0015051D02*
X0208639Y0015051D01*
X0208714Y0013452D02*
X0211265Y0013452D01*
X0211229Y0011854D02*
X0208474Y0011854D01*
X0207811Y0010255D02*
X0211194Y0010255D01*
X0211442Y0021445D02*
X0115643Y0021445D01*
X0115643Y0023043D02*
X0177097Y0023043D01*
X0179011Y0024241D02*
X0184832Y0024241D01*
X0191369Y0030778D01*
X0194690Y0029437D02*
X0211619Y0029437D01*
X0211584Y0027839D02*
X0193495Y0027839D01*
X0194950Y0031036D02*
X0200830Y0031036D01*
X0200830Y0032634D02*
X0197281Y0032634D01*
X0198302Y0034233D02*
X0200830Y0034233D01*
X0200508Y0035831D02*
X0198499Y0035831D01*
X0198499Y0035502D02*
X0194518Y0035502D01*
X0194518Y0035502D01*
X0198499Y0035502D01*
X0198910Y0037430D02*
X0198018Y0037430D01*
X0198549Y0040903D02*
X0187321Y0040903D01*
X0181920Y0035502D01*
X0178569Y0034233D02*
X0172130Y0034233D01*
X0173728Y0032634D02*
X0179723Y0032634D01*
X0179891Y0032466D02*
X0181208Y0031921D01*
X0181667Y0031921D01*
X0181488Y0031490D01*
X0181488Y0030065D01*
X0182034Y0028749D01*
X0183041Y0027742D01*
X0184357Y0027196D01*
X0184676Y0027196D01*
X0183921Y0026441D01*
X0179922Y0026441D01*
X0165864Y0040499D01*
X0144555Y0040499D01*
X0138527Y0046528D01*
X0138527Y0049082D01*
X0139723Y0049082D01*
X0141193Y0049691D01*
X0142318Y0050817D01*
X0142927Y0052287D01*
X0142927Y0053878D01*
X0142318Y0055348D01*
X0141193Y0056474D01*
X0139849Y0057030D01*
X0153368Y0057030D01*
X0158227Y0052171D01*
X0159516Y0050882D01*
X0160309Y0050882D01*
X0160336Y0050817D01*
X0161461Y0049691D01*
X0162931Y0049082D01*
X0169723Y0049082D01*
X0171193Y0049691D01*
X0172318Y0050817D01*
X0172927Y0052287D01*
X0172927Y0053878D01*
X0172318Y0055348D01*
X0171193Y0056474D01*
X0169723Y0057082D01*
X0162931Y0057082D01*
X0161461Y0056474D01*
X0160804Y0055817D01*
X0155191Y0061430D01*
X0143829Y0061430D01*
X0144570Y0062171D01*
X0147189Y0064790D01*
X0147189Y0110833D01*
X0159727Y0123371D01*
X0159727Y0122287D01*
X0160336Y0120817D01*
X0161461Y0119691D01*
X0162931Y0119082D01*
X0169723Y0119082D01*
X0171193Y0119691D01*
X0172318Y0120817D01*
X0172927Y0122287D01*
X0172927Y0123878D01*
X0172318Y0125348D01*
X0195305Y0125348D01*
X0193707Y0126947D02*
X0170051Y0126947D01*
X0169723Y0127082D02*
X0163438Y0127082D01*
X0165438Y0129082D01*
X0169723Y0129082D01*
X0171193Y0129691D01*
X0172318Y0130817D01*
X0172927Y0132287D01*
X0172927Y0133878D01*
X0172318Y0135348D01*
X0171193Y0136474D01*
X0169723Y0137082D01*
X0165438Y0137082D01*
X0163438Y0139082D01*
X0169723Y0139082D01*
X0171193Y0139691D01*
X0172318Y0140817D01*
X0172345Y0140882D01*
X0179771Y0140882D01*
X0198915Y0121738D01*
X0200204Y0120450D01*
X0205066Y0120450D01*
X0205596Y0119169D01*
X0207031Y0117735D01*
X0208664Y0117058D01*
X0207031Y0116382D01*
X0205596Y0114947D01*
X0205169Y0113915D01*
X0201244Y0113915D01*
X0199955Y0112627D01*
X0172611Y0085282D01*
X0172345Y0085282D01*
X0172318Y0085348D01*
X0171193Y0086474D01*
X0169723Y0087082D01*
X0162931Y0087082D01*
X0161461Y0086474D01*
X0160336Y0085348D01*
X0159727Y0083878D01*
X0159727Y0082287D01*
X0160336Y0080817D01*
X0161461Y0079691D01*
X0162931Y0079082D01*
X0169723Y0079082D01*
X0171193Y0079691D01*
X0172318Y0080817D01*
X0172345Y0080882D01*
X0174434Y0080882D01*
X0203066Y0109515D01*
X0205453Y0109515D01*
X0205596Y0109169D01*
X0207031Y0107735D01*
X0208664Y0107058D01*
X0207031Y0106382D01*
X0205596Y0104947D01*
X0205105Y0103762D01*
X0200204Y0103762D01*
X0198915Y0102473D01*
X0172054Y0075612D01*
X0171193Y0076474D01*
X0169723Y0077082D01*
X0162931Y0077082D01*
X0161461Y0076474D01*
X0160336Y0075348D01*
X0159727Y0073878D01*
X0159727Y0072287D01*
X0160336Y0070817D01*
X0161461Y0069691D01*
X0162931Y0069082D01*
X0169723Y0069082D01*
X0171193Y0069691D01*
X0172318Y0070817D01*
X0172345Y0070882D01*
X0173547Y0070882D01*
X0202026Y0099362D01*
X0205516Y0099362D01*
X0205596Y0099169D01*
X0207031Y0097735D01*
X0208664Y0097058D01*
X0207031Y0096382D01*
X0205596Y0094947D01*
X0204820Y0093073D01*
X0204820Y0091044D01*
X0205105Y0090355D01*
X0198206Y0083455D01*
X0188501Y0083455D01*
X0187213Y0082167D01*
X0171356Y0066310D01*
X0171193Y0066474D01*
X0169723Y0067082D01*
X0162931Y0067082D01*
X0161461Y0066474D01*
X0160336Y0065348D01*
X0159727Y0063878D01*
X0159727Y0062287D01*
X0160336Y0060817D01*
X0161461Y0059691D01*
X0162931Y0059082D01*
X0169723Y0059082D01*
X0171193Y0059691D01*
X0172318Y0060817D01*
X0172482Y0061214D01*
X0190324Y0079055D01*
X0200028Y0079055D01*
X0205367Y0084394D01*
X0204820Y0083073D01*
X0204820Y0081044D01*
X0204907Y0080833D01*
X0198418Y0074343D01*
X0197129Y0073055D01*
X0197129Y0065497D01*
X0201216Y0061410D01*
X0200963Y0061410D01*
X0200963Y0055860D01*
X0200963Y0055860D01*
X0200963Y0061410D01*
X0198664Y0061410D01*
X0195413Y0058158D01*
X0195413Y0055860D01*
X0200963Y0055860D01*
X0200963Y0055859D01*
X0200963Y0050310D01*
X0203262Y0050310D01*
X0205712Y0052760D01*
X0205712Y0037905D01*
X0205185Y0037378D01*
X0200749Y0041814D01*
X0199460Y0043103D01*
X0186409Y0043103D01*
X0182390Y0039083D01*
X0181208Y0039083D01*
X0179891Y0038538D01*
X0178884Y0037530D01*
X0178339Y0036214D01*
X0178339Y0034790D01*
X0178884Y0033473D01*
X0179891Y0032466D01*
X0181488Y0031036D02*
X0175327Y0031036D01*
X0176925Y0029437D02*
X0181748Y0029437D01*
X0182944Y0027839D02*
X0178524Y0027839D01*
X0179011Y0024241D02*
X0164952Y0038299D01*
X0143644Y0038299D01*
X0136327Y0045616D01*
X0136327Y0053082D01*
X0138527Y0048620D02*
X0205712Y0048620D01*
X0205712Y0050218D02*
X0171719Y0050218D01*
X0172732Y0051817D02*
X0177723Y0051817D01*
X0178046Y0051494D02*
X0179938Y0050710D01*
X0181987Y0050710D01*
X0183880Y0051494D01*
X0185329Y0052942D01*
X0186113Y0054835D01*
X0186113Y0056884D01*
X0185329Y0058777D01*
X0183880Y0060225D01*
X0181987Y0061010D01*
X0179938Y0061010D01*
X0178046Y0060225D01*
X0176597Y0058777D01*
X0175813Y0056884D01*
X0175813Y0054835D01*
X0176597Y0052942D01*
X0178046Y0051494D01*
X0176401Y0053415D02*
X0172927Y0053415D01*
X0172457Y0055014D02*
X0175813Y0055014D01*
X0175813Y0056612D02*
X0170858Y0056612D01*
X0171310Y0059809D02*
X0177629Y0059809D01*
X0176362Y0058211D02*
X0158410Y0058211D01*
X0156811Y0059809D02*
X0161343Y0059809D01*
X0160091Y0061408D02*
X0155213Y0061408D01*
X0154279Y0059230D02*
X0160427Y0053082D01*
X0166327Y0053082D01*
X0161796Y0056612D02*
X0160008Y0056612D01*
X0156983Y0053415D02*
X0142927Y0053415D01*
X0142732Y0051817D02*
X0158581Y0051817D01*
X0160934Y0050218D02*
X0141719Y0050218D01*
X0138527Y0047021D02*
X0205712Y0047021D01*
X0205712Y0045423D02*
X0139632Y0045423D01*
X0141231Y0043824D02*
X0205712Y0043824D01*
X0205712Y0042225D02*
X0200337Y0042225D01*
X0198549Y0040903D02*
X0204011Y0035441D01*
X0204011Y0033092D01*
X0207912Y0036994D01*
X0207912Y0057825D01*
X0199329Y0066408D01*
X0199329Y0072143D01*
X0209244Y0082058D01*
X0209920Y0082058D01*
X0204820Y0082188D02*
X0203161Y0082188D01*
X0204664Y0080590D02*
X0201563Y0080590D01*
X0203065Y0078991D02*
X0190260Y0078991D01*
X0188661Y0077393D02*
X0201467Y0077393D01*
X0199868Y0075794D02*
X0187063Y0075794D01*
X0185464Y0074196D02*
X0198270Y0074196D01*
X0197129Y0072597D02*
X0183866Y0072597D01*
X0182267Y0070999D02*
X0197129Y0070999D01*
X0197129Y0069400D02*
X0180669Y0069400D01*
X0179070Y0067802D02*
X0197129Y0067802D01*
X0197129Y0066203D02*
X0177472Y0066203D01*
X0175873Y0064605D02*
X0198021Y0064605D01*
X0199619Y0063006D02*
X0174275Y0063006D01*
X0172676Y0061408D02*
X0198662Y0061408D01*
X0197064Y0059809D02*
X0184296Y0059809D01*
X0185563Y0058211D02*
X0195465Y0058211D01*
X0195413Y0056612D02*
X0186113Y0056612D01*
X0186113Y0055014D02*
X0195413Y0055014D01*
X0195413Y0055859D02*
X0195413Y0053561D01*
X0198664Y0050310D01*
X0200963Y0050310D01*
X0200963Y0055859D01*
X0200963Y0055859D01*
X0195413Y0055859D01*
X0195558Y0053415D02*
X0185525Y0053415D01*
X0184203Y0051817D02*
X0197157Y0051817D01*
X0200963Y0051817D02*
X0200963Y0051817D01*
X0200963Y0053415D02*
X0200963Y0053415D01*
X0200963Y0055014D02*
X0200963Y0055014D01*
X0200963Y0056612D02*
X0200963Y0056612D01*
X0200963Y0058211D02*
X0200963Y0058211D01*
X0200963Y0059809D02*
X0200963Y0059809D01*
X0200963Y0061408D02*
X0200963Y0061408D01*
X0204243Y0064605D02*
X0212400Y0064605D01*
X0212435Y0066203D02*
X0202645Y0066203D01*
X0201529Y0067802D02*
X0206421Y0067802D01*
X0206337Y0067863D02*
X0207037Y0067354D01*
X0207809Y0066961D01*
X0208632Y0066694D01*
X0209487Y0066558D01*
X0209720Y0066558D01*
X0209720Y0071858D01*
X0204420Y0071858D01*
X0204420Y0071625D01*
X0204555Y0070770D01*
X0204823Y0069947D01*
X0205216Y0069176D01*
X0205725Y0068475D01*
X0206337Y0067863D01*
X0205101Y0069400D02*
X0201529Y0069400D01*
X0201529Y0070999D02*
X0204519Y0070999D01*
X0204437Y0072597D02*
X0202894Y0072597D01*
X0204492Y0074196D02*
X0204836Y0074196D01*
X0209720Y0070999D02*
X0210120Y0070999D01*
X0210120Y0069400D02*
X0209720Y0069400D01*
X0209720Y0067802D02*
X0210120Y0067802D01*
X0212364Y0063006D02*
X0205842Y0063006D01*
X0207441Y0061408D02*
X0212329Y0061408D01*
X0212294Y0059809D02*
X0209039Y0059809D01*
X0210112Y0058211D02*
X0212258Y0058211D01*
X0212223Y0056612D02*
X0210112Y0056612D01*
X0210112Y0055014D02*
X0212187Y0055014D01*
X0212152Y0053415D02*
X0210112Y0053415D01*
X0210112Y0051817D02*
X0212116Y0051817D01*
X0212081Y0050218D02*
X0210112Y0050218D01*
X0210112Y0048620D02*
X0212045Y0048620D01*
X0212010Y0047021D02*
X0210112Y0047021D01*
X0210112Y0045423D02*
X0211974Y0045423D01*
X0211939Y0043824D02*
X0210112Y0043824D01*
X0210112Y0042225D02*
X0211903Y0042225D01*
X0211868Y0040627D02*
X0210112Y0040627D01*
X0210112Y0039028D02*
X0211832Y0039028D01*
X0211797Y0037430D02*
X0210112Y0037430D01*
X0209861Y0035831D02*
X0211761Y0035831D01*
X0211726Y0034233D02*
X0208263Y0034233D01*
X0207192Y0032634D02*
X0211690Y0032634D01*
X0211655Y0031036D02*
X0207192Y0031036D01*
X0211548Y0026240D02*
X0189943Y0026240D01*
X0188344Y0024642D02*
X0211513Y0024642D01*
X0211477Y0023043D02*
X0186746Y0023043D01*
X0179236Y0016649D02*
X0197202Y0016649D01*
X0196540Y0015051D02*
X0179898Y0015051D01*
X0179973Y0013452D02*
X0196465Y0013452D01*
X0196705Y0011854D02*
X0179733Y0011854D01*
X0179071Y0010255D02*
X0197367Y0010255D01*
X0198524Y0018248D02*
X0177914Y0018248D01*
X0175498Y0024642D02*
X0115643Y0024642D01*
X0115643Y0026240D02*
X0173900Y0026240D01*
X0172301Y0027839D02*
X0115643Y0027839D01*
X0115643Y0029437D02*
X0170703Y0029437D01*
X0169104Y0031036D02*
X0115643Y0031036D01*
X0115643Y0032634D02*
X0167506Y0032634D01*
X0165907Y0034233D02*
X0115643Y0034233D01*
X0115643Y0035449D02*
X0114354Y0036737D01*
X0111856Y0039236D01*
X0111856Y0041781D01*
X0109512Y0044125D01*
X0106199Y0044125D01*
X0103856Y0041781D01*
X0103856Y0038468D01*
X0106199Y0036125D01*
X0108744Y0036125D01*
X0111243Y0033626D01*
X0111243Y0019149D01*
X0109443Y0017349D01*
X0109443Y0014035D01*
X0111786Y0011692D01*
X0115099Y0011692D01*
X0117443Y0014035D01*
X0117443Y0017349D01*
X0115643Y0019149D01*
X0115643Y0035449D01*
X0115260Y0035831D02*
X0164309Y0035831D01*
X0167334Y0039028D02*
X0181076Y0039028D01*
X0178842Y0037430D02*
X0168933Y0037430D01*
X0170531Y0035831D02*
X0178339Y0035831D01*
X0183934Y0040627D02*
X0144428Y0040627D01*
X0142829Y0042225D02*
X0185532Y0042225D01*
X0201935Y0040627D02*
X0205712Y0040627D01*
X0205712Y0039028D02*
X0203534Y0039028D01*
X0205133Y0037430D02*
X0205237Y0037430D01*
X0204769Y0051817D02*
X0205712Y0051817D01*
X0180840Y0075794D02*
X0178458Y0075794D01*
X0179242Y0074196D02*
X0176860Y0074196D01*
X0177643Y0072597D02*
X0175261Y0072597D01*
X0176045Y0070999D02*
X0173663Y0070999D01*
X0174446Y0069400D02*
X0170490Y0069400D01*
X0172848Y0067802D02*
X0147189Y0067802D01*
X0147189Y0069400D02*
X0162164Y0069400D01*
X0160260Y0070999D02*
X0147189Y0070999D01*
X0147189Y0072597D02*
X0159727Y0072597D01*
X0159858Y0074196D02*
X0147189Y0074196D01*
X0147189Y0075794D02*
X0160782Y0075794D01*
X0160563Y0080590D02*
X0147189Y0080590D01*
X0147189Y0082188D02*
X0159768Y0082188D01*
X0159727Y0083787D02*
X0147189Y0083787D01*
X0147189Y0085385D02*
X0160373Y0085385D01*
X0162693Y0086984D02*
X0147189Y0086984D01*
X0147189Y0088582D02*
X0175911Y0088582D01*
X0174312Y0086984D02*
X0169961Y0086984D01*
X0169957Y0088791D02*
X0169273Y0088682D01*
X0166327Y0088682D01*
X0166327Y0093082D01*
X0166327Y0093082D01*
X0166327Y0088682D01*
X0163381Y0088682D01*
X0162697Y0088791D01*
X0162038Y0089005D01*
X0161421Y0089319D01*
X0160860Y0089726D01*
X0160371Y0090216D01*
X0159964Y0090776D01*
X0159649Y0091393D01*
X0159435Y0092052D01*
X0159327Y0092736D01*
X0159327Y0093082D01*
X0166327Y0093082D01*
X0166327Y0093083D01*
X0166327Y0093083D01*
X0166327Y0097482D01*
X0169273Y0097482D01*
X0169957Y0097374D01*
X0170616Y0097160D01*
X0171233Y0096846D01*
X0171793Y0096439D01*
X0172283Y0095949D01*
X0172690Y0095389D01*
X0173005Y0094771D01*
X0173219Y0094113D01*
X0173327Y0093429D01*
X0173327Y0093083D01*
X0166327Y0093083D01*
X0166327Y0097482D01*
X0163381Y0097482D01*
X0162697Y0097374D01*
X0162038Y0097160D01*
X0161421Y0096846D01*
X0160860Y0096439D01*
X0160371Y0095949D01*
X0159964Y0095389D01*
X0159649Y0094771D01*
X0159435Y0094113D01*
X0159327Y0093429D01*
X0159327Y0093083D01*
X0166327Y0093083D01*
X0166327Y0093082D01*
X0173327Y0093082D01*
X0173327Y0092736D01*
X0173219Y0092052D01*
X0173005Y0091393D01*
X0172690Y0090776D01*
X0172283Y0090216D01*
X0171793Y0089726D01*
X0171233Y0089319D01*
X0170616Y0089005D01*
X0169957Y0088791D01*
X0172248Y0090181D02*
X0177509Y0090181D01*
X0179108Y0091779D02*
X0173130Y0091779D01*
X0173327Y0093378D02*
X0180706Y0093378D01*
X0182305Y0094976D02*
X0172900Y0094976D01*
X0171606Y0096575D02*
X0183903Y0096575D01*
X0185502Y0098173D02*
X0147189Y0098173D01*
X0147189Y0096575D02*
X0161048Y0096575D01*
X0159754Y0094976D02*
X0147189Y0094976D01*
X0147189Y0093378D02*
X0159327Y0093378D01*
X0159524Y0091779D02*
X0147189Y0091779D01*
X0147189Y0090181D02*
X0160406Y0090181D01*
X0166327Y0090181D02*
X0166327Y0090181D01*
X0166327Y0091779D02*
X0166327Y0091779D01*
X0166327Y0093378D02*
X0166327Y0093378D01*
X0166327Y0094976D02*
X0166327Y0094976D01*
X0166327Y0096575D02*
X0166327Y0096575D01*
X0162931Y0099082D02*
X0169723Y0099082D01*
X0171193Y0099691D01*
X0172318Y0100817D01*
X0172927Y0102287D01*
X0172927Y0103878D01*
X0172318Y0105348D01*
X0171193Y0106474D01*
X0169723Y0107082D01*
X0162931Y0107082D01*
X0161461Y0106474D01*
X0160336Y0105348D01*
X0159727Y0103878D01*
X0159727Y0102287D01*
X0160336Y0100817D01*
X0161461Y0099691D01*
X0162931Y0099082D01*
X0161381Y0099772D02*
X0147189Y0099772D01*
X0147189Y0101370D02*
X0160106Y0101370D01*
X0159727Y0102969D02*
X0147189Y0102969D01*
X0147189Y0104567D02*
X0160012Y0104567D01*
X0161153Y0106166D02*
X0147189Y0106166D01*
X0147189Y0107764D02*
X0195093Y0107764D01*
X0193495Y0106166D02*
X0171500Y0106166D01*
X0172641Y0104567D02*
X0191896Y0104567D01*
X0190297Y0102969D02*
X0172927Y0102969D01*
X0172547Y0101370D02*
X0188699Y0101370D01*
X0187100Y0099772D02*
X0171273Y0099772D01*
X0169723Y0109082D02*
X0162931Y0109082D01*
X0161461Y0109691D01*
X0160336Y0110817D01*
X0159727Y0112287D01*
X0159727Y0113878D01*
X0160336Y0115348D01*
X0161461Y0116474D01*
X0162931Y0117082D01*
X0169723Y0117082D01*
X0171193Y0116474D01*
X0172318Y0115348D01*
X0172927Y0113878D01*
X0172927Y0112287D01*
X0172318Y0110817D01*
X0171193Y0109691D01*
X0169723Y0109082D01*
X0170400Y0109363D02*
X0196692Y0109363D01*
X0198290Y0110961D02*
X0172378Y0110961D01*
X0172927Y0112560D02*
X0199889Y0112560D01*
X0202155Y0111715D02*
X0209577Y0111715D01*
X0209920Y0112058D01*
X0206406Y0115757D02*
X0171909Y0115757D01*
X0172811Y0114159D02*
X0205270Y0114159D01*
X0202155Y0111715D02*
X0173522Y0083082D01*
X0166327Y0083082D01*
X0172091Y0080590D02*
X0177031Y0080590D01*
X0175739Y0082188D02*
X0178630Y0082188D01*
X0177338Y0083787D02*
X0180228Y0083787D01*
X0178936Y0085385D02*
X0181827Y0085385D01*
X0180535Y0086984D02*
X0183425Y0086984D01*
X0182133Y0088582D02*
X0185024Y0088582D01*
X0183732Y0090181D02*
X0186623Y0090181D01*
X0185330Y0091779D02*
X0188221Y0091779D01*
X0186929Y0093378D02*
X0189820Y0093378D01*
X0188527Y0094976D02*
X0191418Y0094976D01*
X0190126Y0096575D02*
X0193017Y0096575D01*
X0191724Y0098173D02*
X0194615Y0098173D01*
X0193323Y0099772D02*
X0196214Y0099772D01*
X0194922Y0101370D02*
X0197812Y0101370D01*
X0196520Y0102969D02*
X0199411Y0102969D01*
X0198119Y0104567D02*
X0205439Y0104567D01*
X0206815Y0106166D02*
X0199717Y0106166D01*
X0201316Y0107764D02*
X0207001Y0107764D01*
X0205516Y0109363D02*
X0202914Y0109363D01*
X0201115Y0101562D02*
X0209424Y0101562D01*
X0209920Y0102058D01*
X0206592Y0098173D02*
X0200838Y0098173D01*
X0199239Y0096575D02*
X0207497Y0096575D01*
X0205625Y0094976D02*
X0197641Y0094976D01*
X0196042Y0093378D02*
X0204946Y0093378D01*
X0204820Y0091779D02*
X0194444Y0091779D01*
X0192845Y0090181D02*
X0204931Y0090181D01*
X0203333Y0088582D02*
X0191247Y0088582D01*
X0189648Y0086984D02*
X0201734Y0086984D01*
X0200136Y0085385D02*
X0188049Y0085385D01*
X0186451Y0083787D02*
X0198537Y0083787D01*
X0199117Y0081255D02*
X0209920Y0092058D01*
X0205116Y0083787D02*
X0204760Y0083787D01*
X0199117Y0081255D02*
X0189413Y0081255D01*
X0171240Y0063082D01*
X0166327Y0063082D01*
X0161191Y0066203D02*
X0147189Y0066203D01*
X0147004Y0064605D02*
X0160028Y0064605D01*
X0159727Y0063006D02*
X0145405Y0063006D01*
X0144989Y0065701D02*
X0142370Y0063082D01*
X0136327Y0063082D01*
X0132889Y0063082D01*
X0128528Y0058722D01*
X0128528Y0050797D01*
X0117856Y0040125D01*
X0111090Y0046890D01*
X0089554Y0046890D01*
X0079140Y0057304D01*
X0035204Y0057304D01*
X0034684Y0057824D01*
X0034684Y0067197D01*
X0019920Y0081961D01*
X0019920Y0082058D01*
X0023805Y0085385D02*
X0027951Y0085385D01*
X0029550Y0083787D02*
X0024724Y0083787D01*
X0025020Y0083073D02*
X0024243Y0084947D01*
X0022809Y0086382D01*
X0021176Y0087058D01*
X0022809Y0087735D01*
X0024205Y0089131D01*
X0043146Y0070191D01*
X0044434Y0068902D01*
X0105714Y0068902D01*
X0114452Y0060164D01*
X0114452Y0057618D01*
X0116795Y0055275D01*
X0120109Y0055275D01*
X0122452Y0057618D01*
X0122452Y0060164D01*
X0131828Y0069540D01*
X0132931Y0069082D01*
X0139723Y0069082D01*
X0141193Y0069691D01*
X0142318Y0070817D01*
X0142789Y0071953D01*
X0142789Y0066612D01*
X0141921Y0065745D01*
X0141193Y0066474D01*
X0139723Y0067082D01*
X0132931Y0067082D01*
X0131461Y0066474D01*
X0130336Y0065348D01*
X0129727Y0063878D01*
X0129727Y0063031D01*
X0126328Y0059633D01*
X0126328Y0051708D01*
X0118744Y0044125D01*
X0116967Y0044125D01*
X0112001Y0049090D01*
X0090465Y0049090D01*
X0080052Y0059504D01*
X0046040Y0059504D01*
X0048166Y0061630D01*
X0048166Y0063453D01*
X0048166Y0065275D01*
X0045589Y0067853D01*
X0043767Y0067853D01*
X0043767Y0063453D01*
X0048166Y0063453D01*
X0043767Y0063453D01*
X0043767Y0063453D01*
X0043766Y0063453D01*
X0043766Y0063453D01*
X0039366Y0063453D01*
X0039366Y0065275D01*
X0041944Y0067853D01*
X0043766Y0067853D01*
X0043766Y0063453D01*
X0039366Y0063453D01*
X0039366Y0061630D01*
X0041493Y0059504D01*
X0036884Y0059504D01*
X0036884Y0068108D01*
X0035595Y0069397D01*
X0024706Y0080286D01*
X0025020Y0081044D01*
X0025020Y0083073D01*
X0025020Y0082188D02*
X0031148Y0082188D01*
X0032747Y0080590D02*
X0024832Y0080590D01*
X0026001Y0078991D02*
X0034345Y0078991D01*
X0035944Y0077393D02*
X0027599Y0077393D01*
X0029198Y0075794D02*
X0037542Y0075794D01*
X0039141Y0074196D02*
X0030796Y0074196D01*
X0032395Y0072597D02*
X0040739Y0072597D01*
X0042338Y0070999D02*
X0033993Y0070999D01*
X0035592Y0069400D02*
X0043936Y0069400D01*
X0043767Y0067802D02*
X0043766Y0067802D01*
X0043766Y0066203D02*
X0043767Y0066203D01*
X0043766Y0064605D02*
X0043767Y0064605D01*
X0047238Y0066203D02*
X0080860Y0066203D01*
X0079766Y0065109D02*
X0082110Y0067453D01*
X0085423Y0067453D01*
X0087766Y0065109D01*
X0087766Y0061796D01*
X0086996Y0061025D01*
X0104546Y0061025D01*
X0106795Y0063275D01*
X0110109Y0063275D01*
X0112452Y0060932D01*
X0112452Y0057618D01*
X0110109Y0055275D01*
X0106795Y0055275D01*
X0105445Y0056626D01*
X0084294Y0056626D01*
X0081566Y0059353D01*
X0081566Y0059996D01*
X0079766Y0061796D01*
X0079766Y0065109D01*
X0079766Y0064605D02*
X0048166Y0064605D01*
X0048166Y0063006D02*
X0079766Y0063006D01*
X0080155Y0061408D02*
X0047944Y0061408D01*
X0046346Y0059809D02*
X0081566Y0059809D01*
X0081345Y0058211D02*
X0082709Y0058211D01*
X0082943Y0056612D02*
X0105458Y0056612D01*
X0108002Y0058826D02*
X0085205Y0058826D01*
X0083766Y0060265D01*
X0083766Y0063453D01*
X0086673Y0066203D02*
X0108413Y0066203D01*
X0110011Y0064605D02*
X0087766Y0064605D01*
X0087766Y0063006D02*
X0106526Y0063006D01*
X0104928Y0061408D02*
X0087378Y0061408D01*
X0084542Y0055014D02*
X0126328Y0055014D01*
X0126328Y0056612D02*
X0121446Y0056612D01*
X0122452Y0058211D02*
X0126328Y0058211D01*
X0126505Y0059809D02*
X0122452Y0059809D01*
X0123696Y0061408D02*
X0128103Y0061408D01*
X0129702Y0063006D02*
X0125294Y0063006D01*
X0126893Y0064605D02*
X0130028Y0064605D01*
X0131191Y0066203D02*
X0128491Y0066203D01*
X0130090Y0067802D02*
X0142789Y0067802D01*
X0142789Y0069400D02*
X0140490Y0069400D01*
X0142393Y0070999D02*
X0142789Y0070999D01*
X0142380Y0066203D02*
X0141463Y0066203D01*
X0144989Y0065701D02*
X0144989Y0111744D01*
X0166327Y0133082D01*
X0158987Y0140422D01*
X0158987Y0179925D01*
X0162145Y0183082D01*
X0166327Y0183082D01*
X0155223Y0194187D01*
X0117358Y0194187D01*
X0111688Y0188516D01*
X0065369Y0188516D01*
X0061605Y0192280D01*
X0061605Y0197005D01*
X0066348Y0198880D02*
X0066861Y0198880D01*
X0066605Y0198260D02*
X0065929Y0199893D01*
X0064494Y0201328D01*
X0062619Y0202104D01*
X0060591Y0202104D01*
X0058716Y0201328D01*
X0057281Y0199893D01*
X0056815Y0198768D01*
X0056702Y0199116D01*
X0056309Y0199887D01*
X0055800Y0200587D01*
X0055188Y0201200D01*
X0054488Y0201709D01*
X0053716Y0202102D01*
X0052893Y0202369D01*
X0052038Y0202504D01*
X0051805Y0202504D01*
X0051805Y0197205D01*
X0051405Y0197205D01*
X0051405Y0202504D01*
X0051172Y0202504D01*
X0050317Y0202369D01*
X0049494Y0202102D01*
X0048722Y0201709D01*
X0048022Y0201200D01*
X0047410Y0200587D01*
X0046901Y0199887D01*
X0046508Y0199116D01*
X0046395Y0198768D01*
X0045929Y0199893D01*
X0044494Y0201328D01*
X0042619Y0202104D01*
X0040591Y0202104D01*
X0038716Y0201328D01*
X0037281Y0199893D01*
X0036605Y0198260D01*
X0035929Y0199893D01*
X0034494Y0201328D01*
X0032619Y0202104D01*
X0030591Y0202104D01*
X0028716Y0201328D01*
X0027281Y0199893D01*
X0026605Y0198260D01*
X0025929Y0199893D01*
X0024494Y0201328D01*
X0022619Y0202104D01*
X0020591Y0202104D01*
X0018716Y0201328D01*
X0017281Y0199893D01*
X0016720Y0198537D01*
X0016720Y0206046D01*
X0213907Y0206046D01*
X0213907Y0145283D01*
X0212809Y0146382D01*
X0210934Y0147158D01*
X0208905Y0147158D01*
X0208216Y0146873D01*
X0189807Y0165282D01*
X0187984Y0165282D01*
X0172345Y0165282D01*
X0172318Y0165348D01*
X0171193Y0166474D01*
X0169723Y0167082D01*
X0162931Y0167082D01*
X0161461Y0166474D01*
X0161187Y0166199D01*
X0161187Y0169489D01*
X0161421Y0169319D01*
X0162038Y0169005D01*
X0162697Y0168791D01*
X0163381Y0168682D01*
X0166327Y0168682D01*
X0169273Y0168682D01*
X0169957Y0168791D01*
X0170616Y0169005D01*
X0171233Y0169319D01*
X0171793Y0169726D01*
X0172283Y0170216D01*
X0172690Y0170776D01*
X0173005Y0171393D01*
X0173219Y0172052D01*
X0173327Y0172736D01*
X0173327Y0173082D01*
X0166327Y0173082D01*
X0166327Y0168682D01*
X0166327Y0173082D01*
X0166327Y0173082D01*
X0166327Y0173083D01*
X0166327Y0173083D01*
X0166327Y0177482D01*
X0169273Y0177482D01*
X0169957Y0177374D01*
X0170616Y0177160D01*
X0171233Y0176846D01*
X0171793Y0176439D01*
X0172283Y0175949D01*
X0172690Y0175389D01*
X0173005Y0174771D01*
X0173219Y0174113D01*
X0173327Y0173429D01*
X0173327Y0173083D01*
X0166327Y0173083D01*
X0166327Y0177482D01*
X0163381Y0177482D01*
X0162697Y0177374D01*
X0162038Y0177160D01*
X0161421Y0176846D01*
X0161187Y0176676D01*
X0161187Y0179013D01*
X0161747Y0179573D01*
X0162931Y0179082D01*
X0169723Y0179082D01*
X0171193Y0179691D01*
X0172318Y0180817D01*
X0172927Y0182287D01*
X0172927Y0183878D01*
X0172318Y0185348D01*
X0172011Y0185655D01*
X0172502Y0186146D01*
X0179039Y0186146D01*
X0180839Y0184346D01*
X0184153Y0184346D01*
X0186496Y0186689D01*
X0186496Y0190003D01*
X0184153Y0192346D01*
X0180839Y0192346D01*
X0179039Y0190546D01*
X0170679Y0190546D01*
X0169391Y0189258D01*
X0167216Y0187082D01*
X0165438Y0187082D01*
X0156134Y0196387D01*
X0120815Y0196387D01*
X0119015Y0198187D01*
X0115702Y0198187D01*
X0113358Y0195843D01*
X0113358Y0193298D01*
X0110777Y0190716D01*
X0110110Y0190716D01*
X0111758Y0192364D01*
X0111758Y0194186D01*
X0107359Y0194186D01*
X0107359Y0194187D01*
X0111758Y0194187D01*
X0111758Y0196009D01*
X0109181Y0198587D01*
X0107358Y0198587D01*
X0105536Y0198587D01*
X0102958Y0196009D01*
X0102958Y0194187D01*
X0107358Y0194187D01*
X0107358Y0198587D01*
X0107358Y0194187D01*
X0107358Y0194187D01*
X0107358Y0194186D01*
X0102958Y0194186D01*
X0102958Y0192364D01*
X0104606Y0190716D01*
X0066281Y0190716D01*
X0064368Y0192629D01*
X0064494Y0192681D01*
X0065929Y0194116D01*
X0066605Y0195749D01*
X0067281Y0194116D01*
X0068716Y0192681D01*
X0070591Y0191905D01*
X0072619Y0191905D01*
X0074494Y0192681D01*
X0075929Y0194116D01*
X0076705Y0195990D01*
X0076705Y0198019D01*
X0075929Y0199893D01*
X0074494Y0201328D01*
X0072619Y0202104D01*
X0070591Y0202104D01*
X0068716Y0201328D01*
X0067281Y0199893D01*
X0066605Y0198260D01*
X0065344Y0200478D02*
X0067866Y0200478D01*
X0070523Y0202077D02*
X0062687Y0202077D01*
X0060523Y0202077D02*
X0053765Y0202077D01*
X0051805Y0202077D02*
X0051405Y0202077D01*
X0051405Y0200478D02*
X0051805Y0200478D01*
X0051805Y0198880D02*
X0051405Y0198880D01*
X0051405Y0197281D02*
X0051805Y0197281D01*
X0051805Y0196804D02*
X0051805Y0191505D01*
X0052038Y0191505D01*
X0052893Y0191640D01*
X0053716Y0191907D01*
X0054488Y0192300D01*
X0055188Y0192809D01*
X0055800Y0193421D01*
X0056309Y0194122D01*
X0056702Y0194893D01*
X0056815Y0195241D01*
X0057281Y0194116D01*
X0058716Y0192681D01*
X0059405Y0192396D01*
X0059405Y0191369D01*
X0063169Y0187605D01*
X0064458Y0186316D01*
X0112599Y0186316D01*
X0116470Y0190187D01*
X0119015Y0190187D01*
X0120815Y0191987D01*
X0154312Y0191987D01*
X0160643Y0185655D01*
X0160336Y0185348D01*
X0159727Y0183878D01*
X0159727Y0183776D01*
X0158076Y0182125D01*
X0156787Y0180836D01*
X0156787Y0139511D01*
X0160643Y0135655D01*
X0160336Y0135348D01*
X0159727Y0133878D01*
X0159727Y0132287D01*
X0160336Y0130817D01*
X0160643Y0130510D01*
X0144077Y0113944D01*
X0143327Y0113194D01*
X0143327Y0113429D01*
X0143219Y0114113D01*
X0143005Y0114771D01*
X0142690Y0115389D01*
X0142283Y0115949D01*
X0141793Y0116439D01*
X0141233Y0116846D01*
X0140616Y0117160D01*
X0139957Y0117374D01*
X0139273Y0117482D01*
X0136327Y0117482D01*
X0136327Y0113083D01*
X0136327Y0113083D01*
X0136327Y0117482D01*
X0133838Y0117482D01*
X0135438Y0119082D01*
X0139723Y0119082D01*
X0141193Y0119691D01*
X0142318Y0120817D01*
X0142927Y0122287D01*
X0142927Y0123878D01*
X0142318Y0125348D01*
X0155481Y0125348D01*
X0153883Y0123750D02*
X0142927Y0123750D01*
X0142871Y0122151D02*
X0152284Y0122151D01*
X0150686Y0120553D02*
X0142054Y0120553D01*
X0140014Y0117356D02*
X0147489Y0117356D01*
X0149087Y0118954D02*
X0135310Y0118954D01*
X0136327Y0117356D02*
X0136327Y0117356D01*
X0136327Y0115757D02*
X0136327Y0115757D01*
X0136327Y0114159D02*
X0136327Y0114159D01*
X0136327Y0113083D02*
X0136327Y0113082D01*
X0136327Y0108682D01*
X0139273Y0108682D01*
X0139957Y0108791D01*
X0140616Y0109005D01*
X0141233Y0109319D01*
X0141793Y0109726D01*
X0142283Y0110216D01*
X0142690Y0110776D01*
X0142789Y0110970D01*
X0142789Y0104212D01*
X0142318Y0105348D01*
X0141193Y0106474D01*
X0139723Y0107082D01*
X0132931Y0107082D01*
X0132714Y0106993D01*
X0127723Y0111984D01*
X0110351Y0111984D01*
X0110107Y0112572D01*
X0109045Y0113635D01*
X0107656Y0114210D01*
X0106153Y0114210D01*
X0104765Y0113635D01*
X0103702Y0112572D01*
X0103127Y0111184D01*
X0103127Y0109681D01*
X0103702Y0108292D01*
X0104765Y0107229D01*
X0106153Y0106654D01*
X0107656Y0106654D01*
X0109045Y0107229D01*
X0109399Y0107584D01*
X0125900Y0107584D01*
X0129727Y0103757D01*
X0129727Y0102287D01*
X0130336Y0100817D01*
X0131461Y0099691D01*
X0132931Y0099082D01*
X0139723Y0099082D01*
X0141193Y0099691D01*
X0142318Y0100817D01*
X0142789Y0101953D01*
X0142789Y0094212D01*
X0142318Y0095348D01*
X0141193Y0096474D01*
X0139723Y0097082D01*
X0132931Y0097082D01*
X0131461Y0096474D01*
X0130879Y0095891D01*
X0123279Y0103491D01*
X0097957Y0103491D01*
X0091683Y0109765D01*
X0091683Y0111184D01*
X0091107Y0112572D01*
X0090045Y0113635D01*
X0088656Y0114210D01*
X0087153Y0114210D01*
X0085765Y0113635D01*
X0084702Y0112572D01*
X0084127Y0111184D01*
X0084127Y0109681D01*
X0084702Y0108292D01*
X0085765Y0107229D01*
X0087153Y0106654D01*
X0088571Y0106654D01*
X0094846Y0100380D01*
X0096135Y0099091D01*
X0108608Y0099091D01*
X0108465Y0098987D01*
X0107842Y0098364D01*
X0107324Y0097651D01*
X0106924Y0096865D01*
X0106651Y0096027D01*
X0106514Y0095156D01*
X0106514Y0094916D01*
X0111913Y0094916D01*
X0111913Y0094516D01*
X0106514Y0094516D01*
X0106514Y0094275D01*
X0106651Y0093404D01*
X0106924Y0092566D01*
X0107324Y0091781D01*
X0107842Y0091068D01*
X0108465Y0090444D01*
X0109179Y0089926D01*
X0109964Y0089526D01*
X0110802Y0089254D01*
X0111673Y0089116D01*
X0111914Y0089116D01*
X0111914Y0094516D01*
X0112314Y0094516D01*
X0112314Y0094916D01*
X0117714Y0094916D01*
X0117714Y0095156D01*
X0117576Y0096027D01*
X0117303Y0096865D01*
X0116903Y0097651D01*
X0116385Y0098364D01*
X0115762Y0098987D01*
X0115619Y0099091D01*
X0121457Y0099091D01*
X0128376Y0092171D01*
X0129665Y0090882D01*
X0130309Y0090882D01*
X0130336Y0090817D01*
X0131461Y0089691D01*
X0132931Y0089082D01*
X0139723Y0089082D01*
X0141193Y0089691D01*
X0142318Y0090817D01*
X0142789Y0091953D01*
X0142789Y0084212D01*
X0142318Y0085348D01*
X0141193Y0086474D01*
X0139723Y0087082D01*
X0132931Y0087082D01*
X0131461Y0086474D01*
X0130336Y0085348D01*
X0130309Y0085282D01*
X0119569Y0085282D01*
X0118280Y0083994D01*
X0113893Y0079607D01*
X0113148Y0079916D01*
X0111079Y0079916D01*
X0110334Y0079607D01*
X0106180Y0083761D01*
X0092061Y0083761D01*
X0090261Y0085561D01*
X0086947Y0085561D01*
X0085466Y0084079D01*
X0084757Y0084149D01*
X0084670Y0084236D01*
X0083866Y0084236D01*
X0083066Y0084315D01*
X0082971Y0084236D01*
X0059779Y0084236D01*
X0039758Y0104258D01*
X0024529Y0104258D01*
X0024243Y0104947D01*
X0022809Y0106382D01*
X0021176Y0107058D01*
X0022809Y0107735D01*
X0024243Y0109169D01*
X0024529Y0109858D01*
X0078060Y0109858D01*
X0082924Y0114722D01*
X0129633Y0114722D01*
X0129435Y0114113D01*
X0129327Y0113429D01*
X0129327Y0113083D01*
X0136327Y0113083D01*
X0136327Y0113082D02*
X0129327Y0113082D01*
X0129327Y0112736D01*
X0129435Y0112052D01*
X0129649Y0111393D01*
X0129964Y0110776D01*
X0130371Y0110216D01*
X0130860Y0109726D01*
X0131421Y0109319D01*
X0132038Y0109005D01*
X0132697Y0108791D01*
X0133381Y0108682D01*
X0136327Y0108682D01*
X0136327Y0113082D01*
X0136327Y0113082D01*
X0136327Y0112560D02*
X0136327Y0112560D01*
X0136327Y0110961D02*
X0136327Y0110961D01*
X0136327Y0109363D02*
X0136327Y0109363D01*
X0131942Y0107764D02*
X0142789Y0107764D01*
X0142789Y0106166D02*
X0141500Y0106166D01*
X0142641Y0104567D02*
X0142789Y0104567D01*
X0142789Y0101370D02*
X0142547Y0101370D01*
X0142789Y0099772D02*
X0141273Y0099772D01*
X0142789Y0098173D02*
X0128597Y0098173D01*
X0130195Y0096575D02*
X0131706Y0096575D01*
X0131381Y0099772D02*
X0126998Y0099772D01*
X0125400Y0101370D02*
X0130106Y0101370D01*
X0129727Y0102969D02*
X0123801Y0102969D01*
X0122368Y0101291D02*
X0130576Y0093082D01*
X0136327Y0093082D01*
X0140948Y0096575D02*
X0142789Y0096575D01*
X0142789Y0094976D02*
X0142472Y0094976D01*
X0142717Y0091779D02*
X0142789Y0091779D01*
X0142789Y0090181D02*
X0141682Y0090181D01*
X0142789Y0088582D02*
X0055433Y0088582D01*
X0053835Y0090181D02*
X0108828Y0090181D01*
X0107325Y0091779D02*
X0052236Y0091779D01*
X0050638Y0093378D02*
X0106660Y0093378D01*
X0106514Y0094976D02*
X0049039Y0094976D01*
X0047441Y0096575D02*
X0106829Y0096575D01*
X0107704Y0098173D02*
X0076361Y0098173D01*
X0075010Y0096822D02*
X0078261Y0100073D01*
X0078261Y0102372D01*
X0078261Y0104671D01*
X0075010Y0107922D01*
X0072711Y0107922D01*
X0072711Y0102372D01*
X0072711Y0102372D01*
X0072711Y0107922D01*
X0070412Y0107922D01*
X0067161Y0104671D01*
X0067161Y0102372D01*
X0072711Y0102372D01*
X0078261Y0102372D01*
X0072711Y0102372D01*
X0072711Y0102372D01*
X0072711Y0102372D01*
X0067161Y0102372D01*
X0067161Y0100073D01*
X0070412Y0096822D01*
X0072711Y0096822D01*
X0075010Y0096822D01*
X0072711Y0096822D02*
X0072711Y0102372D01*
X0072711Y0102372D01*
X0072711Y0096822D01*
X0072711Y0098173D02*
X0072711Y0098173D01*
X0072711Y0099772D02*
X0072711Y0099772D01*
X0072711Y0101370D02*
X0072711Y0101370D01*
X0072711Y0102969D02*
X0072711Y0102969D01*
X0072711Y0104567D02*
X0072711Y0104567D01*
X0072711Y0106166D02*
X0072711Y0106166D01*
X0072711Y0107764D02*
X0072711Y0107764D01*
X0075167Y0107764D02*
X0085229Y0107764D01*
X0084258Y0109363D02*
X0024324Y0109363D01*
X0022838Y0107764D02*
X0070255Y0107764D01*
X0068656Y0106166D02*
X0056200Y0106166D01*
X0055628Y0106738D02*
X0053735Y0107522D01*
X0051687Y0107522D01*
X0049794Y0106738D01*
X0048345Y0105289D01*
X0047561Y0103396D01*
X0047561Y0101347D01*
X0048345Y0099455D01*
X0049794Y0098006D01*
X0051687Y0097222D01*
X0053735Y0097222D01*
X0055628Y0098006D01*
X0057077Y0099455D01*
X0057861Y0101347D01*
X0057861Y0103396D01*
X0057077Y0105289D01*
X0055628Y0106738D01*
X0057376Y0104567D02*
X0067161Y0104567D01*
X0067161Y0102969D02*
X0057861Y0102969D01*
X0057861Y0101370D02*
X0067161Y0101370D01*
X0067462Y0099772D02*
X0057208Y0099772D01*
X0055796Y0098173D02*
X0069060Y0098173D01*
X0077960Y0099772D02*
X0095453Y0099772D01*
X0097046Y0101291D02*
X0122368Y0101291D01*
X0122374Y0098173D02*
X0116523Y0098173D01*
X0117398Y0096575D02*
X0123973Y0096575D01*
X0125571Y0094976D02*
X0117714Y0094976D01*
X0117714Y0094516D02*
X0112314Y0094516D01*
X0112314Y0089116D01*
X0112554Y0089116D01*
X0113425Y0089254D01*
X0114263Y0089526D01*
X0115049Y0089926D01*
X0115762Y0090444D01*
X0116385Y0091068D01*
X0116903Y0091781D01*
X0117303Y0092566D01*
X0117576Y0093404D01*
X0117714Y0094275D01*
X0117714Y0094516D01*
X0117567Y0093378D02*
X0127170Y0093378D01*
X0128768Y0091779D02*
X0116902Y0091779D01*
X0115399Y0090181D02*
X0130972Y0090181D01*
X0132693Y0086984D02*
X0057032Y0086984D01*
X0058630Y0085385D02*
X0086772Y0085385D01*
X0088604Y0081561D02*
X0083758Y0082036D01*
X0058868Y0082036D01*
X0038846Y0102058D01*
X0019920Y0102058D01*
X0024401Y0104567D02*
X0048046Y0104567D01*
X0047561Y0102969D02*
X0041047Y0102969D01*
X0042645Y0101370D02*
X0047561Y0101370D01*
X0048214Y0099772D02*
X0044244Y0099772D01*
X0045842Y0098173D02*
X0049626Y0098173D01*
X0049222Y0106166D02*
X0023025Y0106166D01*
X0019920Y0112058D02*
X0077149Y0112058D01*
X0082012Y0116922D01*
X0130167Y0116922D01*
X0136327Y0123082D01*
X0133438Y0127082D02*
X0135438Y0129082D01*
X0139723Y0129082D01*
X0141193Y0129691D01*
X0142318Y0130817D01*
X0142927Y0132287D01*
X0142927Y0133878D01*
X0142318Y0135348D01*
X0141856Y0135810D01*
X0144031Y0135810D01*
X0147416Y0139194D01*
X0148705Y0140483D01*
X0148705Y0173816D01*
X0147416Y0175105D01*
X0142011Y0180510D01*
X0142318Y0180817D01*
X0142927Y0182287D01*
X0142927Y0183878D01*
X0142318Y0185348D01*
X0141193Y0186474D01*
X0139723Y0187082D01*
X0132931Y0187082D01*
X0131461Y0186474D01*
X0130336Y0185348D01*
X0130309Y0185282D01*
X0127556Y0185282D01*
X0127082Y0185463D01*
X0126681Y0185282D01*
X0126241Y0185282D01*
X0125882Y0184924D01*
X0103093Y0174689D01*
X0102628Y0175154D01*
X0100717Y0175946D01*
X0098648Y0175946D01*
X0096737Y0175154D01*
X0095274Y0173691D01*
X0094483Y0171780D01*
X0094483Y0169711D01*
X0095274Y0167800D01*
X0096737Y0166337D01*
X0098648Y0165546D01*
X0100717Y0165546D01*
X0102628Y0166337D01*
X0104091Y0167800D01*
X0104883Y0169711D01*
X0104883Y0170670D01*
X0127623Y0180882D01*
X0130309Y0180882D01*
X0130336Y0180817D01*
X0131461Y0179691D01*
X0132931Y0179082D01*
X0137216Y0179082D01*
X0139216Y0177082D01*
X0132931Y0177082D01*
X0131461Y0176474D01*
X0130336Y0175348D01*
X0129727Y0173878D01*
X0129727Y0172287D01*
X0129858Y0171971D01*
X0111267Y0171971D01*
X0109978Y0170683D01*
X0097729Y0158434D01*
X0052236Y0158434D01*
X0050947Y0157145D01*
X0038060Y0144258D01*
X0024529Y0144258D01*
X0024243Y0144947D01*
X0022809Y0146382D01*
X0020934Y0147158D01*
X0018905Y0147158D01*
X0017031Y0146382D01*
X0016720Y0146071D01*
X0016720Y0195472D01*
X0017281Y0194116D01*
X0018716Y0192681D01*
X0020591Y0191905D01*
X0022619Y0191905D01*
X0024494Y0192681D01*
X0025929Y0194116D01*
X0026605Y0195749D01*
X0027281Y0194116D01*
X0028716Y0192681D01*
X0030591Y0191905D01*
X0032619Y0191905D01*
X0034494Y0192681D01*
X0035929Y0194116D01*
X0036605Y0195749D01*
X0037281Y0194116D01*
X0038716Y0192681D01*
X0040591Y0191905D01*
X0042619Y0191905D01*
X0044494Y0192681D01*
X0045929Y0194116D01*
X0046395Y0195241D01*
X0046508Y0194893D01*
X0046901Y0194122D01*
X0047410Y0193421D01*
X0048022Y0192809D01*
X0048722Y0192300D01*
X0049494Y0191907D01*
X0050317Y0191640D01*
X0051172Y0191505D01*
X0051405Y0191505D01*
X0051405Y0196804D01*
X0051805Y0196804D01*
X0051805Y0195683D02*
X0051405Y0195683D01*
X0051405Y0194084D02*
X0051805Y0194084D01*
X0051805Y0192486D02*
X0051405Y0192486D01*
X0048468Y0192486D02*
X0044022Y0192486D01*
X0045897Y0194084D02*
X0046928Y0194084D01*
X0046431Y0198880D02*
X0046348Y0198880D01*
X0047330Y0200478D02*
X0045344Y0200478D01*
X0042687Y0202077D02*
X0049445Y0202077D01*
X0055880Y0200478D02*
X0057866Y0200478D01*
X0056861Y0198880D02*
X0056779Y0198880D01*
X0056282Y0194084D02*
X0057313Y0194084D01*
X0059188Y0192486D02*
X0054742Y0192486D01*
X0059887Y0190887D02*
X0016720Y0190887D01*
X0016720Y0189289D02*
X0061485Y0189289D01*
X0063084Y0187690D02*
X0016720Y0187690D01*
X0016720Y0186092D02*
X0131079Y0186092D01*
X0127152Y0183082D02*
X0136327Y0183082D01*
X0146505Y0172905D01*
X0146505Y0141394D01*
X0143120Y0138010D01*
X0128301Y0138010D01*
X0119671Y0129380D01*
X0093449Y0129380D01*
X0096533Y0114507D02*
X0095907Y0114304D01*
X0095321Y0114005D01*
X0094789Y0113619D01*
X0094324Y0113154D01*
X0093938Y0112622D01*
X0093639Y0112036D01*
X0093436Y0111410D01*
X0093333Y0110761D01*
X0093333Y0110432D01*
X0093333Y0110103D01*
X0093436Y0109454D01*
X0093639Y0108828D01*
X0093938Y0108242D01*
X0094324Y0107710D01*
X0094789Y0107245D01*
X0095321Y0106859D01*
X0095907Y0106560D01*
X0096533Y0106357D01*
X0097182Y0106254D01*
X0097511Y0106254D01*
X0097840Y0106254D01*
X0098489Y0106357D01*
X0099115Y0106560D01*
X0099701Y0106859D01*
X0100233Y0107245D01*
X0100698Y0107710D01*
X0101084Y0108242D01*
X0101383Y0108828D01*
X0101586Y0109454D01*
X0101689Y0110103D01*
X0101689Y0110432D01*
X0097511Y0110432D01*
X0097511Y0110432D01*
X0097511Y0106254D01*
X0097511Y0110432D01*
X0097511Y0110432D01*
X0101689Y0110432D01*
X0101689Y0110761D01*
X0101586Y0111410D01*
X0101383Y0112036D01*
X0101084Y0112622D01*
X0100698Y0113154D01*
X0100233Y0113619D01*
X0099701Y0114005D01*
X0099115Y0114304D01*
X0098489Y0114507D01*
X0097840Y0114610D01*
X0097511Y0114610D01*
X0097511Y0110432D01*
X0097511Y0110432D01*
X0093333Y0110432D01*
X0097511Y0110432D01*
X0097511Y0110432D01*
X0097511Y0114610D01*
X0097182Y0114610D01*
X0096533Y0114507D01*
X0095622Y0114159D02*
X0088780Y0114159D01*
X0087029Y0114159D02*
X0082360Y0114159D01*
X0080762Y0112560D02*
X0084697Y0112560D01*
X0084127Y0110961D02*
X0079163Y0110961D01*
X0076766Y0106166D02*
X0089059Y0106166D01*
X0090658Y0104567D02*
X0078261Y0104567D01*
X0078261Y0102969D02*
X0092256Y0102969D01*
X0093855Y0101370D02*
X0078261Y0101370D01*
X0087905Y0110432D02*
X0097046Y0101291D01*
X0096880Y0104567D02*
X0128917Y0104567D01*
X0127318Y0106166D02*
X0095282Y0106166D01*
X0094285Y0107764D02*
X0093683Y0107764D01*
X0093465Y0109363D02*
X0092085Y0109363D01*
X0091683Y0110961D02*
X0093365Y0110961D01*
X0093906Y0112560D02*
X0091112Y0112560D01*
X0097511Y0112560D02*
X0097511Y0112560D01*
X0097511Y0114159D02*
X0097511Y0114159D01*
X0099400Y0114159D02*
X0106029Y0114159D01*
X0107780Y0114159D02*
X0129450Y0114159D01*
X0129355Y0112560D02*
X0110112Y0112560D01*
X0107553Y0109784D02*
X0126811Y0109784D01*
X0133513Y0103082D01*
X0136327Y0103082D01*
X0141293Y0109363D02*
X0142789Y0109363D01*
X0142784Y0110961D02*
X0142789Y0110961D01*
X0143204Y0114159D02*
X0144292Y0114159D01*
X0145890Y0115757D02*
X0142422Y0115757D01*
X0147317Y0110961D02*
X0160276Y0110961D01*
X0159727Y0112560D02*
X0148916Y0112560D01*
X0150514Y0114159D02*
X0159843Y0114159D01*
X0160745Y0115757D02*
X0152113Y0115757D01*
X0153711Y0117356D02*
X0207946Y0117356D01*
X0205811Y0118954D02*
X0155310Y0118954D01*
X0156908Y0120553D02*
X0160600Y0120553D01*
X0159783Y0122151D02*
X0158507Y0122151D01*
X0157080Y0126947D02*
X0140051Y0126947D01*
X0139723Y0127082D02*
X0133438Y0127082D01*
X0134901Y0128545D02*
X0158678Y0128545D01*
X0160277Y0130144D02*
X0141645Y0130144D01*
X0142701Y0131742D02*
X0159952Y0131742D01*
X0159727Y0133341D02*
X0142927Y0133341D01*
X0142487Y0134939D02*
X0160166Y0134939D01*
X0159760Y0136538D02*
X0144759Y0136538D01*
X0146358Y0138136D02*
X0158162Y0138136D01*
X0156787Y0139735D02*
X0147956Y0139735D01*
X0148705Y0141333D02*
X0156787Y0141333D01*
X0156787Y0142932D02*
X0148705Y0142932D01*
X0148705Y0144530D02*
X0156787Y0144530D01*
X0156787Y0146129D02*
X0148705Y0146129D01*
X0148705Y0147727D02*
X0156787Y0147727D01*
X0156787Y0149326D02*
X0148705Y0149326D01*
X0148705Y0150924D02*
X0156787Y0150924D01*
X0156787Y0152523D02*
X0148705Y0152523D01*
X0148705Y0154121D02*
X0156787Y0154121D01*
X0156787Y0155720D02*
X0148705Y0155720D01*
X0148705Y0157318D02*
X0156787Y0157318D01*
X0156787Y0158917D02*
X0148705Y0158917D01*
X0148705Y0160515D02*
X0156787Y0160515D01*
X0156787Y0162114D02*
X0148705Y0162114D01*
X0148705Y0163712D02*
X0156787Y0163712D01*
X0156787Y0165311D02*
X0148705Y0165311D01*
X0148705Y0166909D02*
X0156787Y0166909D01*
X0156787Y0168508D02*
X0148705Y0168508D01*
X0148705Y0170106D02*
X0156787Y0170106D01*
X0156787Y0171705D02*
X0148705Y0171705D01*
X0148705Y0173303D02*
X0156787Y0173303D01*
X0156787Y0174902D02*
X0147619Y0174902D01*
X0147416Y0175105D02*
X0147416Y0175105D01*
X0146020Y0176500D02*
X0156787Y0176500D01*
X0156787Y0178099D02*
X0144422Y0178099D01*
X0142823Y0179697D02*
X0156787Y0179697D01*
X0157247Y0181296D02*
X0142516Y0181296D01*
X0142927Y0182894D02*
X0158846Y0182894D01*
X0159982Y0184493D02*
X0142672Y0184493D01*
X0141575Y0186092D02*
X0160207Y0186092D01*
X0158608Y0187690D02*
X0113973Y0187690D01*
X0115572Y0189289D02*
X0157010Y0189289D01*
X0155411Y0190887D02*
X0119716Y0190887D01*
X0119921Y0197281D02*
X0213907Y0197281D01*
X0213907Y0195683D02*
X0156838Y0195683D01*
X0158437Y0194084D02*
X0213907Y0194084D01*
X0213907Y0192486D02*
X0194579Y0192486D01*
X0194319Y0192746D02*
X0192496Y0192746D01*
X0190674Y0192746D01*
X0188096Y0190169D01*
X0188096Y0188346D01*
X0188096Y0186524D01*
X0190674Y0183946D01*
X0192496Y0183946D01*
X0192496Y0188346D01*
X0192496Y0188346D01*
X0188096Y0188346D01*
X0192496Y0188346D01*
X0192496Y0188346D01*
X0192496Y0183946D01*
X0194319Y0183946D01*
X0196896Y0186524D01*
X0196896Y0188346D01*
X0192496Y0188346D01*
X0192496Y0188346D01*
X0196896Y0188346D01*
X0196896Y0190169D01*
X0194319Y0192746D01*
X0192496Y0192746D02*
X0192496Y0188346D01*
X0192496Y0192746D01*
X0192496Y0192486D02*
X0192496Y0192486D01*
X0192496Y0190887D02*
X0192496Y0190887D01*
X0192496Y0189289D02*
X0192496Y0189289D01*
X0192496Y0188346D02*
X0192496Y0188346D01*
X0192496Y0187690D02*
X0192496Y0187690D01*
X0192496Y0186092D02*
X0192496Y0186092D01*
X0192496Y0184493D02*
X0192496Y0184493D01*
X0190127Y0184493D02*
X0184300Y0184493D01*
X0185898Y0186092D02*
X0188528Y0186092D01*
X0188096Y0187690D02*
X0186496Y0187690D01*
X0186496Y0189289D02*
X0188096Y0189289D01*
X0188814Y0190887D02*
X0185612Y0190887D01*
X0182496Y0188346D02*
X0171591Y0188346D01*
X0166327Y0183082D01*
X0164831Y0187690D02*
X0167823Y0187690D01*
X0169391Y0189258D02*
X0169391Y0189258D01*
X0169422Y0189289D02*
X0163232Y0189289D01*
X0161634Y0190887D02*
X0179380Y0190887D01*
X0179094Y0186092D02*
X0172447Y0186092D01*
X0172672Y0184493D02*
X0180693Y0184493D01*
X0172927Y0182894D02*
X0213907Y0182894D01*
X0213907Y0181296D02*
X0172516Y0181296D01*
X0171199Y0179697D02*
X0213907Y0179697D01*
X0213907Y0178099D02*
X0161187Y0178099D01*
X0166327Y0176500D02*
X0166327Y0176500D01*
X0166327Y0174902D02*
X0166327Y0174902D01*
X0166327Y0173303D02*
X0166327Y0173303D01*
X0166327Y0171705D02*
X0166327Y0171705D01*
X0166327Y0170106D02*
X0166327Y0170106D01*
X0170140Y0166909D02*
X0213907Y0166909D01*
X0213907Y0165311D02*
X0172333Y0165311D01*
X0172173Y0170106D02*
X0213907Y0170106D01*
X0213907Y0168508D02*
X0161187Y0168508D01*
X0161187Y0166909D02*
X0162513Y0166909D01*
X0166327Y0163082D02*
X0188896Y0163082D01*
X0209920Y0142058D01*
X0213062Y0146129D02*
X0213907Y0146129D01*
X0213907Y0147727D02*
X0207362Y0147727D01*
X0205764Y0149326D02*
X0213907Y0149326D01*
X0213907Y0150924D02*
X0204165Y0150924D01*
X0202567Y0152523D02*
X0213907Y0152523D01*
X0213907Y0154121D02*
X0200968Y0154121D01*
X0199369Y0155720D02*
X0213907Y0155720D01*
X0213907Y0157318D02*
X0197771Y0157318D01*
X0196172Y0158917D02*
X0213907Y0158917D01*
X0213907Y0160515D02*
X0194574Y0160515D01*
X0192975Y0162114D02*
X0213907Y0162114D01*
X0213907Y0163712D02*
X0191377Y0163712D01*
X0181875Y0153082D02*
X0202935Y0132022D01*
X0209883Y0132022D01*
X0209920Y0132058D01*
X0209328Y0122650D02*
X0201115Y0122650D01*
X0180682Y0143082D01*
X0166327Y0143082D01*
X0164384Y0138136D02*
X0182517Y0138136D01*
X0184116Y0136538D02*
X0171038Y0136538D01*
X0172487Y0134939D02*
X0185714Y0134939D01*
X0187313Y0133341D02*
X0172927Y0133341D01*
X0172701Y0131742D02*
X0188911Y0131742D01*
X0190510Y0130144D02*
X0171645Y0130144D01*
X0169723Y0127082D02*
X0171193Y0126474D01*
X0172318Y0125348D01*
X0172927Y0123750D02*
X0196904Y0123750D01*
X0198502Y0122151D02*
X0172871Y0122151D01*
X0172054Y0120553D02*
X0200101Y0120553D01*
X0209328Y0122650D02*
X0209920Y0122058D01*
X0192108Y0128545D02*
X0164901Y0128545D01*
X0171236Y0139735D02*
X0180919Y0139735D01*
X0181875Y0153082D02*
X0166327Y0153082D01*
X0173106Y0171705D02*
X0213907Y0171705D01*
X0213907Y0173303D02*
X0173327Y0173303D01*
X0172938Y0174902D02*
X0213907Y0174902D01*
X0213907Y0176500D02*
X0171708Y0176500D01*
X0160035Y0192486D02*
X0190413Y0192486D01*
X0196178Y0190887D02*
X0213907Y0190887D01*
X0213907Y0189289D02*
X0196896Y0189289D01*
X0196896Y0187690D02*
X0213907Y0187690D01*
X0213907Y0186092D02*
X0196464Y0186092D01*
X0194865Y0184493D02*
X0213907Y0184493D01*
X0213907Y0198880D02*
X0076348Y0198880D01*
X0076705Y0197281D02*
X0104230Y0197281D01*
X0102958Y0195683D02*
X0076578Y0195683D01*
X0075897Y0194084D02*
X0102958Y0194084D01*
X0102958Y0192486D02*
X0074022Y0192486D01*
X0069188Y0192486D02*
X0064511Y0192486D01*
X0065897Y0194084D02*
X0067313Y0194084D01*
X0066632Y0195683D02*
X0066578Y0195683D01*
X0066109Y0190887D02*
X0104435Y0190887D01*
X0107358Y0195683D02*
X0107358Y0195683D01*
X0107358Y0197281D02*
X0107358Y0197281D01*
X0110486Y0197281D02*
X0114796Y0197281D01*
X0113358Y0195683D02*
X0111758Y0195683D01*
X0111758Y0194084D02*
X0113358Y0194084D01*
X0112546Y0192486D02*
X0111758Y0192486D01*
X0110948Y0190887D02*
X0110281Y0190887D01*
X0114245Y0179697D02*
X0016720Y0179697D01*
X0016720Y0178099D02*
X0110686Y0178099D01*
X0107126Y0176500D02*
X0016720Y0176500D01*
X0016720Y0174902D02*
X0075919Y0174902D01*
X0076035Y0175017D02*
X0075411Y0174394D01*
X0074893Y0173681D01*
X0074493Y0172895D01*
X0074221Y0172057D01*
X0074083Y0171187D01*
X0074083Y0170946D01*
X0079483Y0170946D01*
X0079483Y0176346D01*
X0079242Y0176346D01*
X0078371Y0176208D01*
X0077533Y0175936D01*
X0076748Y0175535D01*
X0076035Y0175017D01*
X0074701Y0173303D02*
X0016720Y0173303D01*
X0016720Y0171705D02*
X0074165Y0171705D01*
X0074083Y0170546D02*
X0074083Y0170305D01*
X0074221Y0169434D01*
X0074493Y0168596D01*
X0074893Y0167811D01*
X0075411Y0167098D01*
X0076035Y0166474D01*
X0076748Y0165956D01*
X0077533Y0165556D01*
X0078371Y0165284D01*
X0079242Y0165146D01*
X0079483Y0165146D01*
X0079483Y0170546D01*
X0079883Y0170546D01*
X0079883Y0170946D01*
X0085283Y0170946D01*
X0085283Y0171187D01*
X0085145Y0172057D01*
X0084872Y0172895D01*
X0084472Y0173681D01*
X0083954Y0174394D01*
X0083331Y0175017D01*
X0082618Y0175535D01*
X0081832Y0175936D01*
X0080994Y0176208D01*
X0080123Y0176346D01*
X0079883Y0176346D01*
X0079883Y0170946D01*
X0079483Y0170946D01*
X0079483Y0170546D01*
X0074083Y0170546D01*
X0074114Y0170106D02*
X0016720Y0170106D01*
X0016720Y0168508D02*
X0074538Y0168508D01*
X0075600Y0166909D02*
X0016720Y0166909D01*
X0016720Y0165311D02*
X0078288Y0165311D01*
X0079483Y0165311D02*
X0079883Y0165311D01*
X0079883Y0165146D02*
X0080123Y0165146D01*
X0080994Y0165284D01*
X0081832Y0165556D01*
X0082618Y0165956D01*
X0083331Y0166474D01*
X0083954Y0167098D01*
X0084472Y0167811D01*
X0084872Y0168596D01*
X0085145Y0169434D01*
X0085283Y0170305D01*
X0085283Y0170546D01*
X0079883Y0170546D01*
X0079883Y0165146D01*
X0081078Y0165311D02*
X0104606Y0165311D01*
X0103200Y0166909D02*
X0106205Y0166909D01*
X0107803Y0168508D02*
X0104384Y0168508D01*
X0104883Y0170106D02*
X0109402Y0170106D01*
X0111000Y0171705D02*
X0107188Y0171705D01*
X0110747Y0173303D02*
X0129727Y0173303D01*
X0130151Y0174902D02*
X0114307Y0174902D01*
X0117866Y0176500D02*
X0131526Y0176500D01*
X0131455Y0179697D02*
X0124985Y0179697D01*
X0127152Y0183082D02*
X0099683Y0170746D01*
X0096165Y0166909D02*
X0083766Y0166909D01*
X0084827Y0168508D02*
X0094981Y0168508D01*
X0094483Y0170106D02*
X0085251Y0170106D01*
X0085201Y0171705D02*
X0094483Y0171705D01*
X0095114Y0173303D02*
X0084665Y0173303D01*
X0083446Y0174902D02*
X0096485Y0174902D01*
X0102880Y0174902D02*
X0103567Y0174902D01*
X0112178Y0169771D02*
X0133016Y0169771D01*
X0136327Y0173082D01*
X0138199Y0178099D02*
X0121425Y0178099D01*
X0117804Y0181296D02*
X0016720Y0181296D01*
X0016720Y0182894D02*
X0121363Y0182894D01*
X0124923Y0184493D02*
X0016720Y0184493D01*
X0016720Y0192486D02*
X0019188Y0192486D01*
X0017313Y0194084D02*
X0016720Y0194084D01*
X0016720Y0198880D02*
X0016861Y0198880D01*
X0016720Y0200478D02*
X0017866Y0200478D01*
X0016720Y0202077D02*
X0020523Y0202077D01*
X0022687Y0202077D02*
X0030523Y0202077D01*
X0032687Y0202077D02*
X0040523Y0202077D01*
X0037866Y0200478D02*
X0035344Y0200478D01*
X0036348Y0198880D02*
X0036861Y0198880D01*
X0036632Y0195683D02*
X0036578Y0195683D01*
X0035897Y0194084D02*
X0037313Y0194084D01*
X0039188Y0192486D02*
X0034022Y0192486D01*
X0029188Y0192486D02*
X0024022Y0192486D01*
X0025897Y0194084D02*
X0027313Y0194084D01*
X0026632Y0195683D02*
X0026578Y0195683D01*
X0026348Y0198880D02*
X0026861Y0198880D01*
X0027866Y0200478D02*
X0025344Y0200478D01*
X0016720Y0203675D02*
X0213907Y0203675D01*
X0213907Y0202077D02*
X0072687Y0202077D01*
X0075344Y0200478D02*
X0213907Y0200478D01*
X0213907Y0205274D02*
X0016720Y0205274D01*
X0016720Y0163712D02*
X0103008Y0163712D01*
X0101409Y0162114D02*
X0016720Y0162114D01*
X0016720Y0160515D02*
X0099811Y0160515D01*
X0098212Y0158917D02*
X0016720Y0158917D01*
X0016720Y0157318D02*
X0051120Y0157318D01*
X0049522Y0155720D02*
X0016720Y0155720D01*
X0016720Y0154121D02*
X0047923Y0154121D01*
X0046325Y0152523D02*
X0016720Y0152523D01*
X0016720Y0150924D02*
X0044726Y0150924D01*
X0043128Y0149326D02*
X0016720Y0149326D01*
X0016720Y0147727D02*
X0041529Y0147727D01*
X0039931Y0146129D02*
X0023062Y0146129D01*
X0024416Y0144530D02*
X0038332Y0144530D01*
X0038972Y0142058D02*
X0053147Y0156234D01*
X0098640Y0156234D01*
X0112178Y0169771D01*
X0125181Y0161701D02*
X0134945Y0161701D01*
X0136327Y0163082D01*
X0125181Y0161701D02*
X0111643Y0148163D01*
X0059388Y0148163D01*
X0043283Y0132058D01*
X0019920Y0132058D01*
X0019920Y0122058D02*
X0125303Y0122058D01*
X0136327Y0133082D01*
X0139723Y0127082D02*
X0141193Y0126474D01*
X0142318Y0125348D01*
X0129869Y0110961D02*
X0128745Y0110961D01*
X0130344Y0109363D02*
X0131361Y0109363D01*
X0147189Y0109363D02*
X0162254Y0109363D01*
X0142789Y0086984D02*
X0139961Y0086984D01*
X0142281Y0085385D02*
X0142789Y0085385D01*
X0136327Y0083082D02*
X0120480Y0083082D01*
X0112114Y0074716D01*
X0105268Y0081561D01*
X0088604Y0081561D01*
X0090437Y0085385D02*
X0130373Y0085385D01*
X0118073Y0083787D02*
X0092035Y0083787D01*
X0107752Y0082188D02*
X0116475Y0082188D01*
X0114876Y0080590D02*
X0109351Y0080590D01*
X0106625Y0071102D02*
X0118452Y0059275D01*
X0132259Y0073082D01*
X0136327Y0073082D01*
X0132164Y0069400D02*
X0131688Y0069400D01*
X0136327Y0063082D02*
X0140179Y0059230D01*
X0154279Y0059230D01*
X0153786Y0056612D02*
X0140858Y0056612D01*
X0142457Y0055014D02*
X0155384Y0055014D01*
X0166327Y0073082D02*
X0172635Y0073082D01*
X0201115Y0101562D01*
X0187234Y0082188D02*
X0184852Y0082188D01*
X0185636Y0080590D02*
X0183254Y0080590D01*
X0184037Y0078991D02*
X0181655Y0078991D01*
X0182439Y0077393D02*
X0180057Y0077393D01*
X0175433Y0078991D02*
X0147189Y0078991D01*
X0147189Y0077393D02*
X0173834Y0077393D01*
X0172236Y0075794D02*
X0171872Y0075794D01*
X0172281Y0085385D02*
X0172714Y0085385D01*
X0134127Y0048620D02*
X0129462Y0048620D01*
X0130728Y0050218D02*
X0130934Y0050218D01*
X0127863Y0047021D02*
X0134127Y0047021D01*
X0134127Y0045423D02*
X0126265Y0045423D01*
X0124666Y0043824D02*
X0135008Y0043824D01*
X0136606Y0042225D02*
X0123068Y0042225D01*
X0121856Y0040627D02*
X0138205Y0040627D01*
X0139804Y0039028D02*
X0121856Y0039028D01*
X0120818Y0037430D02*
X0141402Y0037430D01*
X0126328Y0051817D02*
X0087739Y0051817D01*
X0086140Y0053415D02*
X0126328Y0053415D01*
X0124838Y0050218D02*
X0089338Y0050218D01*
X0086312Y0047021D02*
X0068451Y0047021D01*
X0068451Y0047260D02*
X0067735Y0048987D01*
X0066413Y0050309D01*
X0064685Y0051025D01*
X0062816Y0051025D01*
X0061088Y0050309D01*
X0059766Y0048987D01*
X0059051Y0047260D01*
X0059051Y0045390D01*
X0059766Y0043662D01*
X0060330Y0043099D01*
X0059578Y0043099D01*
X0057870Y0042391D01*
X0056562Y0041084D01*
X0055855Y0039375D01*
X0055855Y0037526D01*
X0056562Y0035818D01*
X0057866Y0034514D01*
X0056562Y0033210D01*
X0056383Y0032777D01*
X0038098Y0032777D01*
X0036809Y0031488D01*
X0036136Y0030814D01*
X0033590Y0030814D01*
X0031247Y0028471D01*
X0031247Y0025157D01*
X0033590Y0022814D01*
X0036904Y0022814D01*
X0039247Y0025157D01*
X0039247Y0027703D01*
X0039921Y0028377D01*
X0056383Y0028377D01*
X0056562Y0027944D01*
X0057642Y0026864D01*
X0057214Y0026553D01*
X0056652Y0025991D01*
X0056185Y0025348D01*
X0055824Y0024640D01*
X0055579Y0023885D01*
X0055455Y0023100D01*
X0055455Y0022985D01*
X0063468Y0022985D01*
X0063468Y0022420D01*
X0055455Y0022420D01*
X0055455Y0022305D01*
X0055579Y0021521D01*
X0055824Y0020765D01*
X0056185Y0020057D01*
X0056652Y0019414D01*
X0057214Y0018852D01*
X0057857Y0018385D01*
X0058565Y0018024D01*
X0059320Y0017779D01*
X0059954Y0017679D01*
X0059766Y0017491D01*
X0059051Y0015763D01*
X0059051Y0013894D01*
X0059766Y0012166D01*
X0061088Y0010844D01*
X0062816Y0010129D01*
X0064685Y0010129D01*
X0066413Y0010844D01*
X0067735Y0012166D01*
X0068451Y0013894D01*
X0068451Y0015763D01*
X0067735Y0017491D01*
X0067547Y0017679D01*
X0068181Y0017779D01*
X0068936Y0018024D01*
X0069644Y0018385D01*
X0070287Y0018852D01*
X0070849Y0019414D01*
X0071316Y0020057D01*
X0071677Y0020765D01*
X0071922Y0021521D01*
X0072047Y0022305D01*
X0072047Y0022420D01*
X0064033Y0022420D01*
X0064033Y0022985D01*
X0072047Y0022985D01*
X0072047Y0023100D01*
X0071922Y0023885D01*
X0071677Y0024640D01*
X0071316Y0025348D01*
X0070849Y0025991D01*
X0070287Y0026553D01*
X0069859Y0026864D01*
X0070062Y0027066D01*
X0092085Y0027066D01*
X0092478Y0026673D01*
X0093767Y0025384D01*
X0094880Y0025384D01*
X0096680Y0023584D01*
X0099994Y0023584D01*
X0102337Y0025928D01*
X0102337Y0029241D01*
X0099994Y0031584D01*
X0096680Y0031584D01*
X0095235Y0030139D01*
X0093908Y0031466D01*
X0071647Y0031466D01*
X0071647Y0031501D01*
X0070939Y0033210D01*
X0069635Y0034514D01*
X0070939Y0035818D01*
X0071647Y0037526D01*
X0071647Y0039375D01*
X0070939Y0041084D01*
X0069631Y0042391D01*
X0067923Y0043099D01*
X0067171Y0043099D01*
X0067735Y0043662D01*
X0068451Y0045390D01*
X0068451Y0047260D01*
X0067887Y0048620D02*
X0084713Y0048620D01*
X0083115Y0050218D02*
X0066504Y0050218D01*
X0060997Y0050218D02*
X0051093Y0050218D01*
X0051093Y0050755D02*
X0048516Y0053333D01*
X0046693Y0053333D01*
X0044871Y0053333D01*
X0042293Y0050755D01*
X0042293Y0048933D01*
X0046693Y0048933D01*
X0046693Y0048933D01*
X0046693Y0053333D01*
X0046693Y0048933D01*
X0046693Y0048933D01*
X0042293Y0048933D01*
X0042293Y0047110D01*
X0044871Y0044533D01*
X0046693Y0044533D01*
X0046693Y0048933D01*
X0046693Y0048933D01*
X0046694Y0048933D02*
X0051093Y0048933D01*
X0051093Y0050755D01*
X0050032Y0051817D02*
X0081516Y0051817D01*
X0079918Y0053415D02*
X0016720Y0053415D01*
X0016720Y0051817D02*
X0033920Y0051817D01*
X0035037Y0052933D02*
X0032693Y0050590D01*
X0032693Y0048685D01*
X0027014Y0044431D01*
X0026836Y0044431D01*
X0026302Y0043897D01*
X0025699Y0043445D01*
X0025673Y0043268D01*
X0025547Y0043142D01*
X0025547Y0042388D01*
X0025440Y0041641D01*
X0025547Y0041498D01*
X0025547Y0035271D01*
X0023747Y0033471D01*
X0023747Y0030157D01*
X0026090Y0027814D01*
X0029404Y0027814D01*
X0031747Y0030157D01*
X0031747Y0033471D01*
X0029947Y0035271D01*
X0029947Y0041130D01*
X0035031Y0044938D01*
X0035037Y0044933D01*
X0038350Y0044933D01*
X0040693Y0047276D01*
X0040693Y0050590D01*
X0038350Y0052933D01*
X0035037Y0052933D01*
X0032693Y0050218D02*
X0016720Y0050218D01*
X0016720Y0048620D02*
X0032606Y0048620D01*
X0030472Y0047021D02*
X0016720Y0047021D01*
X0016720Y0045423D02*
X0028338Y0045423D01*
X0026204Y0043824D02*
X0016720Y0043824D01*
X0016720Y0042225D02*
X0025524Y0042225D01*
X0025547Y0040627D02*
X0016720Y0040627D01*
X0016720Y0039028D02*
X0025547Y0039028D01*
X0025547Y0037430D02*
X0016720Y0037430D01*
X0016720Y0035831D02*
X0025547Y0035831D01*
X0024509Y0034233D02*
X0016720Y0034233D01*
X0016720Y0032634D02*
X0023747Y0032634D01*
X0023747Y0031036D02*
X0016720Y0031036D01*
X0016720Y0029437D02*
X0024467Y0029437D01*
X0026065Y0027839D02*
X0016720Y0027839D01*
X0016720Y0026240D02*
X0031247Y0026240D01*
X0031247Y0027839D02*
X0029429Y0027839D01*
X0029569Y0026214D02*
X0027747Y0026214D01*
X0027747Y0021814D01*
X0027747Y0017414D01*
X0029569Y0017414D01*
X0032147Y0019992D01*
X0032147Y0021814D01*
X0027747Y0021814D01*
X0027747Y0021814D01*
X0027747Y0021814D01*
X0027747Y0017414D01*
X0025924Y0017414D01*
X0023347Y0019992D01*
X0023347Y0021814D01*
X0027747Y0021814D01*
X0032147Y0021814D01*
X0032147Y0023637D01*
X0029569Y0026214D01*
X0027747Y0026214D02*
X0025924Y0026214D01*
X0023347Y0023637D01*
X0023347Y0021814D01*
X0027747Y0021814D01*
X0027747Y0021814D01*
X0027747Y0021814D01*
X0027747Y0026214D01*
X0027747Y0024642D02*
X0027747Y0024642D01*
X0027747Y0023043D02*
X0027747Y0023043D01*
X0027747Y0021445D02*
X0027747Y0021445D01*
X0027747Y0019846D02*
X0027747Y0019846D01*
X0027747Y0018248D02*
X0027747Y0018248D01*
X0030403Y0018248D02*
X0058126Y0018248D01*
X0059418Y0016649D02*
X0016720Y0016649D01*
X0016720Y0015051D02*
X0059051Y0015051D01*
X0059233Y0013452D02*
X0016720Y0013452D01*
X0016720Y0011854D02*
X0060079Y0011854D01*
X0062510Y0010255D02*
X0016720Y0010255D01*
X0016720Y0018248D02*
X0025091Y0018248D01*
X0023492Y0019846D02*
X0016720Y0019846D01*
X0016720Y0021445D02*
X0023347Y0021445D01*
X0023347Y0023043D02*
X0016720Y0023043D01*
X0016720Y0024642D02*
X0024352Y0024642D01*
X0031142Y0024642D02*
X0031762Y0024642D01*
X0032147Y0023043D02*
X0033361Y0023043D01*
X0032147Y0021445D02*
X0055603Y0021445D01*
X0055455Y0023043D02*
X0037133Y0023043D01*
X0038731Y0024642D02*
X0055825Y0024642D01*
X0056901Y0026240D02*
X0039247Y0026240D01*
X0039383Y0027839D02*
X0056667Y0027839D01*
X0057586Y0034233D02*
X0030985Y0034233D01*
X0031747Y0032634D02*
X0037956Y0032634D01*
X0036357Y0031036D02*
X0031747Y0031036D01*
X0032213Y0029437D02*
X0031027Y0029437D01*
X0027747Y0031814D02*
X0027747Y0042231D01*
X0036693Y0048933D01*
X0039466Y0051817D02*
X0043355Y0051817D01*
X0042293Y0050218D02*
X0040693Y0050218D01*
X0040693Y0048620D02*
X0042293Y0048620D01*
X0042383Y0047021D02*
X0040438Y0047021D01*
X0038840Y0045423D02*
X0043981Y0045423D01*
X0046693Y0045423D02*
X0046693Y0045423D01*
X0046693Y0044533D02*
X0048516Y0044533D01*
X0051093Y0047110D01*
X0051093Y0048933D01*
X0046694Y0048933D01*
X0046694Y0048933D01*
X0046693Y0048933D02*
X0046693Y0044533D01*
X0046693Y0047021D02*
X0046693Y0047021D01*
X0046693Y0048620D02*
X0046693Y0048620D01*
X0046693Y0050218D02*
X0046693Y0050218D01*
X0046693Y0051817D02*
X0046693Y0051817D01*
X0051093Y0048620D02*
X0059614Y0048620D01*
X0059051Y0047021D02*
X0051004Y0047021D01*
X0049406Y0045423D02*
X0059051Y0045423D01*
X0059699Y0043824D02*
X0033543Y0043824D01*
X0031409Y0042225D02*
X0057704Y0042225D01*
X0056373Y0040627D02*
X0029947Y0040627D01*
X0029947Y0039028D02*
X0055855Y0039028D01*
X0055894Y0037430D02*
X0029947Y0037430D01*
X0029947Y0035831D02*
X0056556Y0035831D01*
X0063751Y0030577D02*
X0065061Y0029266D01*
X0092996Y0029266D01*
X0094678Y0027584D01*
X0098337Y0027584D01*
X0100542Y0031036D02*
X0111243Y0031036D01*
X0111243Y0032634D02*
X0071177Y0032634D01*
X0069916Y0034233D02*
X0110636Y0034233D01*
X0109037Y0035831D02*
X0070945Y0035831D01*
X0071607Y0037430D02*
X0104893Y0037430D01*
X0103856Y0039028D02*
X0071647Y0039028D01*
X0071128Y0040627D02*
X0103856Y0040627D01*
X0104300Y0042225D02*
X0069797Y0042225D01*
X0067802Y0043824D02*
X0105898Y0043824D01*
X0107856Y0040125D02*
X0113443Y0034537D01*
X0113443Y0015692D01*
X0116543Y0018248D02*
X0149776Y0018248D01*
X0149043Y0016649D02*
X0117443Y0016649D01*
X0117443Y0015051D02*
X0149043Y0015051D01*
X0149460Y0013452D02*
X0116860Y0013452D01*
X0115262Y0011854D02*
X0151058Y0011854D01*
X0151375Y0019846D02*
X0115643Y0019846D01*
X0111243Y0019846D02*
X0102298Y0019846D01*
X0102737Y0019407D02*
X0100159Y0021984D01*
X0098337Y0021984D01*
X0098337Y0017585D01*
X0098337Y0017585D01*
X0098337Y0021984D01*
X0096514Y0021984D01*
X0093937Y0019407D01*
X0093937Y0017585D01*
X0098337Y0017585D01*
X0102737Y0017585D01*
X0102737Y0019407D01*
X0102737Y0018248D02*
X0110342Y0018248D01*
X0109443Y0016649D02*
X0102737Y0016649D01*
X0102737Y0015762D02*
X0102737Y0017584D01*
X0098337Y0017584D01*
X0098337Y0013184D01*
X0100159Y0013184D01*
X0102737Y0015762D01*
X0102026Y0015051D02*
X0109443Y0015051D01*
X0110025Y0013452D02*
X0100427Y0013452D01*
X0098337Y0013452D02*
X0098337Y0013452D01*
X0098337Y0013184D02*
X0098337Y0017584D01*
X0098337Y0017584D01*
X0098337Y0017585D01*
X0098337Y0017584D01*
X0093937Y0017584D01*
X0093937Y0015762D01*
X0096514Y0013184D01*
X0098337Y0013184D01*
X0098337Y0015051D02*
X0098337Y0015051D01*
X0098337Y0016649D02*
X0098337Y0016649D01*
X0098337Y0018248D02*
X0098337Y0018248D01*
X0098337Y0019846D02*
X0098337Y0019846D01*
X0098337Y0021445D02*
X0098337Y0021445D01*
X0100699Y0021445D02*
X0111243Y0021445D01*
X0111243Y0023043D02*
X0072047Y0023043D01*
X0071898Y0021445D02*
X0095975Y0021445D01*
X0094376Y0019846D02*
X0071163Y0019846D01*
X0069375Y0018248D02*
X0093937Y0018248D01*
X0093937Y0016649D02*
X0068084Y0016649D01*
X0068451Y0015051D02*
X0094648Y0015051D01*
X0096247Y0013452D02*
X0068268Y0013452D01*
X0067423Y0011854D02*
X0111624Y0011854D01*
X0111243Y0024642D02*
X0101051Y0024642D01*
X0102337Y0026240D02*
X0111243Y0026240D01*
X0111243Y0027839D02*
X0102337Y0027839D01*
X0102141Y0029437D02*
X0111243Y0029437D01*
X0113661Y0037430D02*
X0114893Y0037430D01*
X0113856Y0039028D02*
X0112063Y0039028D01*
X0111856Y0040627D02*
X0113856Y0040627D01*
X0112643Y0042225D02*
X0111411Y0042225D01*
X0111045Y0043824D02*
X0109813Y0043824D01*
X0114070Y0047021D02*
X0121641Y0047021D01*
X0123239Y0048620D02*
X0112472Y0048620D01*
X0115669Y0045423D02*
X0120042Y0045423D01*
X0115458Y0056612D02*
X0111446Y0056612D01*
X0112452Y0058211D02*
X0114452Y0058211D01*
X0114452Y0059809D02*
X0112452Y0059809D01*
X0111977Y0061408D02*
X0113208Y0061408D01*
X0111610Y0063006D02*
X0110378Y0063006D01*
X0108452Y0059275D02*
X0108002Y0058826D01*
X0106814Y0067802D02*
X0045640Y0067802D01*
X0041893Y0067802D02*
X0036884Y0067802D01*
X0036884Y0066203D02*
X0040295Y0066203D01*
X0039366Y0064605D02*
X0036884Y0064605D01*
X0036884Y0063006D02*
X0039366Y0063006D01*
X0039589Y0061408D02*
X0036884Y0061408D01*
X0036884Y0059809D02*
X0041187Y0059809D01*
X0032784Y0056612D02*
X0016720Y0056612D01*
X0016720Y0055014D02*
X0078319Y0055014D01*
X0087911Y0045423D02*
X0068451Y0045423D01*
X0063751Y0030577D02*
X0039009Y0030577D01*
X0035247Y0026814D01*
X0032002Y0019846D02*
X0056338Y0019846D01*
X0064991Y0010255D02*
X0168627Y0010255D01*
X0106625Y0071102D02*
X0045346Y0071102D01*
X0024389Y0092058D01*
X0019920Y0092058D01*
X0023656Y0088582D02*
X0024754Y0088582D01*
X0026353Y0086984D02*
X0021355Y0086984D01*
X0025403Y0072597D02*
X0026172Y0072597D01*
X0025420Y0071858D02*
X0020120Y0071858D01*
X0020120Y0066558D01*
X0020353Y0066558D01*
X0021208Y0066694D01*
X0022031Y0066961D01*
X0022802Y0067354D01*
X0023503Y0067863D01*
X0024115Y0068475D01*
X0024624Y0069176D01*
X0025017Y0069947D01*
X0025284Y0070770D01*
X0025420Y0071625D01*
X0025420Y0071858D01*
X0025321Y0070999D02*
X0027771Y0070999D01*
X0029369Y0069400D02*
X0024738Y0069400D01*
X0023418Y0067802D02*
X0030968Y0067802D01*
X0032484Y0066203D02*
X0016720Y0066203D01*
X0016720Y0064605D02*
X0032484Y0064605D01*
X0032484Y0063006D02*
X0016720Y0063006D01*
X0016720Y0061408D02*
X0032484Y0061408D01*
X0032484Y0059809D02*
X0016720Y0059809D01*
X0016720Y0058211D02*
X0032484Y0058211D01*
X0020120Y0067802D02*
X0019720Y0067802D01*
X0019720Y0069400D02*
X0020120Y0069400D01*
X0020120Y0070999D02*
X0019720Y0070999D01*
X0070600Y0026240D02*
X0092911Y0026240D01*
X0095623Y0024642D02*
X0071676Y0024642D01*
X0094338Y0031036D02*
X0096131Y0031036D01*
X0111914Y0090181D02*
X0112314Y0090181D01*
X0112314Y0091779D02*
X0111914Y0091779D01*
X0111914Y0093378D02*
X0112314Y0093378D01*
X0104229Y0107764D02*
X0100737Y0107764D01*
X0101556Y0109363D02*
X0103258Y0109363D01*
X0103127Y0110961D02*
X0101657Y0110961D01*
X0101116Y0112560D02*
X0103697Y0112560D01*
X0106905Y0110432D02*
X0107553Y0109784D01*
X0097511Y0109363D02*
X0097511Y0109363D01*
X0097511Y0110961D02*
X0097511Y0110961D01*
X0097511Y0107764D02*
X0097511Y0107764D01*
X0038972Y0142058D02*
X0019920Y0142058D01*
X0016778Y0146129D02*
X0016720Y0146129D01*
X0079483Y0166909D02*
X0079883Y0166909D01*
X0079883Y0168508D02*
X0079483Y0168508D01*
X0079483Y0170106D02*
X0079883Y0170106D01*
X0079883Y0171705D02*
X0079483Y0171705D01*
X0079483Y0173303D02*
X0079883Y0173303D01*
X0079883Y0174902D02*
X0079483Y0174902D01*
D23*
X0204011Y0033092D03*
M02*
