G75*
%MOIN*%
%OFA0B0*%
%FSLAX25Y25*%
%IPPOS*%
%LPD*%
%AMOC8*
5,1,8,0,0,1.08239X$1,22.5*
%
%ADD10C,0.00000*%
%ADD11C,0.00500*%
%ADD12C,0.00600*%
%ADD13C,0.00400*%
%ADD14C,0.01000*%
%ADD15R,0.02000X0.08000*%
%ADD16C,0.00800*%
%ADD17C,0.01600*%
%ADD18R,0.03400X0.02400*%
D10*
X0001800Y0007058D02*
X0001800Y0207846D01*
X0202587Y0207846D01*
X0202587Y0007058D01*
X0001800Y0007058D01*
D11*
X0008127Y0018568D02*
X0008127Y0035060D01*
X0013627Y0035687D02*
X0013627Y0037266D01*
X0013627Y0027941D02*
X0013627Y0025687D01*
X0008127Y0035060D02*
X0008326Y0035213D01*
X0008528Y0035361D01*
X0008733Y0035504D01*
X0008942Y0035642D01*
X0009154Y0035775D01*
X0009369Y0035903D01*
X0009587Y0036025D01*
X0009808Y0036143D01*
X0010032Y0036255D01*
X0010258Y0036362D01*
X0010487Y0036463D01*
X0010718Y0036559D01*
X0010952Y0036650D01*
X0011187Y0036735D01*
X0011425Y0036814D01*
X0011664Y0036887D01*
X0011905Y0036955D01*
X0012147Y0037017D01*
X0012391Y0037073D01*
X0012637Y0037124D01*
X0012883Y0037168D01*
X0013130Y0037207D01*
X0013378Y0037239D01*
X0013627Y0037266D01*
X0024660Y0023718D02*
X0024582Y0023476D01*
X0024498Y0023236D01*
X0024409Y0022998D01*
X0024313Y0022762D01*
X0024212Y0022528D01*
X0024106Y0022297D01*
X0023993Y0022069D01*
X0023876Y0021843D01*
X0023753Y0021620D01*
X0023624Y0021401D01*
X0023490Y0021184D01*
X0023351Y0020971D01*
X0023207Y0020761D01*
X0023058Y0020555D01*
X0022904Y0020353D01*
X0022745Y0020154D01*
X0022581Y0019959D01*
X0022412Y0019768D01*
X0022239Y0019582D01*
X0022062Y0019399D01*
X0021880Y0019221D01*
X0021694Y0019048D01*
X0021503Y0018879D01*
X0021309Y0018715D01*
X0021111Y0018555D01*
X0020909Y0018400D01*
X0020703Y0018251D01*
X0020494Y0018106D01*
X0020281Y0017966D01*
X0020065Y0017832D01*
X0019845Y0017703D01*
X0019623Y0017579D01*
X0019398Y0017460D01*
X0019170Y0017348D01*
X0018939Y0017240D01*
X0018706Y0017139D01*
X0018470Y0017043D01*
X0018232Y0016952D01*
X0017992Y0016868D01*
X0017750Y0016789D01*
X0017506Y0016716D01*
X0017260Y0016650D01*
X0017013Y0016589D01*
X0016765Y0016534D01*
X0016515Y0016485D01*
X0016264Y0016442D01*
X0016012Y0016406D01*
X0015760Y0016375D01*
X0015506Y0016351D01*
X0015253Y0016333D01*
X0014998Y0016321D01*
X0014744Y0016315D01*
X0014489Y0016315D01*
X0014235Y0016321D01*
X0013981Y0016334D01*
X0013727Y0016353D01*
X0013474Y0016378D01*
X0013221Y0016409D01*
X0012969Y0016446D01*
X0012719Y0016489D01*
X0012469Y0016538D01*
X0012220Y0016593D01*
X0011973Y0016655D01*
X0011728Y0016722D01*
X0011484Y0016795D01*
X0011242Y0016874D01*
X0011003Y0016959D01*
X0010765Y0017050D01*
X0010529Y0017147D01*
X0010296Y0017249D01*
X0010066Y0017357D01*
X0009838Y0017470D01*
X0009613Y0017589D01*
X0009391Y0017713D01*
X0009172Y0017842D01*
X0008956Y0017977D01*
X0008743Y0018117D01*
X0008534Y0018263D01*
X0008329Y0018413D01*
X0008127Y0018568D01*
X0013627Y0017941D02*
X0013627Y0016362D01*
X0024660Y0029910D02*
X0024582Y0030154D01*
X0024497Y0030396D01*
X0024407Y0030635D01*
X0024311Y0030873D01*
X0024209Y0031108D01*
X0024101Y0031341D01*
X0023988Y0031571D01*
X0023869Y0031798D01*
X0023745Y0032022D01*
X0023615Y0032243D01*
X0023480Y0032460D01*
X0023339Y0032675D01*
X0023193Y0032886D01*
X0023043Y0033093D01*
X0022887Y0033296D01*
X0022726Y0033496D01*
X0022561Y0033692D01*
X0022391Y0033883D01*
X0022216Y0034071D01*
X0022036Y0034254D01*
X0021853Y0034432D01*
X0021664Y0034607D01*
X0021472Y0034776D01*
X0021276Y0034941D01*
X0021075Y0035101D01*
X0020871Y0035255D01*
X0020663Y0035405D01*
X0020452Y0035550D01*
X0020237Y0035690D01*
X0020019Y0035824D01*
X0019797Y0035953D01*
X0019573Y0036076D01*
X0019345Y0036194D01*
X0019115Y0036307D01*
X0018882Y0036413D01*
X0018646Y0036514D01*
X0018408Y0036610D01*
X0018168Y0036699D01*
X0017926Y0036782D01*
X0017681Y0036860D01*
X0017435Y0036931D01*
X0017187Y0036997D01*
X0016938Y0037056D01*
X0016688Y0037110D01*
X0016436Y0037157D01*
X0016183Y0037198D01*
X0015929Y0037233D01*
X0015674Y0037262D01*
X0015419Y0037284D01*
X0015163Y0037300D01*
X0014907Y0037310D01*
X0014651Y0037314D01*
X0014394Y0037311D01*
X0014138Y0037303D01*
X0013882Y0037288D01*
X0013627Y0037266D01*
X0044093Y0048283D02*
X0044843Y0047532D01*
X0046345Y0047532D01*
X0047095Y0048283D01*
X0047095Y0051285D01*
X0044093Y0048283D01*
X0044093Y0051285D01*
X0044843Y0052036D01*
X0046345Y0052036D01*
X0047095Y0051285D01*
X0048697Y0048283D02*
X0049447Y0048283D01*
X0049447Y0047532D01*
X0048697Y0047532D01*
X0048697Y0048283D01*
X0050999Y0047532D02*
X0054001Y0047532D01*
X0052500Y0047532D02*
X0052500Y0052036D01*
X0050999Y0050535D01*
X0055602Y0050535D02*
X0055602Y0048283D01*
X0056353Y0047532D01*
X0058605Y0047532D01*
X0058605Y0050535D01*
X0060206Y0049784D02*
X0061708Y0049784D01*
X0060957Y0051285D02*
X0060957Y0047532D01*
X0060957Y0051285D02*
X0061708Y0052036D01*
X0076171Y0066718D02*
X0076922Y0065967D01*
X0078423Y0065967D01*
X0079174Y0066718D01*
X0079174Y0068219D01*
X0077672Y0068219D01*
X0076171Y0069720D02*
X0076171Y0066718D01*
X0076171Y0069720D02*
X0076922Y0070471D01*
X0078423Y0070471D01*
X0079174Y0069720D01*
X0080775Y0068970D02*
X0080775Y0065967D01*
X0080775Y0067468D02*
X0082276Y0068970D01*
X0083027Y0068970D01*
X0084612Y0068219D02*
X0085362Y0068970D01*
X0086864Y0068970D01*
X0087614Y0068219D01*
X0087614Y0067468D01*
X0084612Y0067468D01*
X0084612Y0066718D02*
X0084612Y0068219D01*
X0084612Y0066718D02*
X0085362Y0065967D01*
X0086864Y0065967D01*
X0089216Y0066718D02*
X0089216Y0068219D01*
X0089966Y0068970D01*
X0091467Y0068970D01*
X0092218Y0068219D01*
X0092218Y0067468D01*
X0089216Y0067468D01*
X0089216Y0066718D02*
X0089966Y0065967D01*
X0091467Y0065967D01*
X0093819Y0065967D02*
X0093819Y0068970D01*
X0096071Y0068970D01*
X0096822Y0068219D01*
X0096822Y0065967D01*
X0090208Y0052129D02*
X0090208Y0047625D01*
X0087957Y0047625D01*
X0087206Y0048376D01*
X0087206Y0049877D01*
X0087957Y0050628D01*
X0090208Y0050628D01*
X0085605Y0049877D02*
X0085605Y0049127D01*
X0082602Y0049127D01*
X0082602Y0049877D02*
X0083353Y0050628D01*
X0084854Y0050628D01*
X0085605Y0049877D01*
X0084854Y0047625D02*
X0083353Y0047625D01*
X0082602Y0048376D01*
X0082602Y0049877D01*
X0081001Y0049877D02*
X0081001Y0051378D01*
X0080250Y0052129D01*
X0077998Y0052129D01*
X0077998Y0047625D01*
X0077998Y0049127D02*
X0080250Y0049127D01*
X0081001Y0049877D01*
X0079499Y0049127D02*
X0081001Y0047625D01*
X0076715Y0030266D02*
X0076715Y0028765D01*
X0075214Y0029516D02*
X0074463Y0030266D01*
X0075214Y0029516D02*
X0078967Y0029516D01*
X0078967Y0027164D02*
X0075965Y0027164D01*
X0078967Y0027164D02*
X0078967Y0024912D01*
X0078216Y0024161D01*
X0075965Y0024161D01*
X0078967Y0022560D02*
X0078967Y0019557D01*
X0078967Y0021059D02*
X0074463Y0021059D01*
X0075965Y0019557D01*
X0078216Y0018006D02*
X0078967Y0018006D01*
X0078967Y0017255D01*
X0078216Y0017255D01*
X0078216Y0018006D01*
X0078216Y0015654D02*
X0078967Y0014903D01*
X0078967Y0013402D01*
X0078216Y0012651D01*
X0075214Y0015654D01*
X0078216Y0015654D01*
X0078216Y0012651D02*
X0075214Y0012651D01*
X0074463Y0013402D01*
X0074463Y0014903D01*
X0075214Y0015654D01*
X0106831Y0023618D02*
X0107582Y0022867D01*
X0109083Y0022867D01*
X0109834Y0023618D01*
X0109834Y0024369D01*
X0109083Y0025119D01*
X0108332Y0025119D01*
X0109083Y0025119D02*
X0109834Y0025870D01*
X0109834Y0026621D01*
X0109083Y0027371D01*
X0107582Y0027371D01*
X0106831Y0026621D01*
X0111435Y0026621D02*
X0112186Y0027371D01*
X0113687Y0027371D01*
X0114438Y0026621D01*
X0114438Y0025870D01*
X0113687Y0025119D01*
X0114438Y0024369D01*
X0114438Y0023618D01*
X0113687Y0022867D01*
X0112186Y0022867D01*
X0111435Y0023618D01*
X0112936Y0025119D02*
X0113687Y0025119D01*
X0116039Y0023618D02*
X0119042Y0026621D01*
X0119042Y0023618D01*
X0118291Y0022867D01*
X0116790Y0022867D01*
X0116039Y0023618D01*
X0116039Y0026621D01*
X0116790Y0027371D01*
X0118291Y0027371D01*
X0119042Y0026621D01*
X0120643Y0025119D02*
X0120643Y0023618D01*
X0121394Y0022867D01*
X0122895Y0022867D01*
X0123645Y0023618D01*
X0123645Y0025119D01*
X0122895Y0025870D01*
X0121394Y0025870D01*
X0120643Y0025119D01*
X0125247Y0025119D02*
X0125998Y0025870D01*
X0127499Y0025870D01*
X0128249Y0025119D01*
X0128249Y0022867D01*
X0129851Y0022867D02*
X0129851Y0025870D01*
X0130601Y0025870D01*
X0131352Y0025119D01*
X0132103Y0025870D01*
X0132853Y0025119D01*
X0132853Y0022867D01*
X0131352Y0022867D02*
X0131352Y0025119D01*
X0125247Y0027371D02*
X0125247Y0022867D01*
X0159351Y0001250D02*
X0190847Y0001250D01*
X0189523Y0041063D02*
X0188022Y0041063D01*
X0187272Y0041813D01*
X0190274Y0044816D01*
X0190274Y0041813D01*
X0189523Y0041063D01*
X0187272Y0041813D02*
X0187272Y0044816D01*
X0188022Y0045567D01*
X0189523Y0045567D01*
X0190274Y0044816D01*
X0191876Y0044065D02*
X0191876Y0041813D01*
X0192626Y0041063D01*
X0194878Y0041063D01*
X0194878Y0044065D01*
X0196479Y0043315D02*
X0197981Y0043315D01*
X0197230Y0044816D02*
X0197230Y0041063D01*
X0197230Y0044816D02*
X0197981Y0045567D01*
X0185670Y0041063D02*
X0182668Y0041063D01*
X0184169Y0041063D02*
X0184169Y0045567D01*
X0182668Y0044065D01*
X0183063Y0068824D02*
X0183063Y0074929D01*
X0185070Y0074929D02*
X0188122Y0074929D01*
X0189140Y0073912D01*
X0189140Y0069842D01*
X0188122Y0068824D01*
X0185070Y0068824D01*
X0185070Y0074929D01*
X0181028Y0078724D02*
X0183063Y0080759D01*
X0183063Y0084829D01*
X0178992Y0084829D02*
X0178992Y0080759D01*
X0181028Y0078724D01*
X0176985Y0079742D02*
X0176985Y0081777D01*
X0175968Y0082794D01*
X0174950Y0082794D01*
X0172915Y0081777D01*
X0172915Y0084829D01*
X0176985Y0084829D01*
X0175968Y0088624D02*
X0172915Y0088624D01*
X0172915Y0094729D01*
X0175968Y0094729D01*
X0176985Y0093712D01*
X0176985Y0092694D01*
X0175968Y0091677D01*
X0172915Y0091677D01*
X0175968Y0091677D02*
X0176985Y0090659D01*
X0176985Y0089642D01*
X0175968Y0088624D01*
X0178992Y0088624D02*
X0178992Y0089642D01*
X0183063Y0093712D01*
X0183063Y0094729D01*
X0178992Y0094729D01*
X0180010Y0098524D02*
X0178992Y0099542D01*
X0178992Y0100559D01*
X0180010Y0101577D01*
X0182045Y0101577D01*
X0183063Y0100559D01*
X0183063Y0099542D01*
X0182045Y0098524D01*
X0180010Y0098524D01*
X0180010Y0101577D02*
X0178992Y0102594D01*
X0178992Y0103612D01*
X0180010Y0104629D01*
X0182045Y0104629D01*
X0183063Y0103612D01*
X0183063Y0102594D01*
X0182045Y0101577D01*
X0176985Y0102594D02*
X0175968Y0101577D01*
X0172915Y0101577D01*
X0172915Y0104629D02*
X0172915Y0098524D01*
X0175968Y0098524D01*
X0176985Y0099542D01*
X0176985Y0100559D01*
X0175968Y0101577D01*
X0176985Y0102594D02*
X0176985Y0103612D01*
X0175968Y0104629D01*
X0172915Y0104629D01*
X0172915Y0108424D02*
X0175968Y0108424D01*
X0176985Y0109442D01*
X0176985Y0110459D01*
X0175968Y0111477D01*
X0172915Y0111477D01*
X0172915Y0114529D02*
X0175968Y0114529D01*
X0176985Y0113512D01*
X0176985Y0112494D01*
X0175968Y0111477D01*
X0178992Y0112494D02*
X0178992Y0113512D01*
X0180010Y0114529D01*
X0182045Y0114529D01*
X0183063Y0113512D01*
X0183063Y0109442D01*
X0182045Y0108424D01*
X0180010Y0108424D01*
X0178992Y0109442D01*
X0180010Y0111477D02*
X0178992Y0112494D01*
X0180010Y0111477D02*
X0183063Y0111477D01*
X0183063Y0118324D02*
X0178992Y0118324D01*
X0181028Y0118324D02*
X0181028Y0124429D01*
X0178992Y0122394D01*
X0176985Y0122394D02*
X0176985Y0123412D01*
X0175968Y0124429D01*
X0172915Y0124429D01*
X0172915Y0118324D01*
X0175968Y0118324D01*
X0176985Y0119342D01*
X0176985Y0120359D01*
X0175968Y0121377D01*
X0172915Y0121377D01*
X0175968Y0121377D02*
X0176985Y0122394D01*
X0175968Y0128224D02*
X0172915Y0128224D01*
X0172915Y0134329D01*
X0175968Y0134329D01*
X0176985Y0133312D01*
X0176985Y0132294D01*
X0175968Y0131277D01*
X0172915Y0131277D01*
X0175968Y0131277D02*
X0176985Y0130259D01*
X0176985Y0129242D01*
X0175968Y0128224D01*
X0178992Y0128224D02*
X0183063Y0128224D01*
X0181028Y0128224D02*
X0181028Y0134329D01*
X0178992Y0132294D01*
X0178992Y0138124D02*
X0183063Y0138124D01*
X0181028Y0138124D02*
X0181028Y0144229D01*
X0178992Y0142194D01*
X0176985Y0142194D02*
X0175968Y0141177D01*
X0172915Y0141177D01*
X0172915Y0144229D02*
X0172915Y0138124D01*
X0175968Y0138124D01*
X0176985Y0139142D01*
X0176985Y0140159D01*
X0175968Y0141177D01*
X0176985Y0142194D02*
X0176985Y0143212D01*
X0175968Y0144229D01*
X0172915Y0144229D01*
X0185070Y0144229D02*
X0185070Y0141177D01*
X0187105Y0142194D01*
X0188122Y0142194D01*
X0189140Y0141177D01*
X0189140Y0139142D01*
X0188122Y0138124D01*
X0186087Y0138124D01*
X0185070Y0139142D01*
X0188122Y0134329D02*
X0185070Y0131277D01*
X0189140Y0131277D01*
X0188122Y0134329D02*
X0188122Y0128224D01*
X0188122Y0124429D02*
X0186087Y0124429D01*
X0185070Y0123412D01*
X0187105Y0121377D02*
X0188122Y0121377D01*
X0189140Y0120359D01*
X0189140Y0119342D01*
X0188122Y0118324D01*
X0186087Y0118324D01*
X0185070Y0119342D01*
X0188122Y0121377D02*
X0189140Y0122394D01*
X0189140Y0123412D01*
X0188122Y0124429D01*
X0172915Y0114529D02*
X0172915Y0108424D01*
X0172915Y0079742D02*
X0173933Y0078724D01*
X0175968Y0078724D01*
X0176985Y0079742D01*
X0175968Y0074929D02*
X0173933Y0074929D01*
X0172915Y0073912D01*
X0172915Y0069842D01*
X0173933Y0068824D01*
X0175968Y0068824D01*
X0176985Y0069842D01*
X0176985Y0071877D01*
X0174950Y0071877D01*
X0176985Y0073912D02*
X0175968Y0074929D01*
X0178992Y0074929D02*
X0183063Y0068824D01*
X0178992Y0068824D02*
X0178992Y0074929D01*
X0185070Y0144229D02*
X0189140Y0144229D01*
X0165519Y0194844D02*
X0165519Y0198597D01*
X0166269Y0199348D01*
X0166269Y0197096D02*
X0164768Y0197096D01*
X0163167Y0197847D02*
X0163167Y0194844D01*
X0160915Y0194844D01*
X0160164Y0195595D01*
X0160164Y0197847D01*
X0158563Y0194844D02*
X0155560Y0194844D01*
X0157061Y0194844D02*
X0157061Y0199348D01*
X0155560Y0197847D01*
X0154009Y0195595D02*
X0154009Y0194844D01*
X0153258Y0194844D01*
X0153258Y0195595D01*
X0154009Y0195595D01*
X0151657Y0195595D02*
X0150906Y0194844D01*
X0149405Y0194844D01*
X0148654Y0195595D01*
X0151657Y0198597D01*
X0151657Y0195595D01*
X0151657Y0198597D02*
X0150906Y0199348D01*
X0149405Y0199348D01*
X0148654Y0198597D01*
X0148654Y0195595D01*
X0097514Y0197859D02*
X0096012Y0197859D01*
X0096763Y0199360D02*
X0096763Y0195607D01*
X0094411Y0195607D02*
X0094411Y0198609D01*
X0096763Y0199360D02*
X0097514Y0200111D01*
X0094411Y0195607D02*
X0092159Y0195607D01*
X0091408Y0196357D01*
X0091408Y0198609D01*
X0088306Y0200111D02*
X0088306Y0195607D01*
X0089807Y0195607D02*
X0086804Y0195607D01*
X0085253Y0195607D02*
X0085253Y0196357D01*
X0084503Y0196357D01*
X0084503Y0195607D01*
X0085253Y0195607D01*
X0082901Y0196357D02*
X0082151Y0195607D01*
X0080649Y0195607D01*
X0079899Y0196357D01*
X0082901Y0199360D01*
X0082901Y0196357D01*
X0079899Y0196357D02*
X0079899Y0199360D01*
X0080649Y0200111D01*
X0082151Y0200111D01*
X0082901Y0199360D01*
X0086804Y0198609D02*
X0088306Y0200111D01*
X0065699Y0141338D02*
X0065699Y0136834D01*
X0064098Y0137585D02*
X0064098Y0139086D01*
X0063347Y0139837D01*
X0061846Y0139837D01*
X0061095Y0139086D01*
X0061095Y0137585D01*
X0061846Y0136834D01*
X0063347Y0136834D01*
X0064098Y0137585D01*
X0065699Y0139086D02*
X0066450Y0139837D01*
X0067951Y0139837D01*
X0068702Y0139086D01*
X0068702Y0136834D01*
X0070303Y0136834D02*
X0070303Y0139837D01*
X0071054Y0139837D01*
X0071805Y0139086D01*
X0072555Y0139837D01*
X0073306Y0139086D01*
X0073306Y0136834D01*
X0071805Y0136834D02*
X0071805Y0139086D01*
X0059511Y0139837D02*
X0057259Y0138336D01*
X0059511Y0136834D01*
X0057259Y0136834D02*
X0057259Y0141338D01*
X0055657Y0140588D02*
X0052655Y0137585D01*
X0053406Y0136834D01*
X0054907Y0136834D01*
X0055657Y0137585D01*
X0055657Y0140588D01*
X0054907Y0141338D01*
X0053406Y0141338D01*
X0052655Y0140588D01*
X0052655Y0137585D01*
X0051054Y0136834D02*
X0048051Y0136834D01*
X0049552Y0136834D02*
X0049552Y0141338D01*
X0048051Y0139837D01*
X0044127Y0119120D02*
X0042625Y0119120D01*
X0041875Y0118369D01*
X0041875Y0115367D01*
X0044877Y0118369D01*
X0044877Y0115367D01*
X0044127Y0114616D01*
X0042625Y0114616D01*
X0041875Y0115367D01*
X0040273Y0114616D02*
X0037271Y0114616D01*
X0038772Y0114616D02*
X0038772Y0119120D01*
X0037271Y0117619D01*
X0044127Y0119120D02*
X0044877Y0118369D01*
X0046479Y0117619D02*
X0046479Y0115367D01*
X0047229Y0114616D01*
X0049481Y0114616D01*
X0049481Y0117619D01*
X0051083Y0116868D02*
X0052584Y0116868D01*
X0051833Y0118369D02*
X0051833Y0114616D01*
X0051833Y0118369D02*
X0052584Y0119120D01*
X0055185Y0091867D02*
X0053684Y0090366D01*
X0055185Y0091867D02*
X0055185Y0087363D01*
X0053684Y0087363D02*
X0056687Y0087363D01*
X0058288Y0088114D02*
X0061290Y0091116D01*
X0061290Y0088114D01*
X0060540Y0087363D01*
X0059039Y0087363D01*
X0058288Y0088114D01*
X0058288Y0091116D01*
X0059039Y0091867D01*
X0060540Y0091867D01*
X0061290Y0091116D01*
X0062892Y0091867D02*
X0062892Y0087363D01*
X0062892Y0088864D02*
X0065144Y0090366D01*
X0066728Y0089615D02*
X0066728Y0088114D01*
X0067479Y0087363D01*
X0068980Y0087363D01*
X0069731Y0088114D01*
X0069731Y0089615D01*
X0068980Y0090366D01*
X0067479Y0090366D01*
X0066728Y0089615D01*
X0065144Y0087363D02*
X0062892Y0088864D01*
X0071332Y0089615D02*
X0072083Y0090366D01*
X0073584Y0090366D01*
X0074335Y0089615D01*
X0074335Y0087363D01*
X0075936Y0087363D02*
X0075936Y0090366D01*
X0076687Y0090366D01*
X0077438Y0089615D01*
X0078188Y0090366D01*
X0078939Y0089615D01*
X0078939Y0087363D01*
X0077438Y0087363D02*
X0077438Y0089615D01*
X0071332Y0091867D02*
X0071332Y0087363D01*
X0065249Y0073507D02*
X0065999Y0072756D01*
X0065999Y0070505D01*
X0064498Y0070505D02*
X0064498Y0072756D01*
X0065249Y0073507D01*
X0064498Y0072756D02*
X0063747Y0073507D01*
X0062997Y0073507D01*
X0062997Y0070505D01*
X0061395Y0070505D02*
X0061395Y0072756D01*
X0060645Y0073507D01*
X0059143Y0073507D01*
X0058393Y0072756D01*
X0056791Y0072756D02*
X0056041Y0073507D01*
X0054539Y0073507D01*
X0053789Y0072756D01*
X0053789Y0071255D01*
X0054539Y0070505D01*
X0056041Y0070505D01*
X0056791Y0071255D01*
X0056791Y0072756D01*
X0058393Y0070505D02*
X0058393Y0075008D01*
X0052187Y0074258D02*
X0052187Y0071255D01*
X0051437Y0070505D01*
X0049935Y0070505D01*
X0049185Y0071255D01*
X0052187Y0074258D01*
X0051437Y0075008D01*
X0049935Y0075008D01*
X0049185Y0074258D01*
X0049185Y0071255D01*
X0047583Y0071255D02*
X0046833Y0070505D01*
X0045332Y0070505D01*
X0044581Y0071255D01*
X0042980Y0071255D02*
X0042229Y0070505D01*
X0040728Y0070505D01*
X0039977Y0071255D01*
X0041478Y0072756D02*
X0042229Y0072756D01*
X0042980Y0072006D01*
X0042980Y0071255D01*
X0042229Y0072756D02*
X0042980Y0073507D01*
X0042980Y0074258D01*
X0042229Y0075008D01*
X0040728Y0075008D01*
X0039977Y0074258D01*
X0044581Y0074258D02*
X0045332Y0075008D01*
X0046833Y0075008D01*
X0047583Y0074258D01*
X0047583Y0073507D01*
X0046833Y0072756D01*
X0047583Y0072006D01*
X0047583Y0071255D01*
X0046833Y0072756D02*
X0046082Y0072756D01*
X0033406Y0081099D02*
X0033406Y0085169D01*
X0033406Y0081099D02*
X0031371Y0079064D01*
X0029336Y0081099D01*
X0029336Y0085169D01*
X0027329Y0084152D02*
X0027329Y0083134D01*
X0026311Y0082117D01*
X0027329Y0081099D01*
X0027329Y0080082D01*
X0026311Y0079064D01*
X0024276Y0079064D01*
X0023259Y0080082D01*
X0021238Y0080082D02*
X0021238Y0079064D01*
X0020220Y0079064D01*
X0020220Y0080082D01*
X0021238Y0080082D01*
X0018213Y0080082D02*
X0017196Y0079064D01*
X0015161Y0079064D01*
X0014143Y0080082D01*
X0016178Y0082117D02*
X0017196Y0082117D01*
X0018213Y0081099D01*
X0018213Y0080082D01*
X0017196Y0082117D02*
X0018213Y0083134D01*
X0018213Y0084152D01*
X0017196Y0085169D01*
X0015161Y0085169D01*
X0014143Y0084152D01*
X0014143Y0088964D02*
X0014143Y0093034D01*
X0016178Y0095069D01*
X0018213Y0093034D01*
X0018213Y0088964D01*
X0018213Y0092017D02*
X0014143Y0092017D01*
X0020220Y0092017D02*
X0024290Y0092017D01*
X0023273Y0095069D02*
X0020220Y0092017D01*
X0023273Y0095069D02*
X0023273Y0088964D01*
X0024276Y0085169D02*
X0026311Y0085169D01*
X0027329Y0084152D01*
X0026311Y0082117D02*
X0025294Y0082117D01*
X0023259Y0084152D02*
X0024276Y0085169D01*
X0024290Y0075269D02*
X0024290Y0069164D01*
X0020220Y0075269D01*
X0020220Y0069164D01*
X0018213Y0070182D02*
X0018213Y0072217D01*
X0016178Y0072217D01*
X0014143Y0074252D02*
X0014143Y0070182D01*
X0015161Y0069164D01*
X0017196Y0069164D01*
X0018213Y0070182D01*
X0018213Y0074252D02*
X0017196Y0075269D01*
X0015161Y0075269D01*
X0014143Y0074252D01*
X0026297Y0075269D02*
X0026297Y0069164D01*
X0029350Y0069164D01*
X0030367Y0070182D01*
X0030367Y0074252D01*
X0029350Y0075269D01*
X0026297Y0075269D01*
X0023273Y0098864D02*
X0023273Y0104969D01*
X0020220Y0101917D01*
X0024290Y0101917D01*
X0018213Y0102934D02*
X0017196Y0101917D01*
X0014143Y0101917D01*
X0014143Y0104969D02*
X0014143Y0098864D01*
X0017196Y0098864D01*
X0018213Y0099882D01*
X0018213Y0100899D01*
X0017196Y0101917D01*
X0018213Y0102934D02*
X0018213Y0103952D01*
X0017196Y0104969D01*
X0014143Y0104969D01*
X0014143Y0108764D02*
X0017196Y0108764D01*
X0018213Y0109782D01*
X0018213Y0110799D01*
X0017196Y0111817D01*
X0014143Y0111817D01*
X0014143Y0114869D02*
X0014143Y0108764D01*
X0017196Y0111817D02*
X0018213Y0112834D01*
X0018213Y0113852D01*
X0017196Y0114869D01*
X0014143Y0114869D01*
X0014143Y0118664D02*
X0017196Y0118664D01*
X0018213Y0119682D01*
X0018213Y0120699D01*
X0017196Y0121717D01*
X0014143Y0121717D01*
X0014143Y0124769D02*
X0017196Y0124769D01*
X0018213Y0123752D01*
X0018213Y0122734D01*
X0017196Y0121717D01*
X0020220Y0123752D02*
X0021238Y0124769D01*
X0023273Y0124769D01*
X0024290Y0123752D01*
X0024290Y0122734D01*
X0020220Y0118664D01*
X0024290Y0118664D01*
X0023273Y0114869D02*
X0021238Y0114869D01*
X0020220Y0113852D01*
X0022255Y0111817D02*
X0023273Y0111817D01*
X0024290Y0110799D01*
X0024290Y0109782D01*
X0023273Y0108764D01*
X0021238Y0108764D01*
X0020220Y0109782D01*
X0023273Y0111817D02*
X0024290Y0112834D01*
X0024290Y0113852D01*
X0023273Y0114869D01*
X0014143Y0118664D02*
X0014143Y0124769D01*
X0014143Y0128564D02*
X0014143Y0132634D01*
X0016178Y0134669D01*
X0018213Y0132634D01*
X0018213Y0128564D01*
X0020220Y0128564D02*
X0024290Y0128564D01*
X0022255Y0128564D02*
X0022255Y0134669D01*
X0020220Y0132634D01*
X0018213Y0131617D02*
X0014143Y0131617D01*
X0014143Y0138464D02*
X0014143Y0142534D01*
X0016178Y0144569D01*
X0018213Y0142534D01*
X0018213Y0138464D01*
X0020220Y0139482D02*
X0024290Y0143552D01*
X0024290Y0139482D01*
X0023273Y0138464D01*
X0021238Y0138464D01*
X0020220Y0139482D01*
X0020220Y0143552D01*
X0021238Y0144569D01*
X0023273Y0144569D01*
X0024290Y0143552D01*
X0018213Y0141517D02*
X0014143Y0141517D01*
D12*
X0047829Y0132880D02*
X0047829Y0125880D01*
X0047831Y0125820D01*
X0047836Y0125759D01*
X0047845Y0125700D01*
X0047858Y0125641D01*
X0047874Y0125582D01*
X0047894Y0125525D01*
X0047917Y0125470D01*
X0047944Y0125415D01*
X0047973Y0125363D01*
X0048006Y0125312D01*
X0048042Y0125263D01*
X0048080Y0125217D01*
X0048122Y0125173D01*
X0048166Y0125131D01*
X0048212Y0125093D01*
X0048261Y0125057D01*
X0048312Y0125024D01*
X0048364Y0124995D01*
X0048419Y0124968D01*
X0048474Y0124945D01*
X0048531Y0124925D01*
X0048590Y0124909D01*
X0048649Y0124896D01*
X0048708Y0124887D01*
X0048769Y0124882D01*
X0048829Y0124880D01*
X0050329Y0124880D01*
X0050829Y0125380D01*
X0069829Y0125380D01*
X0070329Y0124880D01*
X0071829Y0124880D01*
X0071889Y0124882D01*
X0071950Y0124887D01*
X0072009Y0124896D01*
X0072068Y0124909D01*
X0072127Y0124925D01*
X0072184Y0124945D01*
X0072239Y0124968D01*
X0072294Y0124995D01*
X0072346Y0125024D01*
X0072397Y0125057D01*
X0072446Y0125093D01*
X0072492Y0125131D01*
X0072536Y0125173D01*
X0072578Y0125217D01*
X0072616Y0125263D01*
X0072652Y0125312D01*
X0072685Y0125363D01*
X0072714Y0125415D01*
X0072741Y0125470D01*
X0072764Y0125525D01*
X0072784Y0125582D01*
X0072800Y0125641D01*
X0072813Y0125700D01*
X0072822Y0125759D01*
X0072827Y0125820D01*
X0072829Y0125880D01*
X0072829Y0132880D01*
X0072827Y0132940D01*
X0072822Y0133001D01*
X0072813Y0133060D01*
X0072800Y0133119D01*
X0072784Y0133178D01*
X0072764Y0133235D01*
X0072741Y0133290D01*
X0072714Y0133345D01*
X0072685Y0133397D01*
X0072652Y0133448D01*
X0072616Y0133497D01*
X0072578Y0133543D01*
X0072536Y0133587D01*
X0072492Y0133629D01*
X0072446Y0133667D01*
X0072397Y0133703D01*
X0072346Y0133736D01*
X0072294Y0133765D01*
X0072239Y0133792D01*
X0072184Y0133815D01*
X0072127Y0133835D01*
X0072068Y0133851D01*
X0072009Y0133864D01*
X0071950Y0133873D01*
X0071889Y0133878D01*
X0071829Y0133880D01*
X0070329Y0133880D01*
X0069829Y0133380D01*
X0050829Y0133380D01*
X0050329Y0133880D01*
X0048829Y0133880D01*
X0048769Y0133878D01*
X0048708Y0133873D01*
X0048649Y0133864D01*
X0048590Y0133851D01*
X0048531Y0133835D01*
X0048474Y0133815D01*
X0048419Y0133792D01*
X0048364Y0133765D01*
X0048312Y0133736D01*
X0048261Y0133703D01*
X0048212Y0133667D01*
X0048166Y0133629D01*
X0048122Y0133587D01*
X0048080Y0133543D01*
X0048042Y0133497D01*
X0048006Y0133448D01*
X0047973Y0133397D01*
X0047944Y0133345D01*
X0047917Y0133290D01*
X0047894Y0133235D01*
X0047874Y0133178D01*
X0047858Y0133119D01*
X0047845Y0133060D01*
X0047836Y0133001D01*
X0047831Y0132940D01*
X0047829Y0132880D01*
X0065367Y0149628D02*
X0065367Y0156033D01*
X0067502Y0153898D01*
X0069637Y0156033D01*
X0069637Y0149628D01*
X0071812Y0150695D02*
X0072880Y0149628D01*
X0075015Y0149628D01*
X0076083Y0150695D01*
X0078258Y0149628D02*
X0082528Y0149628D01*
X0084703Y0149628D02*
X0084703Y0156033D01*
X0087906Y0156033D01*
X0088974Y0154966D01*
X0088974Y0152831D01*
X0087906Y0151763D01*
X0084703Y0151763D01*
X0086838Y0151763D02*
X0088974Y0149628D01*
X0078258Y0149628D02*
X0078258Y0156033D01*
X0076083Y0154966D02*
X0075015Y0156033D01*
X0072880Y0156033D01*
X0071812Y0154966D01*
X0071812Y0150695D01*
X0072785Y0117432D02*
X0095785Y0117432D01*
X0095955Y0117430D01*
X0096126Y0117424D01*
X0096296Y0117413D01*
X0096466Y0117399D01*
X0096635Y0117380D01*
X0096804Y0117357D01*
X0096973Y0117331D01*
X0097140Y0117300D01*
X0097307Y0117265D01*
X0097473Y0117225D01*
X0097638Y0117182D01*
X0097802Y0117135D01*
X0097964Y0117084D01*
X0098126Y0117029D01*
X0098286Y0116970D01*
X0098444Y0116907D01*
X0098601Y0116841D01*
X0098756Y0116770D01*
X0098910Y0116696D01*
X0099061Y0116618D01*
X0099211Y0116536D01*
X0099359Y0116451D01*
X0099504Y0116362D01*
X0099647Y0116270D01*
X0099788Y0116174D01*
X0099927Y0116075D01*
X0100063Y0115972D01*
X0100197Y0115867D01*
X0100328Y0115758D01*
X0100456Y0115645D01*
X0100582Y0115530D01*
X0100705Y0115412D01*
X0100824Y0115291D01*
X0100941Y0115166D01*
X0101055Y0115039D01*
X0101166Y0114910D01*
X0101273Y0114777D01*
X0101377Y0114642D01*
X0101478Y0114505D01*
X0101576Y0114365D01*
X0101670Y0114223D01*
X0101760Y0114079D01*
X0101847Y0113932D01*
X0101931Y0113783D01*
X0102010Y0113633D01*
X0102086Y0113480D01*
X0102159Y0113326D01*
X0102227Y0113170D01*
X0102292Y0113012D01*
X0102353Y0112853D01*
X0102410Y0112692D01*
X0102463Y0112530D01*
X0102512Y0112367D01*
X0102557Y0112203D01*
X0102598Y0112037D01*
X0102636Y0111871D01*
X0102669Y0111703D01*
X0102697Y0111535D01*
X0102722Y0111367D01*
X0102743Y0111198D01*
X0102760Y0111028D01*
X0102772Y0110858D01*
X0102780Y0110688D01*
X0102784Y0110517D01*
X0102784Y0110347D01*
X0102780Y0110176D01*
X0102772Y0110006D01*
X0102760Y0109836D01*
X0102743Y0109666D01*
X0102722Y0109497D01*
X0102697Y0109329D01*
X0102669Y0109161D01*
X0102636Y0108993D01*
X0102598Y0108827D01*
X0102557Y0108661D01*
X0102512Y0108497D01*
X0102463Y0108334D01*
X0102410Y0108172D01*
X0102353Y0108011D01*
X0102292Y0107852D01*
X0102227Y0107694D01*
X0102159Y0107538D01*
X0102086Y0107384D01*
X0102010Y0107231D01*
X0101931Y0107081D01*
X0101847Y0106932D01*
X0101760Y0106785D01*
X0101670Y0106641D01*
X0101576Y0106499D01*
X0101478Y0106359D01*
X0101377Y0106222D01*
X0101273Y0106087D01*
X0101166Y0105954D01*
X0101055Y0105825D01*
X0100941Y0105698D01*
X0100824Y0105573D01*
X0100705Y0105452D01*
X0100582Y0105334D01*
X0100456Y0105219D01*
X0100328Y0105106D01*
X0100197Y0104997D01*
X0100063Y0104892D01*
X0099927Y0104789D01*
X0099788Y0104690D01*
X0099647Y0104594D01*
X0099504Y0104502D01*
X0099359Y0104413D01*
X0099211Y0104328D01*
X0099061Y0104246D01*
X0098910Y0104168D01*
X0098756Y0104094D01*
X0098601Y0104023D01*
X0098444Y0103957D01*
X0098286Y0103894D01*
X0098126Y0103835D01*
X0097964Y0103780D01*
X0097802Y0103729D01*
X0097638Y0103682D01*
X0097473Y0103639D01*
X0097307Y0103599D01*
X0097140Y0103564D01*
X0096973Y0103533D01*
X0096804Y0103507D01*
X0096635Y0103484D01*
X0096466Y0103465D01*
X0096296Y0103451D01*
X0096126Y0103440D01*
X0095955Y0103434D01*
X0095785Y0103432D01*
X0072785Y0103432D01*
X0072615Y0103434D01*
X0072444Y0103440D01*
X0072274Y0103451D01*
X0072104Y0103465D01*
X0071935Y0103484D01*
X0071766Y0103507D01*
X0071597Y0103533D01*
X0071430Y0103564D01*
X0071263Y0103599D01*
X0071097Y0103639D01*
X0070932Y0103682D01*
X0070768Y0103729D01*
X0070606Y0103780D01*
X0070444Y0103835D01*
X0070284Y0103894D01*
X0070126Y0103957D01*
X0069969Y0104023D01*
X0069814Y0104094D01*
X0069660Y0104168D01*
X0069509Y0104246D01*
X0069359Y0104328D01*
X0069211Y0104413D01*
X0069066Y0104502D01*
X0068923Y0104594D01*
X0068782Y0104690D01*
X0068643Y0104789D01*
X0068507Y0104892D01*
X0068373Y0104997D01*
X0068242Y0105106D01*
X0068114Y0105219D01*
X0067988Y0105334D01*
X0067865Y0105452D01*
X0067746Y0105573D01*
X0067629Y0105698D01*
X0067515Y0105825D01*
X0067404Y0105954D01*
X0067297Y0106087D01*
X0067193Y0106222D01*
X0067092Y0106359D01*
X0066994Y0106499D01*
X0066900Y0106641D01*
X0066810Y0106785D01*
X0066723Y0106932D01*
X0066639Y0107081D01*
X0066560Y0107231D01*
X0066484Y0107384D01*
X0066411Y0107538D01*
X0066343Y0107694D01*
X0066278Y0107852D01*
X0066217Y0108011D01*
X0066160Y0108172D01*
X0066107Y0108334D01*
X0066058Y0108497D01*
X0066013Y0108661D01*
X0065972Y0108827D01*
X0065934Y0108993D01*
X0065901Y0109161D01*
X0065873Y0109329D01*
X0065848Y0109497D01*
X0065827Y0109666D01*
X0065810Y0109836D01*
X0065798Y0110006D01*
X0065790Y0110176D01*
X0065786Y0110347D01*
X0065786Y0110517D01*
X0065790Y0110688D01*
X0065798Y0110858D01*
X0065810Y0111028D01*
X0065827Y0111198D01*
X0065848Y0111367D01*
X0065873Y0111535D01*
X0065901Y0111703D01*
X0065934Y0111871D01*
X0065972Y0112037D01*
X0066013Y0112203D01*
X0066058Y0112367D01*
X0066107Y0112530D01*
X0066160Y0112692D01*
X0066217Y0112853D01*
X0066278Y0113012D01*
X0066343Y0113170D01*
X0066411Y0113326D01*
X0066484Y0113480D01*
X0066560Y0113633D01*
X0066639Y0113783D01*
X0066723Y0113932D01*
X0066810Y0114079D01*
X0066900Y0114223D01*
X0066994Y0114365D01*
X0067092Y0114505D01*
X0067193Y0114642D01*
X0067297Y0114777D01*
X0067404Y0114910D01*
X0067515Y0115039D01*
X0067629Y0115166D01*
X0067746Y0115291D01*
X0067865Y0115412D01*
X0067988Y0115530D01*
X0068114Y0115645D01*
X0068242Y0115758D01*
X0068373Y0115867D01*
X0068507Y0115972D01*
X0068643Y0116075D01*
X0068782Y0116174D01*
X0068923Y0116270D01*
X0069066Y0116362D01*
X0069211Y0116451D01*
X0069359Y0116536D01*
X0069509Y0116618D01*
X0069660Y0116696D01*
X0069814Y0116770D01*
X0069969Y0116841D01*
X0070126Y0116907D01*
X0070284Y0116970D01*
X0070444Y0117029D01*
X0070606Y0117084D01*
X0070768Y0117135D01*
X0070932Y0117182D01*
X0071097Y0117225D01*
X0071263Y0117265D01*
X0071430Y0117300D01*
X0071597Y0117331D01*
X0071766Y0117357D01*
X0071935Y0117380D01*
X0072104Y0117399D01*
X0072274Y0117413D01*
X0072444Y0117424D01*
X0072615Y0117430D01*
X0072785Y0117432D01*
X0081058Y0101049D02*
X0083194Y0101049D01*
X0084261Y0099981D01*
X0084261Y0096779D01*
X0084261Y0098914D02*
X0086396Y0101049D01*
X0086396Y0096779D02*
X0079991Y0096779D01*
X0079991Y0099981D01*
X0081058Y0101049D01*
X0079991Y0094604D02*
X0079991Y0090333D01*
X0086396Y0090333D01*
X0086396Y0094604D01*
X0083194Y0092468D02*
X0083194Y0090333D01*
X0084261Y0088158D02*
X0085329Y0088158D01*
X0086396Y0087090D01*
X0086396Y0084955D01*
X0085329Y0083888D01*
X0085329Y0081713D02*
X0079991Y0081713D01*
X0081058Y0083888D02*
X0082126Y0083888D01*
X0083194Y0084955D01*
X0083194Y0087090D01*
X0084261Y0088158D01*
X0081058Y0088158D02*
X0079991Y0087090D01*
X0079991Y0084955D01*
X0081058Y0083888D01*
X0085329Y0081713D02*
X0086396Y0080645D01*
X0086396Y0078510D01*
X0085329Y0077442D01*
X0079991Y0077442D01*
X0067984Y0078061D02*
X0067984Y0085061D01*
X0067982Y0085121D01*
X0067977Y0085182D01*
X0067968Y0085241D01*
X0067955Y0085300D01*
X0067939Y0085359D01*
X0067919Y0085416D01*
X0067896Y0085471D01*
X0067869Y0085526D01*
X0067840Y0085578D01*
X0067807Y0085629D01*
X0067771Y0085678D01*
X0067733Y0085724D01*
X0067691Y0085768D01*
X0067647Y0085810D01*
X0067601Y0085848D01*
X0067552Y0085884D01*
X0067501Y0085917D01*
X0067449Y0085946D01*
X0067394Y0085973D01*
X0067339Y0085996D01*
X0067282Y0086016D01*
X0067223Y0086032D01*
X0067164Y0086045D01*
X0067105Y0086054D01*
X0067044Y0086059D01*
X0066984Y0086061D01*
X0065484Y0086061D01*
X0064984Y0085561D01*
X0045984Y0085561D01*
X0045484Y0086061D01*
X0043984Y0086061D01*
X0043924Y0086059D01*
X0043863Y0086054D01*
X0043804Y0086045D01*
X0043745Y0086032D01*
X0043686Y0086016D01*
X0043629Y0085996D01*
X0043574Y0085973D01*
X0043519Y0085946D01*
X0043467Y0085917D01*
X0043416Y0085884D01*
X0043367Y0085848D01*
X0043321Y0085810D01*
X0043277Y0085768D01*
X0043235Y0085724D01*
X0043197Y0085678D01*
X0043161Y0085629D01*
X0043128Y0085578D01*
X0043099Y0085526D01*
X0043072Y0085471D01*
X0043049Y0085416D01*
X0043029Y0085359D01*
X0043013Y0085300D01*
X0043000Y0085241D01*
X0042991Y0085182D01*
X0042986Y0085121D01*
X0042984Y0085061D01*
X0042984Y0078061D01*
X0042986Y0078001D01*
X0042991Y0077940D01*
X0043000Y0077881D01*
X0043013Y0077822D01*
X0043029Y0077763D01*
X0043049Y0077706D01*
X0043072Y0077651D01*
X0043099Y0077596D01*
X0043128Y0077544D01*
X0043161Y0077493D01*
X0043197Y0077444D01*
X0043235Y0077398D01*
X0043277Y0077354D01*
X0043321Y0077312D01*
X0043367Y0077274D01*
X0043416Y0077238D01*
X0043467Y0077205D01*
X0043519Y0077176D01*
X0043574Y0077149D01*
X0043629Y0077126D01*
X0043686Y0077106D01*
X0043745Y0077090D01*
X0043804Y0077077D01*
X0043863Y0077068D01*
X0043924Y0077063D01*
X0043984Y0077061D01*
X0045484Y0077061D01*
X0045984Y0077561D01*
X0064984Y0077561D01*
X0065484Y0077061D01*
X0066984Y0077061D01*
X0067044Y0077063D01*
X0067105Y0077068D01*
X0067164Y0077077D01*
X0067223Y0077090D01*
X0067282Y0077106D01*
X0067339Y0077126D01*
X0067394Y0077149D01*
X0067449Y0077176D01*
X0067501Y0077205D01*
X0067552Y0077238D01*
X0067601Y0077274D01*
X0067647Y0077312D01*
X0067691Y0077354D01*
X0067733Y0077398D01*
X0067771Y0077444D01*
X0067807Y0077493D01*
X0067840Y0077544D01*
X0067869Y0077596D01*
X0067896Y0077651D01*
X0067919Y0077706D01*
X0067939Y0077763D01*
X0067955Y0077822D01*
X0067968Y0077881D01*
X0067977Y0077940D01*
X0067982Y0078001D01*
X0067984Y0078061D01*
X0062147Y0067953D02*
X0060647Y0067953D01*
X0060147Y0067453D01*
X0041147Y0067453D01*
X0040647Y0067953D01*
X0039147Y0067953D01*
X0039087Y0067951D01*
X0039026Y0067946D01*
X0038967Y0067937D01*
X0038908Y0067924D01*
X0038849Y0067908D01*
X0038792Y0067888D01*
X0038737Y0067865D01*
X0038682Y0067838D01*
X0038630Y0067809D01*
X0038579Y0067776D01*
X0038530Y0067740D01*
X0038484Y0067702D01*
X0038440Y0067660D01*
X0038398Y0067616D01*
X0038360Y0067570D01*
X0038324Y0067521D01*
X0038291Y0067470D01*
X0038262Y0067418D01*
X0038235Y0067363D01*
X0038212Y0067308D01*
X0038192Y0067251D01*
X0038176Y0067192D01*
X0038163Y0067133D01*
X0038154Y0067074D01*
X0038149Y0067013D01*
X0038147Y0066953D01*
X0038147Y0059953D01*
X0038149Y0059893D01*
X0038154Y0059832D01*
X0038163Y0059773D01*
X0038176Y0059714D01*
X0038192Y0059655D01*
X0038212Y0059598D01*
X0038235Y0059543D01*
X0038262Y0059488D01*
X0038291Y0059436D01*
X0038324Y0059385D01*
X0038360Y0059336D01*
X0038398Y0059290D01*
X0038440Y0059246D01*
X0038484Y0059204D01*
X0038530Y0059166D01*
X0038579Y0059130D01*
X0038630Y0059097D01*
X0038682Y0059068D01*
X0038737Y0059041D01*
X0038792Y0059018D01*
X0038849Y0058998D01*
X0038908Y0058982D01*
X0038967Y0058969D01*
X0039026Y0058960D01*
X0039087Y0058955D01*
X0039147Y0058953D01*
X0040647Y0058953D01*
X0041147Y0059453D01*
X0060147Y0059453D01*
X0060647Y0058953D01*
X0062147Y0058953D01*
X0062207Y0058955D01*
X0062268Y0058960D01*
X0062327Y0058969D01*
X0062386Y0058982D01*
X0062445Y0058998D01*
X0062502Y0059018D01*
X0062557Y0059041D01*
X0062612Y0059068D01*
X0062664Y0059097D01*
X0062715Y0059130D01*
X0062764Y0059166D01*
X0062810Y0059204D01*
X0062854Y0059246D01*
X0062896Y0059290D01*
X0062934Y0059336D01*
X0062970Y0059385D01*
X0063003Y0059436D01*
X0063032Y0059488D01*
X0063059Y0059543D01*
X0063082Y0059598D01*
X0063102Y0059655D01*
X0063118Y0059714D01*
X0063131Y0059773D01*
X0063140Y0059832D01*
X0063145Y0059893D01*
X0063147Y0059953D01*
X0063147Y0066953D01*
X0063145Y0067013D01*
X0063140Y0067074D01*
X0063131Y0067133D01*
X0063118Y0067192D01*
X0063102Y0067251D01*
X0063082Y0067308D01*
X0063059Y0067363D01*
X0063032Y0067418D01*
X0063003Y0067470D01*
X0062970Y0067521D01*
X0062934Y0067570D01*
X0062896Y0067616D01*
X0062854Y0067660D01*
X0062810Y0067702D01*
X0062764Y0067740D01*
X0062715Y0067776D01*
X0062664Y0067809D01*
X0062612Y0067838D01*
X0062557Y0067865D01*
X0062502Y0067888D01*
X0062445Y0067908D01*
X0062386Y0067924D01*
X0062327Y0067937D01*
X0062268Y0067946D01*
X0062207Y0067951D01*
X0062147Y0067953D01*
X0038074Y0052933D02*
X0038074Y0044933D01*
X0038072Y0044873D01*
X0038067Y0044812D01*
X0038058Y0044753D01*
X0038045Y0044694D01*
X0038029Y0044635D01*
X0038009Y0044578D01*
X0037986Y0044523D01*
X0037959Y0044468D01*
X0037930Y0044416D01*
X0037897Y0044365D01*
X0037861Y0044316D01*
X0037823Y0044270D01*
X0037781Y0044226D01*
X0037737Y0044184D01*
X0037691Y0044146D01*
X0037642Y0044110D01*
X0037591Y0044077D01*
X0037539Y0044048D01*
X0037484Y0044021D01*
X0037429Y0043998D01*
X0037372Y0043978D01*
X0037313Y0043962D01*
X0037254Y0043949D01*
X0037195Y0043940D01*
X0037134Y0043935D01*
X0037074Y0043933D01*
X0020074Y0043933D01*
X0020014Y0043935D01*
X0019953Y0043940D01*
X0019894Y0043949D01*
X0019835Y0043962D01*
X0019776Y0043978D01*
X0019719Y0043998D01*
X0019664Y0044021D01*
X0019609Y0044048D01*
X0019557Y0044077D01*
X0019506Y0044110D01*
X0019457Y0044146D01*
X0019411Y0044184D01*
X0019367Y0044226D01*
X0019325Y0044270D01*
X0019287Y0044316D01*
X0019251Y0044365D01*
X0019218Y0044416D01*
X0019189Y0044468D01*
X0019162Y0044523D01*
X0019139Y0044578D01*
X0019119Y0044635D01*
X0019103Y0044694D01*
X0019090Y0044753D01*
X0019081Y0044812D01*
X0019076Y0044873D01*
X0019074Y0044933D01*
X0019074Y0052933D01*
X0019076Y0052993D01*
X0019081Y0053054D01*
X0019090Y0053113D01*
X0019103Y0053172D01*
X0019119Y0053231D01*
X0019139Y0053288D01*
X0019162Y0053343D01*
X0019189Y0053398D01*
X0019218Y0053450D01*
X0019251Y0053501D01*
X0019287Y0053550D01*
X0019325Y0053596D01*
X0019367Y0053640D01*
X0019411Y0053682D01*
X0019457Y0053720D01*
X0019506Y0053756D01*
X0019557Y0053789D01*
X0019609Y0053818D01*
X0019664Y0053845D01*
X0019719Y0053868D01*
X0019776Y0053888D01*
X0019835Y0053904D01*
X0019894Y0053917D01*
X0019953Y0053926D01*
X0020014Y0053931D01*
X0020074Y0053933D01*
X0037074Y0053933D01*
X0037134Y0053931D01*
X0037195Y0053926D01*
X0037254Y0053917D01*
X0037313Y0053904D01*
X0037372Y0053888D01*
X0037429Y0053868D01*
X0037484Y0053845D01*
X0037539Y0053818D01*
X0037591Y0053789D01*
X0037642Y0053756D01*
X0037691Y0053720D01*
X0037737Y0053682D01*
X0037781Y0053640D01*
X0037823Y0053596D01*
X0037861Y0053550D01*
X0037897Y0053501D01*
X0037930Y0053450D01*
X0037959Y0053398D01*
X0037986Y0053343D01*
X0038009Y0053288D01*
X0038029Y0053231D01*
X0038045Y0053172D01*
X0038058Y0053113D01*
X0038067Y0053054D01*
X0038072Y0052993D01*
X0038074Y0052933D01*
X0030074Y0048933D02*
X0029574Y0048933D01*
X0027574Y0048933D02*
X0027074Y0048933D01*
X0046591Y0098372D02*
X0048591Y0098372D01*
X0048591Y0106372D01*
X0046591Y0106372D01*
X0046591Y0102372D01*
X0046591Y0098372D01*
X0046591Y0102372D02*
X0044091Y0102372D01*
X0044591Y0103872D02*
X0044591Y0105872D01*
X0043591Y0104872D02*
X0045591Y0104872D01*
X0041104Y0097084D02*
X0041235Y0096878D01*
X0041372Y0096676D01*
X0041514Y0096477D01*
X0041660Y0096281D01*
X0041811Y0096089D01*
X0041967Y0095901D01*
X0042127Y0095717D01*
X0042292Y0095537D01*
X0042461Y0095360D01*
X0042634Y0095188D01*
X0042812Y0095021D01*
X0042993Y0094857D01*
X0043179Y0094698D01*
X0043368Y0094544D01*
X0043561Y0094394D01*
X0043758Y0094249D01*
X0043958Y0094109D01*
X0044161Y0093974D01*
X0044368Y0093844D01*
X0044578Y0093719D01*
X0044791Y0093599D01*
X0045006Y0093485D01*
X0045225Y0093376D01*
X0045446Y0093272D01*
X0045669Y0093173D01*
X0045895Y0093080D01*
X0046123Y0092993D01*
X0046353Y0092911D01*
X0046585Y0092834D01*
X0046819Y0092764D01*
X0047055Y0092699D01*
X0047292Y0092640D01*
X0047530Y0092587D01*
X0047769Y0092539D01*
X0048010Y0092498D01*
X0048252Y0092462D01*
X0048494Y0092432D01*
X0048737Y0092409D01*
X0048981Y0092391D01*
X0049225Y0092379D01*
X0049469Y0092373D01*
X0049713Y0092373D01*
X0049957Y0092379D01*
X0050201Y0092391D01*
X0050445Y0092409D01*
X0050688Y0092432D01*
X0050930Y0092462D01*
X0051172Y0092498D01*
X0051413Y0092539D01*
X0051652Y0092587D01*
X0051890Y0092640D01*
X0052127Y0092699D01*
X0052363Y0092764D01*
X0052597Y0092834D01*
X0052829Y0092911D01*
X0053059Y0092993D01*
X0053287Y0093080D01*
X0053513Y0093173D01*
X0053736Y0093272D01*
X0053957Y0093376D01*
X0054176Y0093485D01*
X0054391Y0093599D01*
X0054604Y0093719D01*
X0054814Y0093844D01*
X0055021Y0093974D01*
X0055224Y0094109D01*
X0055424Y0094249D01*
X0055621Y0094394D01*
X0055814Y0094544D01*
X0056003Y0094698D01*
X0056189Y0094857D01*
X0056370Y0095021D01*
X0056548Y0095188D01*
X0056721Y0095360D01*
X0056890Y0095537D01*
X0057055Y0095717D01*
X0057215Y0095901D01*
X0057371Y0096089D01*
X0057522Y0096281D01*
X0057668Y0096477D01*
X0057810Y0096676D01*
X0057947Y0096878D01*
X0058078Y0097084D01*
X0055091Y0102372D02*
X0052091Y0102372D01*
X0058078Y0107660D02*
X0057947Y0107866D01*
X0057810Y0108068D01*
X0057668Y0108267D01*
X0057522Y0108463D01*
X0057371Y0108655D01*
X0057215Y0108843D01*
X0057055Y0109027D01*
X0056890Y0109207D01*
X0056721Y0109384D01*
X0056548Y0109556D01*
X0056370Y0109723D01*
X0056189Y0109887D01*
X0056003Y0110046D01*
X0055814Y0110200D01*
X0055621Y0110350D01*
X0055424Y0110495D01*
X0055224Y0110635D01*
X0055021Y0110770D01*
X0054814Y0110900D01*
X0054604Y0111025D01*
X0054391Y0111145D01*
X0054176Y0111259D01*
X0053957Y0111368D01*
X0053736Y0111472D01*
X0053513Y0111571D01*
X0053287Y0111664D01*
X0053059Y0111751D01*
X0052829Y0111833D01*
X0052597Y0111910D01*
X0052363Y0111980D01*
X0052127Y0112045D01*
X0051890Y0112104D01*
X0051652Y0112157D01*
X0051413Y0112205D01*
X0051172Y0112246D01*
X0050930Y0112282D01*
X0050688Y0112312D01*
X0050445Y0112335D01*
X0050201Y0112353D01*
X0049957Y0112365D01*
X0049713Y0112371D01*
X0049469Y0112371D01*
X0049225Y0112365D01*
X0048981Y0112353D01*
X0048737Y0112335D01*
X0048494Y0112312D01*
X0048252Y0112282D01*
X0048010Y0112246D01*
X0047769Y0112205D01*
X0047530Y0112157D01*
X0047292Y0112104D01*
X0047055Y0112045D01*
X0046819Y0111980D01*
X0046585Y0111910D01*
X0046353Y0111833D01*
X0046123Y0111751D01*
X0045895Y0111664D01*
X0045669Y0111571D01*
X0045446Y0111472D01*
X0045225Y0111368D01*
X0045006Y0111259D01*
X0044791Y0111145D01*
X0044578Y0111025D01*
X0044368Y0110900D01*
X0044161Y0110770D01*
X0043958Y0110635D01*
X0043758Y0110495D01*
X0043561Y0110350D01*
X0043368Y0110200D01*
X0043179Y0110046D01*
X0042993Y0109887D01*
X0042812Y0109723D01*
X0042634Y0109556D01*
X0042461Y0109384D01*
X0042292Y0109207D01*
X0042127Y0109027D01*
X0041967Y0108843D01*
X0041811Y0108655D01*
X0041660Y0108463D01*
X0041514Y0108267D01*
X0041372Y0108068D01*
X0041235Y0107866D01*
X0041104Y0107660D01*
X0100332Y0065275D02*
X0100486Y0065273D01*
X0100640Y0065267D01*
X0100794Y0065257D01*
X0100948Y0065243D01*
X0101101Y0065226D01*
X0101253Y0065204D01*
X0101405Y0065178D01*
X0101557Y0065149D01*
X0101707Y0065115D01*
X0101857Y0065078D01*
X0102005Y0065037D01*
X0102153Y0064992D01*
X0102299Y0064943D01*
X0102444Y0064891D01*
X0102587Y0064835D01*
X0102730Y0064775D01*
X0102870Y0064712D01*
X0103009Y0064645D01*
X0103146Y0064574D01*
X0103281Y0064500D01*
X0103414Y0064423D01*
X0103546Y0064342D01*
X0103675Y0064258D01*
X0103802Y0064170D01*
X0103926Y0064079D01*
X0104048Y0063986D01*
X0104168Y0063888D01*
X0104285Y0063788D01*
X0104400Y0063685D01*
X0104512Y0063579D01*
X0104621Y0063471D01*
X0104727Y0063359D01*
X0104831Y0063245D01*
X0104931Y0063128D01*
X0105029Y0063009D01*
X0105123Y0062887D01*
X0105214Y0062762D01*
X0100332Y0053275D02*
X0100180Y0053277D01*
X0100029Y0053283D01*
X0099878Y0053292D01*
X0099726Y0053306D01*
X0099576Y0053323D01*
X0099426Y0053344D01*
X0099276Y0053369D01*
X0099127Y0053397D01*
X0098979Y0053430D01*
X0098832Y0053466D01*
X0098685Y0053505D01*
X0098540Y0053549D01*
X0098396Y0053596D01*
X0098253Y0053647D01*
X0098112Y0053701D01*
X0097971Y0053759D01*
X0097833Y0053820D01*
X0097696Y0053885D01*
X0097560Y0053954D01*
X0097427Y0054025D01*
X0097295Y0054100D01*
X0097165Y0054179D01*
X0097038Y0054260D01*
X0096912Y0054345D01*
X0096788Y0054433D01*
X0096667Y0054524D01*
X0096548Y0054618D01*
X0096432Y0054716D01*
X0096318Y0054816D01*
X0096206Y0054918D01*
X0096098Y0055024D01*
X0095992Y0055132D01*
X0095888Y0055243D01*
X0095788Y0055357D01*
X0095690Y0055473D01*
X0095596Y0055592D01*
X0100332Y0053275D02*
X0100484Y0053277D01*
X0100635Y0053283D01*
X0100786Y0053292D01*
X0100938Y0053306D01*
X0101088Y0053323D01*
X0101238Y0053344D01*
X0101388Y0053369D01*
X0101537Y0053397D01*
X0101685Y0053430D01*
X0101832Y0053466D01*
X0101979Y0053505D01*
X0102124Y0053549D01*
X0102268Y0053596D01*
X0102411Y0053647D01*
X0102552Y0053701D01*
X0102693Y0053759D01*
X0102831Y0053820D01*
X0102968Y0053885D01*
X0103104Y0053954D01*
X0103237Y0054025D01*
X0103369Y0054100D01*
X0103499Y0054179D01*
X0103626Y0054260D01*
X0103752Y0054345D01*
X0103876Y0054433D01*
X0103997Y0054524D01*
X0104116Y0054618D01*
X0104232Y0054716D01*
X0104346Y0054816D01*
X0104458Y0054918D01*
X0104566Y0055024D01*
X0104672Y0055132D01*
X0104776Y0055243D01*
X0104876Y0055357D01*
X0104974Y0055473D01*
X0105068Y0055592D01*
X0100332Y0065275D02*
X0100182Y0065273D01*
X0100031Y0065267D01*
X0099881Y0065258D01*
X0099732Y0065245D01*
X0099582Y0065228D01*
X0099433Y0065207D01*
X0099285Y0065183D01*
X0099137Y0065155D01*
X0098990Y0065123D01*
X0098844Y0065088D01*
X0098699Y0065048D01*
X0098555Y0065006D01*
X0098412Y0064959D01*
X0098270Y0064909D01*
X0098129Y0064856D01*
X0097990Y0064799D01*
X0097852Y0064739D01*
X0097716Y0064675D01*
X0097582Y0064608D01*
X0097449Y0064537D01*
X0097318Y0064463D01*
X0097189Y0064386D01*
X0097062Y0064305D01*
X0096937Y0064222D01*
X0096814Y0064135D01*
X0096693Y0064046D01*
X0096575Y0063953D01*
X0096459Y0063857D01*
X0096345Y0063759D01*
X0096234Y0063658D01*
X0096125Y0063553D01*
X0096020Y0063447D01*
X0095916Y0063337D01*
X0095816Y0063225D01*
X0095718Y0063111D01*
X0095624Y0062994D01*
X0095532Y0062875D01*
X0104472Y0036442D02*
X0104378Y0036323D01*
X0104280Y0036207D01*
X0104180Y0036093D01*
X0104076Y0035982D01*
X0103970Y0035874D01*
X0103862Y0035768D01*
X0103750Y0035666D01*
X0103636Y0035566D01*
X0103520Y0035468D01*
X0103401Y0035374D01*
X0103280Y0035283D01*
X0103156Y0035195D01*
X0103030Y0035110D01*
X0102903Y0035029D01*
X0102773Y0034950D01*
X0102641Y0034875D01*
X0102508Y0034804D01*
X0102372Y0034735D01*
X0102235Y0034670D01*
X0102097Y0034609D01*
X0101956Y0034551D01*
X0101815Y0034497D01*
X0101672Y0034446D01*
X0101528Y0034399D01*
X0101383Y0034355D01*
X0101236Y0034316D01*
X0101089Y0034280D01*
X0100941Y0034247D01*
X0100792Y0034219D01*
X0100642Y0034194D01*
X0100492Y0034173D01*
X0100342Y0034156D01*
X0100190Y0034142D01*
X0100039Y0034133D01*
X0099888Y0034127D01*
X0099736Y0034125D01*
X0094936Y0043725D02*
X0095028Y0043844D01*
X0095122Y0043961D01*
X0095220Y0044075D01*
X0095320Y0044187D01*
X0095424Y0044297D01*
X0095529Y0044403D01*
X0095638Y0044508D01*
X0095749Y0044609D01*
X0095863Y0044707D01*
X0095979Y0044803D01*
X0096097Y0044896D01*
X0096218Y0044985D01*
X0096341Y0045072D01*
X0096466Y0045155D01*
X0096593Y0045236D01*
X0096722Y0045313D01*
X0096853Y0045387D01*
X0096986Y0045458D01*
X0097120Y0045525D01*
X0097256Y0045589D01*
X0097394Y0045649D01*
X0097533Y0045706D01*
X0097674Y0045759D01*
X0097816Y0045809D01*
X0097959Y0045856D01*
X0098103Y0045898D01*
X0098248Y0045938D01*
X0098394Y0045973D01*
X0098541Y0046005D01*
X0098689Y0046033D01*
X0098837Y0046057D01*
X0098986Y0046078D01*
X0099136Y0046095D01*
X0099285Y0046108D01*
X0099435Y0046117D01*
X0099586Y0046123D01*
X0099736Y0046125D01*
X0095000Y0036442D02*
X0095094Y0036323D01*
X0095192Y0036207D01*
X0095292Y0036093D01*
X0095396Y0035982D01*
X0095502Y0035874D01*
X0095610Y0035768D01*
X0095722Y0035666D01*
X0095836Y0035566D01*
X0095952Y0035468D01*
X0096071Y0035374D01*
X0096192Y0035283D01*
X0096316Y0035195D01*
X0096442Y0035110D01*
X0096569Y0035029D01*
X0096699Y0034950D01*
X0096831Y0034875D01*
X0096964Y0034804D01*
X0097100Y0034735D01*
X0097237Y0034670D01*
X0097375Y0034609D01*
X0097516Y0034551D01*
X0097657Y0034497D01*
X0097800Y0034446D01*
X0097944Y0034399D01*
X0098089Y0034355D01*
X0098236Y0034316D01*
X0098383Y0034280D01*
X0098531Y0034247D01*
X0098680Y0034219D01*
X0098830Y0034194D01*
X0098980Y0034173D01*
X0099130Y0034156D01*
X0099282Y0034142D01*
X0099433Y0034133D01*
X0099584Y0034127D01*
X0099736Y0034125D01*
X0104618Y0043612D02*
X0104527Y0043737D01*
X0104433Y0043859D01*
X0104335Y0043978D01*
X0104235Y0044095D01*
X0104131Y0044209D01*
X0104025Y0044321D01*
X0103916Y0044429D01*
X0103804Y0044535D01*
X0103689Y0044638D01*
X0103572Y0044738D01*
X0103452Y0044836D01*
X0103330Y0044929D01*
X0103206Y0045020D01*
X0103079Y0045108D01*
X0102950Y0045192D01*
X0102818Y0045273D01*
X0102685Y0045350D01*
X0102550Y0045424D01*
X0102413Y0045495D01*
X0102274Y0045562D01*
X0102134Y0045625D01*
X0101991Y0045685D01*
X0101848Y0045741D01*
X0101703Y0045793D01*
X0101557Y0045842D01*
X0101409Y0045887D01*
X0101261Y0045928D01*
X0101111Y0045965D01*
X0100961Y0045999D01*
X0100809Y0046028D01*
X0100657Y0046054D01*
X0100505Y0046076D01*
X0100352Y0046093D01*
X0100198Y0046107D01*
X0100044Y0046117D01*
X0099890Y0046123D01*
X0099736Y0046125D01*
X0089217Y0032084D02*
X0081217Y0032084D01*
X0081157Y0032082D01*
X0081096Y0032077D01*
X0081037Y0032068D01*
X0080978Y0032055D01*
X0080919Y0032039D01*
X0080862Y0032019D01*
X0080807Y0031996D01*
X0080752Y0031969D01*
X0080700Y0031940D01*
X0080649Y0031907D01*
X0080600Y0031871D01*
X0080554Y0031833D01*
X0080510Y0031791D01*
X0080468Y0031747D01*
X0080430Y0031701D01*
X0080394Y0031652D01*
X0080361Y0031601D01*
X0080332Y0031549D01*
X0080305Y0031494D01*
X0080282Y0031439D01*
X0080262Y0031382D01*
X0080246Y0031323D01*
X0080233Y0031264D01*
X0080224Y0031205D01*
X0080219Y0031144D01*
X0080217Y0031084D01*
X0080217Y0014084D01*
X0080219Y0014024D01*
X0080224Y0013963D01*
X0080233Y0013904D01*
X0080246Y0013845D01*
X0080262Y0013786D01*
X0080282Y0013729D01*
X0080305Y0013674D01*
X0080332Y0013619D01*
X0080361Y0013567D01*
X0080394Y0013516D01*
X0080430Y0013467D01*
X0080468Y0013421D01*
X0080510Y0013377D01*
X0080554Y0013335D01*
X0080600Y0013297D01*
X0080649Y0013261D01*
X0080700Y0013228D01*
X0080752Y0013199D01*
X0080807Y0013172D01*
X0080862Y0013149D01*
X0080919Y0013129D01*
X0080978Y0013113D01*
X0081037Y0013100D01*
X0081096Y0013091D01*
X0081157Y0013086D01*
X0081217Y0013084D01*
X0089217Y0013084D01*
X0089277Y0013086D01*
X0089338Y0013091D01*
X0089397Y0013100D01*
X0089456Y0013113D01*
X0089515Y0013129D01*
X0089572Y0013149D01*
X0089627Y0013172D01*
X0089682Y0013199D01*
X0089734Y0013228D01*
X0089785Y0013261D01*
X0089834Y0013297D01*
X0089880Y0013335D01*
X0089924Y0013377D01*
X0089966Y0013421D01*
X0090004Y0013467D01*
X0090040Y0013516D01*
X0090073Y0013567D01*
X0090102Y0013619D01*
X0090129Y0013674D01*
X0090152Y0013729D01*
X0090172Y0013786D01*
X0090188Y0013845D01*
X0090201Y0013904D01*
X0090210Y0013963D01*
X0090215Y0014024D01*
X0090217Y0014084D01*
X0090217Y0031084D01*
X0090215Y0031144D01*
X0090210Y0031205D01*
X0090201Y0031264D01*
X0090188Y0031323D01*
X0090172Y0031382D01*
X0090152Y0031439D01*
X0090129Y0031494D01*
X0090102Y0031549D01*
X0090073Y0031601D01*
X0090040Y0031652D01*
X0090004Y0031701D01*
X0089966Y0031747D01*
X0089924Y0031791D01*
X0089880Y0031833D01*
X0089834Y0031871D01*
X0089785Y0031907D01*
X0089734Y0031940D01*
X0089682Y0031969D01*
X0089627Y0031996D01*
X0089572Y0032019D01*
X0089515Y0032039D01*
X0089456Y0032055D01*
X0089397Y0032068D01*
X0089338Y0032077D01*
X0089277Y0032082D01*
X0089217Y0032084D01*
X0085217Y0024084D02*
X0085217Y0023584D01*
X0085217Y0021584D02*
X0085217Y0021084D01*
X0107823Y0019192D02*
X0107823Y0012192D01*
X0107825Y0012132D01*
X0107830Y0012071D01*
X0107839Y0012012D01*
X0107852Y0011953D01*
X0107868Y0011894D01*
X0107888Y0011837D01*
X0107911Y0011782D01*
X0107938Y0011727D01*
X0107967Y0011675D01*
X0108000Y0011624D01*
X0108036Y0011575D01*
X0108074Y0011529D01*
X0108116Y0011485D01*
X0108160Y0011443D01*
X0108206Y0011405D01*
X0108255Y0011369D01*
X0108306Y0011336D01*
X0108358Y0011307D01*
X0108413Y0011280D01*
X0108468Y0011257D01*
X0108525Y0011237D01*
X0108584Y0011221D01*
X0108643Y0011208D01*
X0108702Y0011199D01*
X0108763Y0011194D01*
X0108823Y0011192D01*
X0110323Y0011192D01*
X0110823Y0011692D01*
X0129823Y0011692D01*
X0130323Y0011192D01*
X0131823Y0011192D01*
X0131883Y0011194D01*
X0131944Y0011199D01*
X0132003Y0011208D01*
X0132062Y0011221D01*
X0132121Y0011237D01*
X0132178Y0011257D01*
X0132233Y0011280D01*
X0132288Y0011307D01*
X0132340Y0011336D01*
X0132391Y0011369D01*
X0132440Y0011405D01*
X0132486Y0011443D01*
X0132530Y0011485D01*
X0132572Y0011529D01*
X0132610Y0011575D01*
X0132646Y0011624D01*
X0132679Y0011675D01*
X0132708Y0011727D01*
X0132735Y0011782D01*
X0132758Y0011837D01*
X0132778Y0011894D01*
X0132794Y0011953D01*
X0132807Y0012012D01*
X0132816Y0012071D01*
X0132821Y0012132D01*
X0132823Y0012192D01*
X0132823Y0019192D01*
X0132821Y0019252D01*
X0132816Y0019313D01*
X0132807Y0019372D01*
X0132794Y0019431D01*
X0132778Y0019490D01*
X0132758Y0019547D01*
X0132735Y0019602D01*
X0132708Y0019657D01*
X0132679Y0019709D01*
X0132646Y0019760D01*
X0132610Y0019809D01*
X0132572Y0019855D01*
X0132530Y0019899D01*
X0132486Y0019941D01*
X0132440Y0019979D01*
X0132391Y0020015D01*
X0132340Y0020048D01*
X0132288Y0020077D01*
X0132233Y0020104D01*
X0132178Y0020127D01*
X0132121Y0020147D01*
X0132062Y0020163D01*
X0132003Y0020176D01*
X0131944Y0020185D01*
X0131883Y0020190D01*
X0131823Y0020192D01*
X0130323Y0020192D01*
X0129823Y0019692D01*
X0110823Y0019692D01*
X0110323Y0020192D01*
X0108823Y0020192D01*
X0108763Y0020190D01*
X0108702Y0020185D01*
X0108643Y0020176D01*
X0108584Y0020163D01*
X0108525Y0020147D01*
X0108468Y0020127D01*
X0108413Y0020104D01*
X0108358Y0020077D01*
X0108306Y0020048D01*
X0108255Y0020015D01*
X0108206Y0019979D01*
X0108160Y0019941D01*
X0108116Y0019899D01*
X0108074Y0019855D01*
X0108036Y0019809D01*
X0108000Y0019760D01*
X0107967Y0019709D01*
X0107938Y0019657D01*
X0107911Y0019602D01*
X0107888Y0019547D01*
X0107868Y0019490D01*
X0107852Y0019431D01*
X0107839Y0019372D01*
X0107830Y0019313D01*
X0107825Y0019252D01*
X0107823Y0019192D01*
X0126707Y0048082D02*
X0149707Y0048082D01*
X0149707Y0188082D01*
X0142207Y0188082D01*
X0142205Y0187956D01*
X0142199Y0187831D01*
X0142189Y0187706D01*
X0142175Y0187581D01*
X0142158Y0187456D01*
X0142136Y0187332D01*
X0142111Y0187209D01*
X0142081Y0187087D01*
X0142048Y0186966D01*
X0142011Y0186846D01*
X0141971Y0186727D01*
X0141926Y0186610D01*
X0141878Y0186493D01*
X0141826Y0186379D01*
X0141771Y0186266D01*
X0141712Y0186155D01*
X0141650Y0186046D01*
X0141584Y0185939D01*
X0141515Y0185834D01*
X0141443Y0185731D01*
X0141368Y0185630D01*
X0141289Y0185532D01*
X0141207Y0185437D01*
X0141123Y0185344D01*
X0141035Y0185254D01*
X0140945Y0185166D01*
X0140852Y0185082D01*
X0140757Y0185000D01*
X0140659Y0184921D01*
X0140558Y0184846D01*
X0140455Y0184774D01*
X0140350Y0184705D01*
X0140243Y0184639D01*
X0140134Y0184577D01*
X0140023Y0184518D01*
X0139910Y0184463D01*
X0139796Y0184411D01*
X0139679Y0184363D01*
X0139562Y0184318D01*
X0139443Y0184278D01*
X0139323Y0184241D01*
X0139202Y0184208D01*
X0139080Y0184178D01*
X0138957Y0184153D01*
X0138833Y0184131D01*
X0138708Y0184114D01*
X0138583Y0184100D01*
X0138458Y0184090D01*
X0138333Y0184084D01*
X0138207Y0184082D01*
X0138081Y0184084D01*
X0137956Y0184090D01*
X0137831Y0184100D01*
X0137706Y0184114D01*
X0137581Y0184131D01*
X0137457Y0184153D01*
X0137334Y0184178D01*
X0137212Y0184208D01*
X0137091Y0184241D01*
X0136971Y0184278D01*
X0136852Y0184318D01*
X0136735Y0184363D01*
X0136618Y0184411D01*
X0136504Y0184463D01*
X0136391Y0184518D01*
X0136280Y0184577D01*
X0136171Y0184639D01*
X0136064Y0184705D01*
X0135959Y0184774D01*
X0135856Y0184846D01*
X0135755Y0184921D01*
X0135657Y0185000D01*
X0135562Y0185082D01*
X0135469Y0185166D01*
X0135379Y0185254D01*
X0135291Y0185344D01*
X0135207Y0185437D01*
X0135125Y0185532D01*
X0135046Y0185630D01*
X0134971Y0185731D01*
X0134899Y0185834D01*
X0134830Y0185939D01*
X0134764Y0186046D01*
X0134702Y0186155D01*
X0134643Y0186266D01*
X0134588Y0186379D01*
X0134536Y0186493D01*
X0134488Y0186610D01*
X0134443Y0186727D01*
X0134403Y0186846D01*
X0134366Y0186966D01*
X0134333Y0187087D01*
X0134303Y0187209D01*
X0134278Y0187332D01*
X0134256Y0187456D01*
X0134239Y0187581D01*
X0134225Y0187706D01*
X0134215Y0187831D01*
X0134209Y0187956D01*
X0134207Y0188082D01*
X0126707Y0188082D01*
X0126707Y0048082D01*
X0171843Y0058360D02*
X0173843Y0058360D01*
X0172843Y0057360D02*
X0172843Y0059360D01*
X0174843Y0059860D02*
X0174843Y0055860D01*
X0174843Y0051860D01*
X0176843Y0051860D01*
X0176843Y0059860D01*
X0174843Y0059860D01*
X0174843Y0055860D02*
X0172343Y0055860D01*
X0169356Y0050572D02*
X0169487Y0050366D01*
X0169624Y0050164D01*
X0169766Y0049965D01*
X0169912Y0049769D01*
X0170063Y0049577D01*
X0170219Y0049389D01*
X0170379Y0049205D01*
X0170544Y0049025D01*
X0170713Y0048848D01*
X0170886Y0048676D01*
X0171064Y0048509D01*
X0171245Y0048345D01*
X0171431Y0048186D01*
X0171620Y0048032D01*
X0171813Y0047882D01*
X0172010Y0047737D01*
X0172210Y0047597D01*
X0172413Y0047462D01*
X0172620Y0047332D01*
X0172830Y0047207D01*
X0173043Y0047087D01*
X0173258Y0046973D01*
X0173477Y0046864D01*
X0173698Y0046760D01*
X0173921Y0046661D01*
X0174147Y0046568D01*
X0174375Y0046481D01*
X0174605Y0046399D01*
X0174837Y0046322D01*
X0175071Y0046252D01*
X0175307Y0046187D01*
X0175544Y0046128D01*
X0175782Y0046075D01*
X0176021Y0046027D01*
X0176262Y0045986D01*
X0176504Y0045950D01*
X0176746Y0045920D01*
X0176989Y0045897D01*
X0177233Y0045879D01*
X0177477Y0045867D01*
X0177721Y0045861D01*
X0177965Y0045861D01*
X0178209Y0045867D01*
X0178453Y0045879D01*
X0178697Y0045897D01*
X0178940Y0045920D01*
X0179182Y0045950D01*
X0179424Y0045986D01*
X0179665Y0046027D01*
X0179904Y0046075D01*
X0180142Y0046128D01*
X0180379Y0046187D01*
X0180615Y0046252D01*
X0180849Y0046322D01*
X0181081Y0046399D01*
X0181311Y0046481D01*
X0181539Y0046568D01*
X0181765Y0046661D01*
X0181988Y0046760D01*
X0182209Y0046864D01*
X0182428Y0046973D01*
X0182643Y0047087D01*
X0182856Y0047207D01*
X0183066Y0047332D01*
X0183273Y0047462D01*
X0183476Y0047597D01*
X0183676Y0047737D01*
X0183873Y0047882D01*
X0184066Y0048032D01*
X0184255Y0048186D01*
X0184441Y0048345D01*
X0184622Y0048509D01*
X0184800Y0048676D01*
X0184973Y0048848D01*
X0185142Y0049025D01*
X0185307Y0049205D01*
X0185467Y0049389D01*
X0185623Y0049577D01*
X0185774Y0049769D01*
X0185920Y0049965D01*
X0186062Y0050164D01*
X0186199Y0050366D01*
X0186330Y0050572D01*
X0183343Y0055860D02*
X0180343Y0055860D01*
X0186330Y0061148D02*
X0186199Y0061354D01*
X0186062Y0061556D01*
X0185920Y0061755D01*
X0185774Y0061951D01*
X0185623Y0062143D01*
X0185467Y0062331D01*
X0185307Y0062515D01*
X0185142Y0062695D01*
X0184973Y0062872D01*
X0184800Y0063044D01*
X0184622Y0063211D01*
X0184441Y0063375D01*
X0184255Y0063534D01*
X0184066Y0063688D01*
X0183873Y0063838D01*
X0183676Y0063983D01*
X0183476Y0064123D01*
X0183273Y0064258D01*
X0183066Y0064388D01*
X0182856Y0064513D01*
X0182643Y0064633D01*
X0182428Y0064747D01*
X0182209Y0064856D01*
X0181988Y0064960D01*
X0181765Y0065059D01*
X0181539Y0065152D01*
X0181311Y0065239D01*
X0181081Y0065321D01*
X0180849Y0065398D01*
X0180615Y0065468D01*
X0180379Y0065533D01*
X0180142Y0065592D01*
X0179904Y0065645D01*
X0179665Y0065693D01*
X0179424Y0065734D01*
X0179182Y0065770D01*
X0178940Y0065800D01*
X0178697Y0065823D01*
X0178453Y0065841D01*
X0178209Y0065853D01*
X0177965Y0065859D01*
X0177721Y0065859D01*
X0177477Y0065853D01*
X0177233Y0065841D01*
X0176989Y0065823D01*
X0176746Y0065800D01*
X0176504Y0065770D01*
X0176262Y0065734D01*
X0176021Y0065693D01*
X0175782Y0065645D01*
X0175544Y0065592D01*
X0175307Y0065533D01*
X0175071Y0065468D01*
X0174837Y0065398D01*
X0174605Y0065321D01*
X0174375Y0065239D01*
X0174147Y0065152D01*
X0173921Y0065059D01*
X0173698Y0064960D01*
X0173477Y0064856D01*
X0173258Y0064747D01*
X0173043Y0064633D01*
X0172830Y0064513D01*
X0172620Y0064388D01*
X0172413Y0064258D01*
X0172210Y0064123D01*
X0172010Y0063983D01*
X0171813Y0063838D01*
X0171620Y0063688D01*
X0171431Y0063534D01*
X0171245Y0063375D01*
X0171064Y0063211D01*
X0170886Y0063044D01*
X0170713Y0062872D01*
X0170544Y0062695D01*
X0170379Y0062515D01*
X0170219Y0062331D01*
X0170063Y0062143D01*
X0169912Y0061951D01*
X0169766Y0061755D01*
X0169624Y0061556D01*
X0169487Y0061354D01*
X0169356Y0061148D01*
X0144129Y0192389D02*
X0127129Y0192389D01*
X0127069Y0192391D01*
X0127008Y0192396D01*
X0126949Y0192405D01*
X0126890Y0192418D01*
X0126831Y0192434D01*
X0126774Y0192454D01*
X0126719Y0192477D01*
X0126664Y0192504D01*
X0126612Y0192533D01*
X0126561Y0192566D01*
X0126512Y0192602D01*
X0126466Y0192640D01*
X0126422Y0192682D01*
X0126380Y0192726D01*
X0126342Y0192772D01*
X0126306Y0192821D01*
X0126273Y0192872D01*
X0126244Y0192924D01*
X0126217Y0192979D01*
X0126194Y0193034D01*
X0126174Y0193091D01*
X0126158Y0193150D01*
X0126145Y0193209D01*
X0126136Y0193268D01*
X0126131Y0193329D01*
X0126129Y0193389D01*
X0126129Y0201389D01*
X0126131Y0201449D01*
X0126136Y0201510D01*
X0126145Y0201569D01*
X0126158Y0201628D01*
X0126174Y0201687D01*
X0126194Y0201744D01*
X0126217Y0201799D01*
X0126244Y0201854D01*
X0126273Y0201906D01*
X0126306Y0201957D01*
X0126342Y0202006D01*
X0126380Y0202052D01*
X0126422Y0202096D01*
X0126466Y0202138D01*
X0126512Y0202176D01*
X0126561Y0202212D01*
X0126612Y0202245D01*
X0126664Y0202274D01*
X0126719Y0202301D01*
X0126774Y0202324D01*
X0126831Y0202344D01*
X0126890Y0202360D01*
X0126949Y0202373D01*
X0127008Y0202382D01*
X0127069Y0202387D01*
X0127129Y0202389D01*
X0144129Y0202389D01*
X0144189Y0202387D01*
X0144250Y0202382D01*
X0144309Y0202373D01*
X0144368Y0202360D01*
X0144427Y0202344D01*
X0144484Y0202324D01*
X0144539Y0202301D01*
X0144594Y0202274D01*
X0144646Y0202245D01*
X0144697Y0202212D01*
X0144746Y0202176D01*
X0144792Y0202138D01*
X0144836Y0202096D01*
X0144878Y0202052D01*
X0144916Y0202006D01*
X0144952Y0201957D01*
X0144985Y0201906D01*
X0145014Y0201854D01*
X0145041Y0201799D01*
X0145064Y0201744D01*
X0145084Y0201687D01*
X0145100Y0201628D01*
X0145113Y0201569D01*
X0145122Y0201510D01*
X0145127Y0201449D01*
X0145129Y0201389D01*
X0145129Y0193389D01*
X0145127Y0193329D01*
X0145122Y0193268D01*
X0145113Y0193209D01*
X0145100Y0193150D01*
X0145084Y0193091D01*
X0145064Y0193034D01*
X0145041Y0192979D01*
X0145014Y0192924D01*
X0144985Y0192872D01*
X0144952Y0192821D01*
X0144916Y0192772D01*
X0144878Y0192726D01*
X0144836Y0192682D01*
X0144792Y0192640D01*
X0144746Y0192602D01*
X0144697Y0192566D01*
X0144646Y0192533D01*
X0144594Y0192504D01*
X0144539Y0192477D01*
X0144484Y0192454D01*
X0144427Y0192434D01*
X0144368Y0192418D01*
X0144309Y0192405D01*
X0144250Y0192396D01*
X0144189Y0192391D01*
X0144129Y0192389D01*
X0137129Y0197389D02*
X0136629Y0197389D01*
X0134629Y0197389D02*
X0134129Y0197389D01*
X0121917Y0193903D02*
X0121917Y0201903D01*
X0121915Y0201963D01*
X0121910Y0202024D01*
X0121901Y0202083D01*
X0121888Y0202142D01*
X0121872Y0202201D01*
X0121852Y0202258D01*
X0121829Y0202313D01*
X0121802Y0202368D01*
X0121773Y0202420D01*
X0121740Y0202471D01*
X0121704Y0202520D01*
X0121666Y0202566D01*
X0121624Y0202610D01*
X0121580Y0202652D01*
X0121534Y0202690D01*
X0121485Y0202726D01*
X0121434Y0202759D01*
X0121382Y0202788D01*
X0121327Y0202815D01*
X0121272Y0202838D01*
X0121215Y0202858D01*
X0121156Y0202874D01*
X0121097Y0202887D01*
X0121038Y0202896D01*
X0120977Y0202901D01*
X0120917Y0202903D01*
X0103917Y0202903D01*
X0103857Y0202901D01*
X0103796Y0202896D01*
X0103737Y0202887D01*
X0103678Y0202874D01*
X0103619Y0202858D01*
X0103562Y0202838D01*
X0103507Y0202815D01*
X0103452Y0202788D01*
X0103400Y0202759D01*
X0103349Y0202726D01*
X0103300Y0202690D01*
X0103254Y0202652D01*
X0103210Y0202610D01*
X0103168Y0202566D01*
X0103130Y0202520D01*
X0103094Y0202471D01*
X0103061Y0202420D01*
X0103032Y0202368D01*
X0103005Y0202313D01*
X0102982Y0202258D01*
X0102962Y0202201D01*
X0102946Y0202142D01*
X0102933Y0202083D01*
X0102924Y0202024D01*
X0102919Y0201963D01*
X0102917Y0201903D01*
X0102917Y0193903D01*
X0102919Y0193843D01*
X0102924Y0193782D01*
X0102933Y0193723D01*
X0102946Y0193664D01*
X0102962Y0193605D01*
X0102982Y0193548D01*
X0103005Y0193493D01*
X0103032Y0193438D01*
X0103061Y0193386D01*
X0103094Y0193335D01*
X0103130Y0193286D01*
X0103168Y0193240D01*
X0103210Y0193196D01*
X0103254Y0193154D01*
X0103300Y0193116D01*
X0103349Y0193080D01*
X0103400Y0193047D01*
X0103452Y0193018D01*
X0103507Y0192991D01*
X0103562Y0192968D01*
X0103619Y0192948D01*
X0103678Y0192932D01*
X0103737Y0192919D01*
X0103796Y0192910D01*
X0103857Y0192905D01*
X0103917Y0192903D01*
X0120917Y0192903D01*
X0120977Y0192905D01*
X0121038Y0192910D01*
X0121097Y0192919D01*
X0121156Y0192932D01*
X0121215Y0192948D01*
X0121272Y0192968D01*
X0121327Y0192991D01*
X0121382Y0193018D01*
X0121434Y0193047D01*
X0121485Y0193080D01*
X0121534Y0193116D01*
X0121580Y0193154D01*
X0121624Y0193196D01*
X0121666Y0193240D01*
X0121704Y0193286D01*
X0121740Y0193335D01*
X0121773Y0193386D01*
X0121802Y0193438D01*
X0121829Y0193493D01*
X0121852Y0193548D01*
X0121872Y0193605D01*
X0121888Y0193664D01*
X0121901Y0193723D01*
X0121910Y0193782D01*
X0121915Y0193843D01*
X0121917Y0193903D01*
X0113917Y0197903D02*
X0113417Y0197903D01*
X0111417Y0197903D02*
X0110917Y0197903D01*
D13*
X0066991Y0156585D02*
X0066991Y0151981D01*
X0065456Y0151981D02*
X0068526Y0151981D01*
X0065456Y0155051D02*
X0066991Y0156585D01*
X0063922Y0156585D02*
X0063922Y0153516D01*
X0062387Y0151981D01*
X0060853Y0153516D01*
X0060853Y0156585D01*
X0060852Y0159481D02*
X0060085Y0160249D01*
X0060085Y0163318D01*
X0059318Y0162551D02*
X0060852Y0162551D01*
X0057783Y0162551D02*
X0056249Y0162551D01*
X0057016Y0163318D02*
X0057016Y0160249D01*
X0057783Y0159481D01*
X0054714Y0161016D02*
X0051645Y0161016D01*
X0051645Y0160249D02*
X0051645Y0161783D01*
X0052412Y0162551D01*
X0053947Y0162551D01*
X0054714Y0161783D01*
X0054714Y0161016D01*
X0053947Y0159481D02*
X0052412Y0159481D01*
X0051645Y0160249D01*
X0050110Y0159481D02*
X0050110Y0161783D01*
X0049343Y0162551D01*
X0047041Y0162551D01*
X0047041Y0159481D01*
X0045506Y0159481D02*
X0045506Y0161783D01*
X0044739Y0162551D01*
X0043971Y0161783D01*
X0043971Y0159481D01*
X0042437Y0159481D02*
X0042437Y0162551D01*
X0043204Y0162551D01*
X0043971Y0161783D01*
X0040902Y0159481D02*
X0037833Y0159481D01*
X0037833Y0164085D01*
X0040902Y0164085D01*
X0039368Y0161783D02*
X0037833Y0161783D01*
X0039368Y0156585D02*
X0037833Y0155051D01*
X0036298Y0155818D02*
X0036298Y0152749D01*
X0035531Y0151981D01*
X0033996Y0151981D01*
X0033229Y0152749D01*
X0036298Y0155818D01*
X0035531Y0156585D01*
X0033996Y0156585D01*
X0033229Y0155818D01*
X0033229Y0152749D01*
X0031694Y0151981D02*
X0028625Y0151981D01*
X0031694Y0155051D01*
X0031694Y0155818D01*
X0030927Y0156585D01*
X0029392Y0156585D01*
X0028625Y0155818D01*
X0027090Y0156585D02*
X0024021Y0151981D01*
X0022486Y0152749D02*
X0021719Y0151981D01*
X0020184Y0151981D01*
X0019417Y0152749D01*
X0022486Y0155818D01*
X0022486Y0152749D01*
X0022486Y0155818D02*
X0021719Y0156585D01*
X0020184Y0156585D01*
X0019417Y0155818D01*
X0019417Y0152749D01*
X0017883Y0152749D02*
X0017115Y0151981D01*
X0015581Y0151981D01*
X0014813Y0152749D01*
X0016348Y0154283D02*
X0017115Y0154283D01*
X0017883Y0153516D01*
X0017883Y0152749D01*
X0017115Y0154283D02*
X0017883Y0155051D01*
X0017883Y0155818D01*
X0017115Y0156585D01*
X0015581Y0156585D01*
X0014813Y0155818D01*
X0013279Y0156585D02*
X0010209Y0151981D01*
X0008675Y0152749D02*
X0007907Y0151981D01*
X0006373Y0151981D01*
X0005605Y0152749D01*
X0007140Y0154283D02*
X0007907Y0154283D01*
X0008675Y0153516D01*
X0008675Y0152749D01*
X0007907Y0154283D02*
X0008675Y0155051D01*
X0008675Y0155818D01*
X0007907Y0156585D01*
X0006373Y0156585D01*
X0005605Y0155818D01*
X0005605Y0159481D02*
X0005605Y0164085D01*
X0005605Y0161783D02*
X0008675Y0161783D01*
X0010209Y0160249D02*
X0010977Y0161016D01*
X0013279Y0161016D01*
X0013279Y0161783D02*
X0013279Y0159481D01*
X0010977Y0159481D01*
X0010209Y0160249D01*
X0008675Y0159481D02*
X0008675Y0164085D01*
X0010977Y0162551D02*
X0012511Y0162551D01*
X0013279Y0161783D01*
X0014813Y0162551D02*
X0014813Y0159481D01*
X0017883Y0159481D02*
X0017883Y0161783D01*
X0017115Y0162551D01*
X0014813Y0162551D01*
X0019417Y0162551D02*
X0019417Y0159481D01*
X0019417Y0162551D02*
X0021719Y0162551D01*
X0022486Y0161783D01*
X0022486Y0159481D01*
X0024021Y0160249D02*
X0024788Y0161016D01*
X0027090Y0161016D01*
X0027090Y0161783D02*
X0027090Y0159481D01*
X0024788Y0159481D01*
X0024021Y0160249D01*
X0024788Y0162551D02*
X0026323Y0162551D01*
X0027090Y0161783D01*
X0028625Y0161783D02*
X0029392Y0162551D01*
X0030927Y0162551D01*
X0031694Y0161783D01*
X0031694Y0159481D01*
X0028625Y0159481D02*
X0028625Y0164085D01*
X0039368Y0156585D02*
X0039368Y0151981D01*
X0040902Y0151981D02*
X0037833Y0151981D01*
X0042437Y0151981D02*
X0042437Y0152749D01*
X0045506Y0155818D01*
X0045506Y0156585D01*
X0042437Y0156585D01*
X0051645Y0156585D02*
X0052412Y0157353D01*
X0053947Y0155818D01*
X0054714Y0156585D01*
D14*
X0111417Y0194903D02*
X0111417Y0197903D01*
X0111417Y0200903D01*
X0113417Y0200903D02*
X0113417Y0197903D01*
X0113417Y0194903D01*
X0134629Y0194389D02*
X0134629Y0197389D01*
X0134629Y0200389D01*
X0136629Y0200389D02*
X0136629Y0197389D01*
X0136629Y0194389D01*
X0100333Y0067275D02*
X0100141Y0067273D01*
X0099949Y0067266D01*
X0099757Y0067254D01*
X0099565Y0067238D01*
X0099374Y0067217D01*
X0099184Y0067192D01*
X0098994Y0067162D01*
X0098805Y0067128D01*
X0098617Y0067089D01*
X0098430Y0067045D01*
X0098244Y0066997D01*
X0098059Y0066945D01*
X0097875Y0066888D01*
X0097693Y0066827D01*
X0097513Y0066761D01*
X0097334Y0066691D01*
X0097156Y0066617D01*
X0096981Y0066539D01*
X0096807Y0066456D01*
X0096636Y0066369D01*
X0096467Y0066279D01*
X0096300Y0066184D01*
X0096135Y0066085D01*
X0095972Y0065982D01*
X0095813Y0065875D01*
X0095655Y0065765D01*
X0095501Y0065651D01*
X0095349Y0065533D01*
X0095200Y0065411D01*
X0095054Y0065286D01*
X0094912Y0065158D01*
X0094772Y0065026D01*
X0094635Y0064891D01*
X0094502Y0064752D01*
X0094372Y0064611D01*
X0094246Y0064466D01*
X0094123Y0064318D01*
X0094004Y0064168D01*
X0093888Y0064014D01*
X0093776Y0063858D01*
X0093668Y0063699D01*
X0093563Y0063538D01*
X0093463Y0063374D01*
X0093367Y0063208D01*
X0093274Y0063040D01*
X0093386Y0055306D02*
X0093485Y0055137D01*
X0093589Y0054971D01*
X0093696Y0054807D01*
X0093807Y0054646D01*
X0093922Y0054488D01*
X0094041Y0054333D01*
X0094164Y0054180D01*
X0094290Y0054031D01*
X0094420Y0053885D01*
X0094554Y0053742D01*
X0094691Y0053602D01*
X0094831Y0053466D01*
X0094975Y0053333D01*
X0095122Y0053204D01*
X0095272Y0053078D01*
X0095425Y0052957D01*
X0095581Y0052838D01*
X0095740Y0052724D01*
X0095901Y0052614D01*
X0096066Y0052508D01*
X0096232Y0052405D01*
X0096402Y0052307D01*
X0096573Y0052213D01*
X0096747Y0052123D01*
X0096923Y0052038D01*
X0097101Y0051956D01*
X0097281Y0051880D01*
X0097463Y0051807D01*
X0097646Y0051739D01*
X0097831Y0051676D01*
X0098018Y0051617D01*
X0098206Y0051563D01*
X0098395Y0051513D01*
X0098585Y0051468D01*
X0098777Y0051428D01*
X0098969Y0051392D01*
X0099162Y0051361D01*
X0099356Y0051335D01*
X0099551Y0051313D01*
X0099746Y0051297D01*
X0099941Y0051285D01*
X0100137Y0051277D01*
X0100332Y0051275D01*
X0100333Y0051275D02*
X0100526Y0051277D01*
X0100719Y0051284D01*
X0100911Y0051296D01*
X0101104Y0051312D01*
X0101296Y0051333D01*
X0101487Y0051359D01*
X0101677Y0051389D01*
X0101867Y0051424D01*
X0102056Y0051463D01*
X0102244Y0051507D01*
X0102431Y0051555D01*
X0102617Y0051608D01*
X0102801Y0051665D01*
X0102984Y0051727D01*
X0103165Y0051793D01*
X0103345Y0051864D01*
X0103523Y0051938D01*
X0103699Y0052017D01*
X0103873Y0052101D01*
X0104045Y0052188D01*
X0104215Y0052280D01*
X0104382Y0052376D01*
X0104548Y0052475D01*
X0104711Y0052579D01*
X0104871Y0052686D01*
X0105028Y0052798D01*
X0105183Y0052913D01*
X0105335Y0053032D01*
X0105484Y0053154D01*
X0105631Y0053280D01*
X0105774Y0053410D01*
X0105914Y0053543D01*
X0106050Y0053679D01*
X0106184Y0053819D01*
X0106313Y0053961D01*
X0106440Y0054107D01*
X0106478Y0064397D02*
X0106351Y0064545D01*
X0106221Y0064690D01*
X0106088Y0064831D01*
X0105951Y0064970D01*
X0105811Y0065105D01*
X0105667Y0065236D01*
X0105520Y0065364D01*
X0105371Y0065489D01*
X0105218Y0065610D01*
X0105063Y0065727D01*
X0104904Y0065840D01*
X0104743Y0065949D01*
X0104579Y0066054D01*
X0104413Y0066156D01*
X0104244Y0066253D01*
X0104074Y0066346D01*
X0103900Y0066435D01*
X0103725Y0066520D01*
X0103548Y0066600D01*
X0103369Y0066676D01*
X0103188Y0066748D01*
X0103005Y0066815D01*
X0102821Y0066878D01*
X0102635Y0066936D01*
X0102448Y0066990D01*
X0102260Y0067039D01*
X0102070Y0067084D01*
X0101880Y0067124D01*
X0101688Y0067159D01*
X0101496Y0067190D01*
X0101303Y0067216D01*
X0101109Y0067237D01*
X0100915Y0067254D01*
X0100721Y0067266D01*
X0100527Y0067273D01*
X0100332Y0067275D01*
X0105843Y0034957D02*
X0105716Y0034811D01*
X0105587Y0034669D01*
X0105453Y0034529D01*
X0105317Y0034393D01*
X0105177Y0034260D01*
X0105034Y0034130D01*
X0104887Y0034004D01*
X0104738Y0033882D01*
X0104586Y0033763D01*
X0104431Y0033648D01*
X0104274Y0033536D01*
X0104114Y0033429D01*
X0103951Y0033325D01*
X0103785Y0033226D01*
X0103618Y0033130D01*
X0103448Y0033038D01*
X0103276Y0032951D01*
X0103102Y0032867D01*
X0102926Y0032788D01*
X0102748Y0032714D01*
X0102568Y0032643D01*
X0102387Y0032577D01*
X0102204Y0032515D01*
X0102020Y0032458D01*
X0101834Y0032405D01*
X0101647Y0032357D01*
X0101459Y0032313D01*
X0101270Y0032274D01*
X0101080Y0032239D01*
X0100890Y0032209D01*
X0100699Y0032183D01*
X0100507Y0032162D01*
X0100314Y0032146D01*
X0100122Y0032134D01*
X0099929Y0032127D01*
X0099736Y0032125D01*
X0092677Y0043890D02*
X0092770Y0044058D01*
X0092866Y0044224D01*
X0092966Y0044388D01*
X0093071Y0044549D01*
X0093179Y0044708D01*
X0093291Y0044864D01*
X0093407Y0045018D01*
X0093526Y0045168D01*
X0093649Y0045316D01*
X0093775Y0045461D01*
X0093905Y0045602D01*
X0094038Y0045741D01*
X0094175Y0045876D01*
X0094315Y0046008D01*
X0094457Y0046136D01*
X0094603Y0046261D01*
X0094752Y0046383D01*
X0094904Y0046501D01*
X0095058Y0046615D01*
X0095216Y0046725D01*
X0095375Y0046832D01*
X0095538Y0046935D01*
X0095703Y0047034D01*
X0095870Y0047129D01*
X0096039Y0047219D01*
X0096210Y0047306D01*
X0096384Y0047389D01*
X0096559Y0047467D01*
X0096737Y0047541D01*
X0096916Y0047611D01*
X0097096Y0047677D01*
X0097278Y0047738D01*
X0097462Y0047795D01*
X0097647Y0047847D01*
X0097833Y0047895D01*
X0098020Y0047939D01*
X0098208Y0047978D01*
X0098397Y0048012D01*
X0098587Y0048042D01*
X0098777Y0048067D01*
X0098968Y0048088D01*
X0099160Y0048104D01*
X0099352Y0048116D01*
X0099544Y0048123D01*
X0099736Y0048125D01*
X0092790Y0036156D02*
X0092889Y0035987D01*
X0092993Y0035821D01*
X0093100Y0035657D01*
X0093211Y0035496D01*
X0093326Y0035338D01*
X0093445Y0035183D01*
X0093568Y0035030D01*
X0093694Y0034881D01*
X0093824Y0034735D01*
X0093958Y0034592D01*
X0094095Y0034452D01*
X0094235Y0034316D01*
X0094379Y0034183D01*
X0094526Y0034054D01*
X0094676Y0033928D01*
X0094829Y0033807D01*
X0094985Y0033688D01*
X0095144Y0033574D01*
X0095305Y0033464D01*
X0095470Y0033358D01*
X0095636Y0033255D01*
X0095806Y0033157D01*
X0095977Y0033063D01*
X0096151Y0032973D01*
X0096327Y0032888D01*
X0096505Y0032806D01*
X0096685Y0032730D01*
X0096867Y0032657D01*
X0097050Y0032589D01*
X0097235Y0032526D01*
X0097422Y0032467D01*
X0097610Y0032413D01*
X0097799Y0032363D01*
X0097989Y0032318D01*
X0098181Y0032278D01*
X0098373Y0032242D01*
X0098566Y0032211D01*
X0098760Y0032185D01*
X0098955Y0032163D01*
X0099150Y0032147D01*
X0099345Y0032135D01*
X0099541Y0032127D01*
X0099736Y0032125D01*
X0105882Y0045247D02*
X0105755Y0045395D01*
X0105625Y0045540D01*
X0105492Y0045681D01*
X0105355Y0045820D01*
X0105215Y0045955D01*
X0105071Y0046086D01*
X0104924Y0046214D01*
X0104775Y0046339D01*
X0104622Y0046460D01*
X0104467Y0046577D01*
X0104308Y0046690D01*
X0104147Y0046799D01*
X0103983Y0046904D01*
X0103817Y0047006D01*
X0103648Y0047103D01*
X0103478Y0047196D01*
X0103304Y0047285D01*
X0103129Y0047370D01*
X0102952Y0047450D01*
X0102773Y0047526D01*
X0102592Y0047598D01*
X0102409Y0047665D01*
X0102225Y0047728D01*
X0102039Y0047786D01*
X0101852Y0047840D01*
X0101664Y0047889D01*
X0101474Y0047934D01*
X0101284Y0047974D01*
X0101092Y0048009D01*
X0100900Y0048040D01*
X0100707Y0048066D01*
X0100513Y0048087D01*
X0100319Y0048104D01*
X0100125Y0048116D01*
X0099931Y0048123D01*
X0099736Y0048125D01*
X0088217Y0023584D02*
X0085217Y0023584D01*
X0082217Y0023584D01*
X0082217Y0021584D02*
X0085217Y0021584D01*
X0088217Y0021584D01*
X0029574Y0045933D02*
X0029574Y0048933D01*
X0029574Y0051933D01*
X0027574Y0051933D02*
X0027574Y0048933D01*
X0027574Y0045933D01*
D15*
X0051591Y0102372D03*
X0179843Y0055860D03*
D16*
X0070974Y0025385D02*
X0070974Y0020385D01*
X0070974Y0025385D02*
X0030974Y0025385D01*
X0030974Y0020385D01*
X0030974Y0010385D02*
X0030974Y0005385D01*
X0070974Y0005385D01*
X0070974Y0010385D01*
X0062021Y0193551D02*
X0057021Y0193551D01*
X0054521Y0196051D01*
X0052021Y0193551D01*
X0047021Y0193551D01*
X0044521Y0196051D01*
X0042021Y0193551D01*
X0037021Y0193551D01*
X0034521Y0196051D01*
X0032021Y0193551D01*
X0027021Y0193551D01*
X0024521Y0196051D01*
X0022021Y0193551D01*
X0017021Y0193551D01*
X0014521Y0196051D01*
X0012021Y0193551D01*
X0007021Y0193551D01*
X0004521Y0196051D01*
X0004521Y0201051D01*
X0007021Y0203551D01*
X0012021Y0203551D01*
X0014521Y0201051D01*
X0017021Y0203551D01*
X0022021Y0203551D01*
X0024521Y0201051D01*
X0027021Y0203551D01*
X0032021Y0203551D01*
X0034521Y0201051D01*
X0037021Y0203551D01*
X0042021Y0203551D01*
X0044521Y0201051D01*
X0047021Y0203551D01*
X0052021Y0203551D01*
X0054521Y0201051D01*
X0057021Y0203551D01*
X0062021Y0203551D01*
X0064521Y0201051D01*
X0064521Y0196051D01*
X0062021Y0193551D01*
D17*
X0072785Y0119432D02*
X0095785Y0119432D01*
X0096004Y0119429D01*
X0096223Y0119421D01*
X0096442Y0119408D01*
X0096660Y0119389D01*
X0096878Y0119365D01*
X0097095Y0119336D01*
X0097312Y0119302D01*
X0097527Y0119262D01*
X0097742Y0119217D01*
X0097955Y0119166D01*
X0098167Y0119111D01*
X0098378Y0119050D01*
X0098587Y0118985D01*
X0098794Y0118914D01*
X0099000Y0118838D01*
X0099204Y0118757D01*
X0099406Y0118672D01*
X0099605Y0118581D01*
X0099802Y0118486D01*
X0099997Y0118385D01*
X0100190Y0118280D01*
X0100380Y0118171D01*
X0100567Y0118057D01*
X0100751Y0117938D01*
X0100932Y0117815D01*
X0101110Y0117687D01*
X0101286Y0117555D01*
X0101457Y0117419D01*
X0101626Y0117279D01*
X0101791Y0117135D01*
X0101952Y0116987D01*
X0102110Y0116835D01*
X0102264Y0116679D01*
X0102414Y0116519D01*
X0102561Y0116356D01*
X0102703Y0116189D01*
X0102841Y0116019D01*
X0102975Y0115845D01*
X0103105Y0115669D01*
X0103230Y0115489D01*
X0103351Y0115306D01*
X0103467Y0115120D01*
X0103579Y0114932D01*
X0103686Y0114741D01*
X0103789Y0114547D01*
X0103887Y0114351D01*
X0103980Y0114153D01*
X0104068Y0113952D01*
X0104151Y0113749D01*
X0104230Y0113544D01*
X0104303Y0113338D01*
X0104371Y0113130D01*
X0104434Y0112920D01*
X0104492Y0112708D01*
X0104545Y0112496D01*
X0104593Y0112282D01*
X0104635Y0112067D01*
X0104672Y0111851D01*
X0104704Y0111634D01*
X0104731Y0111416D01*
X0104752Y0111198D01*
X0104768Y0110980D01*
X0104779Y0110761D01*
X0104784Y0110542D01*
X0104784Y0110322D01*
X0104779Y0110103D01*
X0104768Y0109884D01*
X0104752Y0109666D01*
X0104731Y0109448D01*
X0104704Y0109230D01*
X0104672Y0109013D01*
X0104635Y0108797D01*
X0104593Y0108582D01*
X0104545Y0108368D01*
X0104492Y0108156D01*
X0104434Y0107944D01*
X0104371Y0107734D01*
X0104303Y0107526D01*
X0104230Y0107320D01*
X0104151Y0107115D01*
X0104068Y0106912D01*
X0103980Y0106711D01*
X0103887Y0106513D01*
X0103789Y0106317D01*
X0103686Y0106123D01*
X0103579Y0105932D01*
X0103467Y0105744D01*
X0103351Y0105558D01*
X0103230Y0105375D01*
X0103105Y0105195D01*
X0102975Y0105019D01*
X0102841Y0104845D01*
X0102703Y0104675D01*
X0102561Y0104508D01*
X0102414Y0104345D01*
X0102264Y0104185D01*
X0102110Y0104029D01*
X0101952Y0103877D01*
X0101791Y0103729D01*
X0101626Y0103585D01*
X0101457Y0103445D01*
X0101286Y0103309D01*
X0101110Y0103177D01*
X0100932Y0103049D01*
X0100751Y0102926D01*
X0100567Y0102807D01*
X0100380Y0102693D01*
X0100190Y0102584D01*
X0099997Y0102479D01*
X0099802Y0102378D01*
X0099605Y0102283D01*
X0099406Y0102192D01*
X0099204Y0102107D01*
X0099000Y0102026D01*
X0098794Y0101950D01*
X0098587Y0101879D01*
X0098378Y0101814D01*
X0098167Y0101753D01*
X0097955Y0101698D01*
X0097742Y0101647D01*
X0097527Y0101602D01*
X0097312Y0101562D01*
X0097095Y0101528D01*
X0096878Y0101499D01*
X0096660Y0101475D01*
X0096442Y0101456D01*
X0096223Y0101443D01*
X0096004Y0101435D01*
X0095785Y0101432D01*
X0072785Y0101432D01*
X0072566Y0101435D01*
X0072347Y0101443D01*
X0072128Y0101456D01*
X0071910Y0101475D01*
X0071692Y0101499D01*
X0071475Y0101528D01*
X0071258Y0101562D01*
X0071043Y0101602D01*
X0070828Y0101647D01*
X0070615Y0101698D01*
X0070403Y0101753D01*
X0070192Y0101814D01*
X0069983Y0101879D01*
X0069776Y0101950D01*
X0069570Y0102026D01*
X0069366Y0102107D01*
X0069164Y0102192D01*
X0068965Y0102283D01*
X0068768Y0102378D01*
X0068573Y0102479D01*
X0068380Y0102584D01*
X0068190Y0102693D01*
X0068003Y0102807D01*
X0067819Y0102926D01*
X0067638Y0103049D01*
X0067460Y0103177D01*
X0067284Y0103309D01*
X0067113Y0103445D01*
X0066944Y0103585D01*
X0066779Y0103729D01*
X0066618Y0103877D01*
X0066460Y0104029D01*
X0066306Y0104185D01*
X0066156Y0104345D01*
X0066009Y0104508D01*
X0065867Y0104675D01*
X0065729Y0104845D01*
X0065595Y0105019D01*
X0065465Y0105195D01*
X0065340Y0105375D01*
X0065219Y0105558D01*
X0065103Y0105744D01*
X0064991Y0105932D01*
X0064884Y0106123D01*
X0064781Y0106317D01*
X0064683Y0106513D01*
X0064590Y0106711D01*
X0064502Y0106912D01*
X0064419Y0107115D01*
X0064340Y0107320D01*
X0064267Y0107526D01*
X0064199Y0107734D01*
X0064136Y0107944D01*
X0064078Y0108156D01*
X0064025Y0108368D01*
X0063977Y0108582D01*
X0063935Y0108797D01*
X0063898Y0109013D01*
X0063866Y0109230D01*
X0063839Y0109448D01*
X0063818Y0109666D01*
X0063802Y0109884D01*
X0063791Y0110103D01*
X0063786Y0110322D01*
X0063786Y0110542D01*
X0063791Y0110761D01*
X0063802Y0110980D01*
X0063818Y0111198D01*
X0063839Y0111416D01*
X0063866Y0111634D01*
X0063898Y0111851D01*
X0063935Y0112067D01*
X0063977Y0112282D01*
X0064025Y0112496D01*
X0064078Y0112708D01*
X0064136Y0112920D01*
X0064199Y0113130D01*
X0064267Y0113338D01*
X0064340Y0113544D01*
X0064419Y0113749D01*
X0064502Y0113952D01*
X0064590Y0114153D01*
X0064683Y0114351D01*
X0064781Y0114547D01*
X0064884Y0114741D01*
X0064991Y0114932D01*
X0065103Y0115120D01*
X0065219Y0115306D01*
X0065340Y0115489D01*
X0065465Y0115669D01*
X0065595Y0115845D01*
X0065729Y0116019D01*
X0065867Y0116189D01*
X0066009Y0116356D01*
X0066156Y0116519D01*
X0066306Y0116679D01*
X0066460Y0116835D01*
X0066618Y0116987D01*
X0066779Y0117135D01*
X0066944Y0117279D01*
X0067113Y0117419D01*
X0067284Y0117555D01*
X0067460Y0117687D01*
X0067638Y0117815D01*
X0067819Y0117938D01*
X0068003Y0118057D01*
X0068190Y0118171D01*
X0068380Y0118280D01*
X0068573Y0118385D01*
X0068768Y0118486D01*
X0068965Y0118581D01*
X0069164Y0118672D01*
X0069366Y0118757D01*
X0069570Y0118838D01*
X0069776Y0118914D01*
X0069983Y0118985D01*
X0070192Y0119050D01*
X0070403Y0119111D01*
X0070615Y0119166D01*
X0070828Y0119217D01*
X0071043Y0119262D01*
X0071258Y0119302D01*
X0071475Y0119336D01*
X0071692Y0119365D01*
X0071910Y0119389D01*
X0072128Y0119408D01*
X0072347Y0119421D01*
X0072566Y0119429D01*
X0072785Y0119432D01*
D18*
X0074529Y0129380D03*
X0046129Y0129380D03*
X0041284Y0081561D03*
X0036447Y0063453D03*
X0064847Y0063453D03*
X0069684Y0081561D03*
X0106123Y0015692D03*
X0134523Y0015692D03*
M02*
