G75*
%MOIN*%
%OFA0B0*%
%FSLAX25Y25*%
%IPPOS*%
%LPD*%
%AMOC8*
5,1,8,0,0,1.08239X$1,22.5*
%
%ADD10C,0.00000*%
%ADD11OC8,0.05200*%
%ADD12C,0.07500*%
%ADD13OC8,0.07500*%
%ADD14C,0.05200*%
%ADD15C,0.07400*%
%ADD16C,0.04756*%
%ADD17C,0.07600*%
%ADD18C,0.06496*%
%ADD19C,0.06600*%
%ADD20C,0.04362*%
%ADD21C,0.09449*%
%ADD22C,0.01600*%
%ADD23R,0.03562X0.03562*%
D10*
X0001800Y0007058D02*
X0001800Y0207846D01*
X0202587Y0207846D01*
X0202587Y0007058D01*
X0001800Y0007058D01*
D11*
X0014627Y0021814D03*
X0022127Y0026814D03*
X0014627Y0031814D03*
X0023574Y0048933D03*
X0033574Y0048933D03*
X0030647Y0063453D03*
X0035484Y0081561D03*
X0070647Y0063453D03*
X0075484Y0081561D03*
X0095332Y0059275D03*
X0105332Y0059275D03*
X0104736Y0040125D03*
X0094736Y0040125D03*
X0085217Y0027584D03*
X0085217Y0017584D03*
X0100323Y0015692D03*
X0140323Y0015692D03*
X0080329Y0129380D03*
X0040329Y0129380D03*
X0107417Y0197903D03*
X0117417Y0197903D03*
X0130629Y0197389D03*
X0140629Y0197389D03*
D12*
X0039591Y0102372D03*
X0167843Y0055860D03*
D13*
X0187843Y0055860D03*
X0059591Y0102372D03*
D14*
X0120607Y0103082D02*
X0125807Y0103082D01*
X0125807Y0093082D02*
X0120607Y0093082D01*
X0120607Y0083082D02*
X0125807Y0083082D01*
X0125807Y0073082D02*
X0120607Y0073082D01*
X0120607Y0063082D02*
X0125807Y0063082D01*
X0125807Y0053082D02*
X0120607Y0053082D01*
X0150607Y0053082D02*
X0155807Y0053082D01*
X0155807Y0063082D02*
X0150607Y0063082D01*
X0150607Y0073082D02*
X0155807Y0073082D01*
X0155807Y0083082D02*
X0150607Y0083082D01*
X0150607Y0093082D02*
X0155807Y0093082D01*
X0155807Y0103082D02*
X0150607Y0103082D01*
X0150607Y0113082D02*
X0155807Y0113082D01*
X0155807Y0123082D02*
X0150607Y0123082D01*
X0150607Y0133082D02*
X0155807Y0133082D01*
X0155807Y0143082D02*
X0150607Y0143082D01*
X0150607Y0153082D02*
X0155807Y0153082D01*
X0155807Y0163082D02*
X0150607Y0163082D01*
X0150607Y0173082D02*
X0155807Y0173082D01*
X0155807Y0183082D02*
X0150607Y0183082D01*
X0125807Y0183082D02*
X0120607Y0183082D01*
X0120607Y0173082D02*
X0125807Y0173082D01*
X0125807Y0163082D02*
X0120607Y0163082D01*
X0120607Y0153082D02*
X0125807Y0153082D01*
X0125807Y0143082D02*
X0120607Y0143082D01*
X0120607Y0133082D02*
X0125807Y0133082D01*
X0125807Y0123082D02*
X0120607Y0123082D01*
X0120607Y0113082D02*
X0125807Y0113082D01*
D15*
X0196800Y0112058D03*
X0196800Y0102058D03*
X0196800Y0092058D03*
X0196800Y0082058D03*
X0196800Y0072058D03*
X0196800Y0122058D03*
X0196800Y0132058D03*
X0196800Y0142058D03*
X0059521Y0198551D03*
X0049521Y0198551D03*
X0039521Y0198551D03*
X0029521Y0198551D03*
X0019521Y0198551D03*
X0009521Y0198551D03*
X0006800Y0142058D03*
X0006800Y0132058D03*
X0006800Y0122058D03*
X0006800Y0112058D03*
X0006800Y0102058D03*
X0006800Y0092058D03*
X0006800Y0082058D03*
X0006800Y0072058D03*
D16*
X0074785Y0110432D03*
X0084391Y0110432D03*
X0093785Y0110432D03*
D17*
X0098994Y0094716D03*
X0098994Y0074716D03*
X0086563Y0170746D03*
X0066563Y0170746D03*
D18*
X0058848Y0018633D02*
X0058848Y0012137D01*
X0050974Y0012137D02*
X0050974Y0018633D01*
X0043100Y0018633D02*
X0043100Y0012137D01*
D19*
X0035226Y0015385D03*
X0066722Y0015385D03*
D20*
X0168800Y0035502D03*
X0171950Y0030778D03*
X0175099Y0035502D03*
X0178249Y0030778D03*
X0181399Y0035502D03*
D21*
X0189469Y0013652D03*
X0160729Y0013652D03*
D22*
X0156664Y0018248D02*
X0143989Y0018248D01*
X0144723Y0017514D02*
X0142145Y0020092D01*
X0140323Y0020092D01*
X0140323Y0015692D01*
X0140323Y0015692D01*
X0144723Y0015692D01*
X0144723Y0017514D01*
X0144723Y0016649D02*
X0155342Y0016649D01*
X0155537Y0017121D02*
X0154605Y0014870D01*
X0154605Y0012433D01*
X0155537Y0010182D01*
X0156861Y0008858D01*
X0062705Y0008858D01*
X0063166Y0009492D01*
X0063526Y0010200D01*
X0063772Y0010955D01*
X0063872Y0011589D01*
X0064060Y0011401D01*
X0065787Y0010685D01*
X0067657Y0010685D01*
X0069384Y0011401D01*
X0070707Y0012723D01*
X0071422Y0014450D01*
X0071422Y0016320D01*
X0070707Y0018048D01*
X0069384Y0019370D01*
X0067657Y0020085D01*
X0065787Y0020085D01*
X0064060Y0019370D01*
X0063872Y0019182D01*
X0063772Y0019815D01*
X0063526Y0020571D01*
X0063166Y0021279D01*
X0062699Y0021922D01*
X0062137Y0022484D01*
X0061494Y0022951D01*
X0060786Y0023312D01*
X0060030Y0023557D01*
X0059245Y0023681D01*
X0059131Y0023681D01*
X0059131Y0015668D01*
X0058565Y0015668D01*
X0058565Y0023681D01*
X0058451Y0023681D01*
X0057666Y0023557D01*
X0056910Y0023312D01*
X0056202Y0022951D01*
X0055560Y0022484D01*
X0054998Y0021922D01*
X0054687Y0021494D01*
X0053607Y0022574D01*
X0051899Y0023281D01*
X0050050Y0023281D01*
X0048341Y0022574D01*
X0047037Y0021270D01*
X0045733Y0022574D01*
X0045300Y0022753D01*
X0045300Y0036251D01*
X0084218Y0036251D01*
X0094015Y0026454D01*
X0095304Y0025165D01*
X0158763Y0025165D01*
X0162941Y0020986D01*
X0164230Y0019698D01*
X0180607Y0019698D01*
X0190821Y0029911D01*
X0193252Y0029911D01*
X0194072Y0030731D01*
X0194072Y0035453D01*
X0193252Y0036273D01*
X0188530Y0036273D01*
X0187710Y0035453D01*
X0187710Y0033023D01*
X0178785Y0024098D01*
X0166053Y0024098D01*
X0160585Y0029565D01*
X0097127Y0029565D01*
X0087330Y0039362D01*
X0086041Y0040651D01*
X0042189Y0040651D01*
X0040900Y0039362D01*
X0040900Y0022753D01*
X0040467Y0022574D01*
X0039160Y0021266D01*
X0038452Y0019558D01*
X0038452Y0018806D01*
X0037888Y0019370D01*
X0036161Y0020085D01*
X0034291Y0020085D01*
X0032564Y0019370D01*
X0031242Y0018048D01*
X0030526Y0016320D01*
X0030526Y0014450D01*
X0031242Y0012723D01*
X0032564Y0011401D01*
X0034291Y0010685D01*
X0036161Y0010685D01*
X0037888Y0011401D01*
X0038452Y0011965D01*
X0038452Y0011213D01*
X0039160Y0009504D01*
X0039806Y0008858D01*
X0003600Y0008858D01*
X0003600Y0067585D01*
X0003917Y0067354D01*
X0004689Y0066961D01*
X0005512Y0066694D01*
X0006367Y0066558D01*
X0006600Y0066558D01*
X0006600Y0071858D01*
X0007000Y0071858D01*
X0007000Y0066558D01*
X0007233Y0066558D01*
X0008088Y0066694D01*
X0008911Y0066961D01*
X0009683Y0067354D01*
X0010383Y0067863D01*
X0010995Y0068475D01*
X0011504Y0069176D01*
X0011897Y0069947D01*
X0012165Y0070770D01*
X0012300Y0071625D01*
X0012300Y0071858D01*
X0007000Y0071858D01*
X0007000Y0072258D01*
X0012300Y0072258D01*
X0012300Y0072491D01*
X0012165Y0073346D01*
X0011897Y0074170D01*
X0011504Y0074941D01*
X0010995Y0075641D01*
X0010383Y0076253D01*
X0009683Y0076762D01*
X0008911Y0077155D01*
X0008563Y0077268D01*
X0009689Y0077735D01*
X0011124Y0079169D01*
X0011900Y0081044D01*
X0011900Y0083073D01*
X0011124Y0084947D01*
X0009689Y0086382D01*
X0008056Y0087058D01*
X0009689Y0087735D01*
X0011124Y0089169D01*
X0011900Y0091044D01*
X0011900Y0093073D01*
X0011124Y0094947D01*
X0009689Y0096382D01*
X0008056Y0097058D01*
X0009689Y0097735D01*
X0011124Y0099169D01*
X0011900Y0101044D01*
X0011900Y0103073D01*
X0011124Y0104947D01*
X0009689Y0106382D01*
X0008056Y0107058D01*
X0009689Y0107735D01*
X0011124Y0109169D01*
X0011900Y0111044D01*
X0011900Y0113073D01*
X0011124Y0114947D01*
X0009689Y0116382D01*
X0008056Y0117058D01*
X0009689Y0117735D01*
X0011124Y0119169D01*
X0011900Y0121044D01*
X0011900Y0123073D01*
X0011124Y0124947D01*
X0009689Y0126382D01*
X0008056Y0127058D01*
X0009689Y0127735D01*
X0011124Y0129169D01*
X0011900Y0131044D01*
X0011900Y0133073D01*
X0011124Y0134947D01*
X0009689Y0136382D01*
X0008056Y0137058D01*
X0009689Y0137735D01*
X0011124Y0139169D01*
X0011900Y0141044D01*
X0011900Y0143073D01*
X0011124Y0144947D01*
X0009689Y0146382D01*
X0007814Y0147158D01*
X0005786Y0147158D01*
X0003911Y0146382D01*
X0003600Y0146071D01*
X0003600Y0206046D01*
X0200787Y0206046D01*
X0200787Y0168418D01*
X0200230Y0145841D01*
X0199689Y0146382D01*
X0197814Y0147158D01*
X0195786Y0147158D01*
X0193911Y0146382D01*
X0192476Y0144947D01*
X0191700Y0143073D01*
X0191700Y0141044D01*
X0192476Y0139169D01*
X0193911Y0137735D01*
X0195544Y0137058D01*
X0193911Y0136382D01*
X0192476Y0134947D01*
X0191700Y0133073D01*
X0191700Y0131044D01*
X0192476Y0129169D01*
X0193911Y0127735D01*
X0195544Y0127058D01*
X0193911Y0126382D01*
X0192476Y0124947D01*
X0191700Y0123073D01*
X0191700Y0121044D01*
X0192476Y0119169D01*
X0193911Y0117735D01*
X0195544Y0117058D01*
X0193911Y0116382D01*
X0192476Y0114947D01*
X0191700Y0113073D01*
X0191700Y0111044D01*
X0192476Y0109169D01*
X0193911Y0107735D01*
X0195544Y0107058D01*
X0193911Y0106382D01*
X0192476Y0104947D01*
X0191700Y0103073D01*
X0191700Y0101044D01*
X0192476Y0099169D01*
X0193911Y0097735D01*
X0195544Y0097058D01*
X0193911Y0096382D01*
X0192476Y0094947D01*
X0191700Y0093073D01*
X0191700Y0091044D01*
X0192476Y0089169D01*
X0193911Y0087735D01*
X0195544Y0087058D01*
X0193911Y0086382D01*
X0192476Y0084947D01*
X0191700Y0083073D01*
X0191700Y0081044D01*
X0192476Y0079169D01*
X0193911Y0077735D01*
X0195037Y0077268D01*
X0194689Y0077155D01*
X0193917Y0076762D01*
X0193217Y0076253D01*
X0192605Y0075641D01*
X0192096Y0074941D01*
X0191703Y0074170D01*
X0191435Y0073346D01*
X0191300Y0072491D01*
X0191300Y0072258D01*
X0196600Y0072258D01*
X0196600Y0071858D01*
X0197000Y0071858D01*
X0197000Y0066558D01*
X0197233Y0066558D01*
X0198088Y0066694D01*
X0198275Y0066755D01*
X0196844Y0008858D01*
X0193337Y0008858D01*
X0194661Y0010182D01*
X0195594Y0012433D01*
X0195594Y0014870D01*
X0194661Y0017121D01*
X0192939Y0018844D01*
X0190688Y0019776D01*
X0188251Y0019776D01*
X0186000Y0018844D01*
X0184277Y0017121D01*
X0183345Y0014870D01*
X0183345Y0012433D01*
X0184277Y0010182D01*
X0185602Y0008858D01*
X0164597Y0008858D01*
X0165921Y0010182D01*
X0166854Y0012433D01*
X0166854Y0014870D01*
X0165921Y0017121D01*
X0164198Y0018844D01*
X0161947Y0019776D01*
X0159511Y0019776D01*
X0157260Y0018844D01*
X0155537Y0017121D01*
X0154680Y0015051D02*
X0144723Y0015051D01*
X0144723Y0015692D02*
X0140323Y0015692D01*
X0140323Y0015692D01*
X0140323Y0020092D01*
X0138500Y0020092D01*
X0135923Y0017514D01*
X0135923Y0015692D01*
X0140323Y0015692D01*
X0140323Y0015692D01*
X0140323Y0011292D01*
X0142145Y0011292D01*
X0144723Y0013869D01*
X0144723Y0015692D01*
X0144306Y0013452D02*
X0154605Y0013452D01*
X0154845Y0011854D02*
X0142707Y0011854D01*
X0140323Y0011854D02*
X0140323Y0011854D01*
X0140323Y0011292D02*
X0140323Y0015692D01*
X0140323Y0015692D01*
X0135923Y0015692D01*
X0135923Y0013869D01*
X0138500Y0011292D01*
X0140323Y0011292D01*
X0140323Y0013452D02*
X0140323Y0013452D01*
X0140323Y0015051D02*
X0140323Y0015051D01*
X0140323Y0016649D02*
X0140323Y0016649D01*
X0140323Y0018248D02*
X0140323Y0018248D01*
X0140323Y0019846D02*
X0140323Y0019846D01*
X0142391Y0019846D02*
X0164081Y0019846D01*
X0164794Y0018248D02*
X0185404Y0018248D01*
X0184082Y0016649D02*
X0166117Y0016649D01*
X0166779Y0015051D02*
X0183420Y0015051D01*
X0183345Y0013452D02*
X0166854Y0013452D01*
X0166614Y0011854D02*
X0183585Y0011854D01*
X0184247Y0010255D02*
X0165951Y0010255D01*
X0155507Y0010255D02*
X0063544Y0010255D01*
X0069837Y0011854D02*
X0098504Y0011854D01*
X0098666Y0011692D02*
X0101980Y0011692D01*
X0104323Y0014035D01*
X0104323Y0017349D01*
X0101980Y0019692D01*
X0098666Y0019692D01*
X0096323Y0017349D01*
X0096323Y0014035D01*
X0098666Y0011692D01*
X0096905Y0013452D02*
X0087307Y0013452D01*
X0087040Y0013184D02*
X0089617Y0015762D01*
X0089617Y0017584D01*
X0085217Y0017584D01*
X0085217Y0017584D01*
X0085217Y0013184D01*
X0083395Y0013184D01*
X0080817Y0015762D01*
X0080817Y0017584D01*
X0085217Y0017584D01*
X0085217Y0013184D01*
X0087040Y0013184D01*
X0085217Y0013452D02*
X0085217Y0013452D01*
X0085217Y0015051D02*
X0085217Y0015051D01*
X0085217Y0016649D02*
X0085217Y0016649D01*
X0085217Y0017584D02*
X0085217Y0017585D01*
X0085217Y0021984D01*
X0083395Y0021984D01*
X0080817Y0019407D01*
X0080817Y0017585D01*
X0085217Y0017585D01*
X0085217Y0017585D01*
X0085217Y0021984D01*
X0087040Y0021984D01*
X0089617Y0019407D01*
X0089617Y0017585D01*
X0085217Y0017585D01*
X0085217Y0017584D01*
X0085217Y0018248D02*
X0085217Y0018248D01*
X0085217Y0019846D02*
X0085217Y0019846D01*
X0085217Y0021445D02*
X0085217Y0021445D01*
X0082855Y0021445D02*
X0063045Y0021445D01*
X0063762Y0019846D02*
X0065210Y0019846D01*
X0068234Y0019846D02*
X0081256Y0019846D01*
X0080817Y0018248D02*
X0070506Y0018248D01*
X0071286Y0016649D02*
X0080817Y0016649D01*
X0081528Y0015051D02*
X0071422Y0015051D01*
X0071009Y0013452D02*
X0083127Y0013452D01*
X0088906Y0015051D02*
X0096323Y0015051D01*
X0096323Y0016649D02*
X0089617Y0016649D01*
X0089617Y0018248D02*
X0097222Y0018248D01*
X0103424Y0018248D02*
X0136656Y0018248D01*
X0135923Y0016649D02*
X0104323Y0016649D01*
X0104323Y0015051D02*
X0135923Y0015051D01*
X0136340Y0013452D02*
X0103740Y0013452D01*
X0102142Y0011854D02*
X0137938Y0011854D01*
X0138255Y0019846D02*
X0089178Y0019846D01*
X0087579Y0021445D02*
X0162483Y0021445D01*
X0160884Y0023043D02*
X0061312Y0023043D01*
X0059131Y0023043D02*
X0058565Y0023043D01*
X0058565Y0021445D02*
X0059131Y0021445D01*
X0059131Y0019846D02*
X0058565Y0019846D01*
X0058565Y0018248D02*
X0059131Y0018248D01*
X0059131Y0016649D02*
X0058565Y0016649D01*
X0056384Y0023043D02*
X0052473Y0023043D01*
X0049475Y0023043D02*
X0045300Y0023043D01*
X0045300Y0024642D02*
X0082503Y0024642D01*
X0083560Y0023584D02*
X0086874Y0023584D01*
X0089217Y0025928D01*
X0089217Y0029241D01*
X0086874Y0031584D01*
X0083560Y0031584D01*
X0081217Y0029241D01*
X0081217Y0025928D01*
X0083560Y0023584D01*
X0081217Y0026240D02*
X0045300Y0026240D01*
X0045300Y0027839D02*
X0081217Y0027839D01*
X0081413Y0029437D02*
X0045300Y0029437D01*
X0045300Y0031036D02*
X0083012Y0031036D01*
X0087423Y0031036D02*
X0089433Y0031036D01*
X0089021Y0029437D02*
X0091032Y0029437D01*
X0092630Y0027839D02*
X0089217Y0027839D01*
X0089217Y0026240D02*
X0094229Y0026240D01*
X0094015Y0026454D02*
X0094015Y0026454D01*
X0096215Y0027365D02*
X0159674Y0027365D01*
X0165141Y0021898D01*
X0179696Y0021898D01*
X0190891Y0033092D01*
X0190347Y0029437D02*
X0197353Y0029437D01*
X0197314Y0027839D02*
X0188749Y0027839D01*
X0187150Y0026240D02*
X0197274Y0026240D01*
X0197235Y0024642D02*
X0185552Y0024642D01*
X0183953Y0023043D02*
X0197195Y0023043D01*
X0197156Y0021445D02*
X0182355Y0021445D01*
X0180756Y0019846D02*
X0197116Y0019846D01*
X0197077Y0018248D02*
X0193534Y0018248D01*
X0194857Y0016649D02*
X0197037Y0016649D01*
X0196998Y0015051D02*
X0195519Y0015051D01*
X0195594Y0013452D02*
X0196958Y0013452D01*
X0196919Y0011854D02*
X0195354Y0011854D01*
X0194692Y0010255D02*
X0196879Y0010255D01*
X0180928Y0026240D02*
X0163910Y0026240D01*
X0164490Y0027768D02*
X0163201Y0029057D01*
X0140833Y0051425D01*
X0140833Y0115230D01*
X0142122Y0116519D01*
X0142122Y0116519D01*
X0146983Y0121380D01*
X0146607Y0122287D01*
X0146607Y0123878D01*
X0147216Y0125348D01*
X0129198Y0125348D01*
X0128073Y0126474D01*
X0126603Y0127082D01*
X0119811Y0127082D01*
X0118341Y0126474D01*
X0117216Y0125348D01*
X0042529Y0125348D01*
X0042529Y0125923D02*
X0044329Y0127723D01*
X0044329Y0131036D01*
X0041986Y0133380D01*
X0038673Y0133380D01*
X0036329Y0131036D01*
X0036329Y0127723D01*
X0038129Y0125923D01*
X0038129Y0107341D01*
X0036674Y0106738D01*
X0035225Y0105289D01*
X0034441Y0103396D01*
X0034441Y0101347D01*
X0035225Y0099455D01*
X0036674Y0098006D01*
X0037391Y0097709D01*
X0037391Y0090543D01*
X0034978Y0085561D01*
X0033828Y0085561D01*
X0031927Y0083660D01*
X0031083Y0083636D01*
X0030203Y0083636D01*
X0030177Y0083611D01*
X0030141Y0083610D01*
X0029536Y0082970D01*
X0023253Y0076687D01*
X0021964Y0075398D01*
X0021964Y0052933D01*
X0021917Y0052933D01*
X0019574Y0050590D01*
X0019574Y0047276D01*
X0021917Y0044933D01*
X0025230Y0044933D01*
X0027574Y0047276D01*
X0027574Y0050590D01*
X0026364Y0051799D01*
X0026364Y0061513D01*
X0028824Y0059053D01*
X0030647Y0059053D01*
X0032469Y0059053D01*
X0035047Y0061630D01*
X0035047Y0063453D01*
X0035047Y0065275D01*
X0032469Y0067853D01*
X0030647Y0067853D01*
X0030647Y0063453D01*
X0030647Y0063453D01*
X0035047Y0063453D01*
X0030647Y0063453D01*
X0030647Y0063453D01*
X0030647Y0067853D01*
X0028824Y0067853D01*
X0026364Y0065393D01*
X0026364Y0073575D01*
X0032051Y0079262D01*
X0032124Y0079264D01*
X0033828Y0077561D01*
X0037141Y0077561D01*
X0039484Y0079904D01*
X0039484Y0083218D01*
X0038977Y0083725D01*
X0041409Y0088745D01*
X0041791Y0089127D01*
X0041791Y0089533D01*
X0041968Y0089899D01*
X0041791Y0090409D01*
X0041791Y0097709D01*
X0042508Y0098006D01*
X0043957Y0099455D01*
X0044741Y0101347D01*
X0044741Y0103396D01*
X0043957Y0105289D01*
X0042529Y0106717D01*
X0042529Y0125923D01*
X0043553Y0126947D02*
X0077106Y0126947D01*
X0076329Y0127723D02*
X0078673Y0125380D01*
X0081986Y0125380D01*
X0084329Y0127723D01*
X0084329Y0131036D01*
X0081986Y0133380D01*
X0078673Y0133380D01*
X0076329Y0131036D01*
X0076329Y0127723D01*
X0076329Y0128545D02*
X0044329Y0128545D01*
X0044329Y0130144D02*
X0076329Y0130144D01*
X0077035Y0131742D02*
X0043624Y0131742D01*
X0042025Y0133341D02*
X0078634Y0133341D01*
X0082025Y0133341D02*
X0116607Y0133341D01*
X0116607Y0133878D02*
X0116607Y0132287D01*
X0117216Y0130817D01*
X0118341Y0129691D01*
X0119811Y0129082D01*
X0126603Y0129082D01*
X0128073Y0129691D01*
X0129198Y0130817D01*
X0129807Y0132287D01*
X0129807Y0133878D01*
X0129198Y0135348D01*
X0128073Y0136474D01*
X0126603Y0137082D01*
X0119811Y0137082D01*
X0118341Y0136474D01*
X0117216Y0135348D01*
X0116607Y0133878D01*
X0117047Y0134939D02*
X0011127Y0134939D01*
X0011789Y0133341D02*
X0038634Y0133341D01*
X0037035Y0131742D02*
X0011900Y0131742D01*
X0011527Y0130144D02*
X0036329Y0130144D01*
X0036329Y0128545D02*
X0010499Y0128545D01*
X0008325Y0126947D02*
X0037106Y0126947D01*
X0038129Y0125348D02*
X0010723Y0125348D01*
X0011620Y0123750D02*
X0038129Y0123750D01*
X0038129Y0122151D02*
X0011900Y0122151D01*
X0011697Y0120553D02*
X0038129Y0120553D01*
X0038129Y0118954D02*
X0010908Y0118954D01*
X0008774Y0117356D02*
X0038129Y0117356D01*
X0038129Y0115757D02*
X0010314Y0115757D01*
X0011450Y0114159D02*
X0038129Y0114159D01*
X0038129Y0112560D02*
X0011900Y0112560D01*
X0011866Y0110961D02*
X0038129Y0110961D01*
X0038129Y0109363D02*
X0011204Y0109363D01*
X0009719Y0107764D02*
X0038129Y0107764D01*
X0036102Y0106166D02*
X0009905Y0106166D01*
X0011281Y0104567D02*
X0034926Y0104567D01*
X0034441Y0102969D02*
X0011900Y0102969D01*
X0011900Y0101370D02*
X0034441Y0101370D01*
X0035094Y0099772D02*
X0011373Y0099772D01*
X0010128Y0098173D02*
X0036506Y0098173D01*
X0037391Y0096575D02*
X0009223Y0096575D01*
X0011094Y0094976D02*
X0037391Y0094976D01*
X0037391Y0093378D02*
X0011774Y0093378D01*
X0011900Y0091779D02*
X0037391Y0091779D01*
X0037216Y0090181D02*
X0011543Y0090181D01*
X0010537Y0088582D02*
X0036441Y0088582D01*
X0035667Y0086984D02*
X0008236Y0086984D01*
X0010685Y0085385D02*
X0033652Y0085385D01*
X0032054Y0083787D02*
X0011604Y0083787D01*
X0011900Y0082188D02*
X0028755Y0082188D01*
X0027156Y0080590D02*
X0011712Y0080590D01*
X0010945Y0078991D02*
X0025558Y0078991D01*
X0023959Y0077393D02*
X0008863Y0077393D01*
X0010842Y0075794D02*
X0022361Y0075794D01*
X0021964Y0074196D02*
X0011884Y0074196D01*
X0012283Y0072597D02*
X0021964Y0072597D01*
X0021964Y0070999D02*
X0012201Y0070999D01*
X0011618Y0069400D02*
X0021964Y0069400D01*
X0021964Y0067802D02*
X0010298Y0067802D01*
X0007000Y0067802D02*
X0006600Y0067802D01*
X0006600Y0069400D02*
X0007000Y0069400D01*
X0007000Y0070999D02*
X0006600Y0070999D01*
X0003600Y0066203D02*
X0021964Y0066203D01*
X0021964Y0064605D02*
X0003600Y0064605D01*
X0003600Y0063006D02*
X0021964Y0063006D01*
X0021964Y0061408D02*
X0003600Y0061408D01*
X0003600Y0059809D02*
X0021964Y0059809D01*
X0021964Y0058211D02*
X0003600Y0058211D01*
X0003600Y0056612D02*
X0021964Y0056612D01*
X0021964Y0055014D02*
X0003600Y0055014D01*
X0003600Y0053415D02*
X0021964Y0053415D01*
X0020801Y0051817D02*
X0003600Y0051817D01*
X0003600Y0050218D02*
X0019574Y0050218D01*
X0019574Y0048620D02*
X0003600Y0048620D01*
X0003600Y0047021D02*
X0019828Y0047021D01*
X0021427Y0045423D02*
X0003600Y0045423D01*
X0003600Y0043824D02*
X0092778Y0043824D01*
X0093079Y0044125D02*
X0090736Y0041781D01*
X0090736Y0038468D01*
X0093079Y0036125D01*
X0096393Y0036125D01*
X0098736Y0038468D01*
X0098736Y0041781D01*
X0096393Y0044125D01*
X0093079Y0044125D01*
X0091180Y0042225D02*
X0003600Y0042225D01*
X0003600Y0040627D02*
X0042165Y0040627D01*
X0040900Y0039028D02*
X0003600Y0039028D01*
X0003600Y0037430D02*
X0040900Y0037430D01*
X0040900Y0035831D02*
X0003600Y0035831D01*
X0003600Y0034233D02*
X0011389Y0034233D01*
X0010627Y0033471D02*
X0010627Y0030157D01*
X0012970Y0027814D01*
X0016284Y0027814D01*
X0018627Y0030157D01*
X0018627Y0033471D01*
X0016284Y0035814D01*
X0012970Y0035814D01*
X0010627Y0033471D01*
X0010627Y0032634D02*
X0003600Y0032634D01*
X0003600Y0031036D02*
X0010627Y0031036D01*
X0011347Y0029437D02*
X0003600Y0029437D01*
X0003600Y0027839D02*
X0012946Y0027839D01*
X0012805Y0026214D02*
X0010227Y0023637D01*
X0010227Y0021814D01*
X0010227Y0019992D01*
X0012805Y0017414D01*
X0014627Y0017414D01*
X0014627Y0021814D01*
X0010227Y0021814D01*
X0014627Y0021814D01*
X0014627Y0021814D01*
X0014627Y0021814D01*
X0014627Y0017414D01*
X0016450Y0017414D01*
X0019027Y0019992D01*
X0019027Y0021814D01*
X0014627Y0021814D01*
X0014627Y0026214D01*
X0012805Y0026214D01*
X0014627Y0026214D02*
X0014627Y0021814D01*
X0014627Y0021814D01*
X0014627Y0021814D01*
X0019027Y0021814D01*
X0019027Y0023637D01*
X0016450Y0026214D01*
X0014627Y0026214D01*
X0014627Y0024642D02*
X0014627Y0024642D01*
X0014627Y0023043D02*
X0014627Y0023043D01*
X0014627Y0021445D02*
X0014627Y0021445D01*
X0014627Y0019846D02*
X0014627Y0019846D01*
X0014627Y0018248D02*
X0014627Y0018248D01*
X0017283Y0018248D02*
X0031442Y0018248D01*
X0030662Y0016649D02*
X0003600Y0016649D01*
X0003600Y0015051D02*
X0030526Y0015051D01*
X0030940Y0013452D02*
X0003600Y0013452D01*
X0003600Y0011854D02*
X0032111Y0011854D01*
X0038341Y0011854D02*
X0038452Y0011854D01*
X0038849Y0010255D02*
X0003600Y0010255D01*
X0003600Y0018248D02*
X0011971Y0018248D01*
X0010372Y0019846D02*
X0003600Y0019846D01*
X0003600Y0021445D02*
X0010227Y0021445D01*
X0010227Y0023043D02*
X0003600Y0023043D01*
X0003600Y0024642D02*
X0011232Y0024642D01*
X0016309Y0027839D02*
X0018127Y0027839D01*
X0018127Y0028471D02*
X0018127Y0025157D01*
X0020470Y0022814D01*
X0023784Y0022814D01*
X0026127Y0025157D01*
X0026127Y0028471D01*
X0023784Y0030814D01*
X0020470Y0030814D01*
X0018127Y0028471D01*
X0017907Y0029437D02*
X0019094Y0029437D01*
X0018627Y0031036D02*
X0040900Y0031036D01*
X0040900Y0032634D02*
X0018627Y0032634D01*
X0017865Y0034233D02*
X0040900Y0034233D01*
X0045300Y0034233D02*
X0086236Y0034233D01*
X0084638Y0035831D02*
X0045300Y0035831D01*
X0043100Y0038451D02*
X0043100Y0015385D01*
X0038572Y0019846D02*
X0036738Y0019846D01*
X0033714Y0019846D02*
X0018882Y0019846D01*
X0019027Y0021445D02*
X0039338Y0021445D01*
X0040900Y0023043D02*
X0024013Y0023043D01*
X0025612Y0024642D02*
X0040900Y0024642D01*
X0040900Y0026240D02*
X0026127Y0026240D01*
X0026127Y0027839D02*
X0040900Y0027839D01*
X0040900Y0029437D02*
X0025161Y0029437D01*
X0020241Y0023043D02*
X0019027Y0023043D01*
X0018643Y0024642D02*
X0018022Y0024642D01*
X0018127Y0026240D02*
X0003600Y0026240D01*
X0025720Y0045423D02*
X0030861Y0045423D01*
X0031751Y0044533D02*
X0033574Y0044533D01*
X0035396Y0044533D01*
X0037974Y0047110D01*
X0037974Y0048933D01*
X0037974Y0050755D01*
X0035396Y0053333D01*
X0033574Y0053333D01*
X0033574Y0048933D01*
X0037974Y0048933D01*
X0033574Y0048933D01*
X0033574Y0048933D01*
X0033574Y0048933D01*
X0033574Y0053333D01*
X0031751Y0053333D01*
X0029174Y0050755D01*
X0029174Y0048933D01*
X0033573Y0048933D01*
X0033573Y0048933D01*
X0029174Y0048933D01*
X0029174Y0047110D01*
X0031751Y0044533D01*
X0033574Y0044533D02*
X0033574Y0048933D01*
X0033574Y0044533D01*
X0033574Y0045423D02*
X0033574Y0045423D01*
X0033574Y0047021D02*
X0033574Y0047021D01*
X0033574Y0048620D02*
X0033574Y0048620D01*
X0033574Y0048933D02*
X0033574Y0048933D01*
X0033574Y0050218D02*
X0033574Y0050218D01*
X0033574Y0051817D02*
X0033574Y0051817D01*
X0036912Y0051817D02*
X0116802Y0051817D01*
X0116607Y0052287D02*
X0117216Y0050817D01*
X0118341Y0049691D01*
X0119811Y0049082D01*
X0126603Y0049082D01*
X0128073Y0049691D01*
X0129198Y0050817D01*
X0129807Y0052287D01*
X0129807Y0053878D01*
X0129198Y0055348D01*
X0128073Y0056474D01*
X0126603Y0057082D01*
X0119811Y0057082D01*
X0118341Y0056474D01*
X0117216Y0055348D01*
X0116607Y0053878D01*
X0116607Y0052287D01*
X0116607Y0053415D02*
X0026364Y0053415D01*
X0026364Y0051817D02*
X0030235Y0051817D01*
X0029174Y0050218D02*
X0027574Y0050218D01*
X0027574Y0048620D02*
X0029174Y0048620D01*
X0029263Y0047021D02*
X0027319Y0047021D01*
X0024164Y0049523D02*
X0023574Y0048933D01*
X0024164Y0049523D02*
X0024164Y0074487D01*
X0031114Y0081436D01*
X0035484Y0081561D01*
X0039591Y0090038D01*
X0039591Y0102372D01*
X0040329Y0103110D01*
X0040329Y0129380D01*
X0042529Y0123750D02*
X0116607Y0123750D01*
X0116607Y0123878D02*
X0116607Y0122287D01*
X0117216Y0120817D01*
X0118341Y0119691D01*
X0119811Y0119082D01*
X0126603Y0119082D01*
X0128073Y0119691D01*
X0129198Y0120817D01*
X0129807Y0122287D01*
X0129807Y0123878D01*
X0129198Y0125348D01*
X0129807Y0123750D02*
X0146607Y0123750D01*
X0146663Y0122151D02*
X0129751Y0122151D01*
X0128934Y0120553D02*
X0146156Y0120553D01*
X0144557Y0118954D02*
X0042529Y0118954D01*
X0042529Y0117356D02*
X0119520Y0117356D01*
X0119577Y0117374D02*
X0118918Y0117160D01*
X0118301Y0116846D01*
X0117741Y0116439D01*
X0117251Y0115949D01*
X0116844Y0115389D01*
X0116529Y0114771D01*
X0116315Y0114113D01*
X0116207Y0113429D01*
X0116207Y0113083D01*
X0123207Y0113083D01*
X0123207Y0117482D01*
X0120261Y0117482D01*
X0119577Y0117374D01*
X0117112Y0115757D02*
X0042529Y0115757D01*
X0042529Y0114159D02*
X0073909Y0114159D01*
X0074033Y0114210D02*
X0072645Y0113635D01*
X0071582Y0112572D01*
X0071007Y0111184D01*
X0071007Y0109681D01*
X0071582Y0108292D01*
X0072645Y0107229D01*
X0074033Y0106654D01*
X0075536Y0106654D01*
X0076925Y0107229D01*
X0077988Y0108292D01*
X0078563Y0109681D01*
X0078563Y0111184D01*
X0077988Y0112572D01*
X0076925Y0113635D01*
X0075536Y0114210D01*
X0074033Y0114210D01*
X0075661Y0114159D02*
X0082502Y0114159D01*
X0082787Y0114304D02*
X0082201Y0114005D01*
X0081669Y0113619D01*
X0081204Y0113154D01*
X0080818Y0112622D01*
X0080519Y0112036D01*
X0080316Y0111410D01*
X0080213Y0110761D01*
X0080213Y0110432D01*
X0080213Y0110103D01*
X0080316Y0109454D01*
X0080519Y0108828D01*
X0080818Y0108242D01*
X0081204Y0107710D01*
X0081669Y0107245D01*
X0082201Y0106859D01*
X0082787Y0106560D01*
X0083413Y0106357D01*
X0084062Y0106254D01*
X0084391Y0106254D01*
X0084391Y0110432D01*
X0080213Y0110432D01*
X0084391Y0110432D01*
X0084391Y0110432D01*
X0084391Y0110432D01*
X0084391Y0106254D01*
X0084720Y0106254D01*
X0085369Y0106357D01*
X0085995Y0106560D01*
X0086581Y0106859D01*
X0087113Y0107245D01*
X0087578Y0107710D01*
X0087964Y0108242D01*
X0088263Y0108828D01*
X0088466Y0109454D01*
X0088569Y0110103D01*
X0088569Y0110432D01*
X0084391Y0110432D01*
X0084391Y0114610D01*
X0084062Y0114610D01*
X0083413Y0114507D01*
X0082787Y0114304D01*
X0084391Y0114159D02*
X0084391Y0114159D01*
X0084391Y0114610D02*
X0084720Y0114610D01*
X0085369Y0114507D01*
X0085995Y0114304D01*
X0086581Y0114005D01*
X0087113Y0113619D01*
X0087578Y0113154D01*
X0087964Y0112622D01*
X0088263Y0112036D01*
X0088466Y0111410D01*
X0088569Y0110761D01*
X0088569Y0110432D01*
X0084391Y0110432D01*
X0084391Y0110432D01*
X0084391Y0110432D01*
X0084391Y0114610D01*
X0086280Y0114159D02*
X0092909Y0114159D01*
X0093033Y0114210D02*
X0091645Y0113635D01*
X0090582Y0112572D01*
X0090007Y0111184D01*
X0090007Y0109681D01*
X0090582Y0108292D01*
X0091645Y0107229D01*
X0093033Y0106654D01*
X0094536Y0106654D01*
X0095925Y0107229D01*
X0096988Y0108292D01*
X0097563Y0109681D01*
X0097563Y0111184D01*
X0096988Y0112572D01*
X0095925Y0113635D01*
X0094536Y0114210D01*
X0093033Y0114210D01*
X0094661Y0114159D02*
X0116330Y0114159D01*
X0116207Y0113082D02*
X0116207Y0112736D01*
X0116315Y0112052D01*
X0116529Y0111393D01*
X0116844Y0110776D01*
X0117251Y0110216D01*
X0117741Y0109726D01*
X0118301Y0109319D01*
X0118918Y0109005D01*
X0119577Y0108791D01*
X0120261Y0108682D01*
X0123207Y0108682D01*
X0123207Y0113082D01*
X0123207Y0113082D01*
X0123207Y0108682D01*
X0126153Y0108682D01*
X0126837Y0108791D01*
X0127496Y0109005D01*
X0128113Y0109319D01*
X0128673Y0109726D01*
X0129163Y0110216D01*
X0129570Y0110776D01*
X0129885Y0111393D01*
X0130099Y0112052D01*
X0130207Y0112736D01*
X0130207Y0113082D01*
X0123207Y0113082D01*
X0116207Y0113082D01*
X0116235Y0112560D02*
X0096993Y0112560D01*
X0097563Y0110961D02*
X0116750Y0110961D01*
X0118241Y0109363D02*
X0097431Y0109363D01*
X0096460Y0107764D02*
X0140833Y0107764D01*
X0140833Y0106166D02*
X0128380Y0106166D01*
X0128073Y0106474D02*
X0126603Y0107082D01*
X0119811Y0107082D01*
X0118341Y0106474D01*
X0117216Y0105348D01*
X0116607Y0103878D01*
X0116607Y0102287D01*
X0117216Y0100817D01*
X0118341Y0099691D01*
X0119811Y0099082D01*
X0126603Y0099082D01*
X0128073Y0099691D01*
X0129198Y0100817D01*
X0129807Y0102287D01*
X0129807Y0103878D01*
X0129198Y0105348D01*
X0128073Y0106474D01*
X0129522Y0104567D02*
X0140833Y0104567D01*
X0140833Y0102969D02*
X0129807Y0102969D01*
X0129427Y0101370D02*
X0140833Y0101370D01*
X0140833Y0099772D02*
X0128153Y0099772D01*
X0126603Y0097082D02*
X0128073Y0096474D01*
X0129198Y0095348D01*
X0129807Y0093878D01*
X0129807Y0092287D01*
X0129198Y0090817D01*
X0128073Y0089691D01*
X0126603Y0089082D01*
X0119811Y0089082D01*
X0118341Y0089691D01*
X0117216Y0090817D01*
X0116607Y0092287D01*
X0116607Y0093878D01*
X0117216Y0095348D01*
X0118341Y0096474D01*
X0119811Y0097082D01*
X0126603Y0097082D01*
X0127828Y0096575D02*
X0140833Y0096575D01*
X0140833Y0098173D02*
X0103404Y0098173D01*
X0103265Y0098364D02*
X0102642Y0098987D01*
X0101929Y0099505D01*
X0101143Y0099905D01*
X0100305Y0100178D01*
X0099435Y0100316D01*
X0099194Y0100316D01*
X0099194Y0094916D01*
X0098794Y0094916D01*
X0098794Y0100316D01*
X0098553Y0100316D01*
X0097682Y0100178D01*
X0096844Y0099905D01*
X0096059Y0099505D01*
X0095346Y0098987D01*
X0094722Y0098364D01*
X0094204Y0097651D01*
X0093804Y0096865D01*
X0093532Y0096027D01*
X0093394Y0095156D01*
X0093394Y0094916D01*
X0098794Y0094916D01*
X0098794Y0094516D01*
X0093394Y0094516D01*
X0093394Y0094275D01*
X0093532Y0093404D01*
X0093804Y0092566D01*
X0094204Y0091781D01*
X0094722Y0091068D01*
X0095346Y0090444D01*
X0096059Y0089926D01*
X0096844Y0089526D01*
X0097682Y0089254D01*
X0098553Y0089116D01*
X0098794Y0089116D01*
X0098794Y0094516D01*
X0099194Y0094516D01*
X0099194Y0094916D01*
X0104594Y0094916D01*
X0104594Y0095156D01*
X0104456Y0096027D01*
X0104184Y0096865D01*
X0103783Y0097651D01*
X0103265Y0098364D01*
X0104278Y0096575D02*
X0118586Y0096575D01*
X0117062Y0094976D02*
X0104594Y0094976D01*
X0104594Y0094516D02*
X0099194Y0094516D01*
X0099194Y0089116D01*
X0099435Y0089116D01*
X0100305Y0089254D01*
X0101143Y0089526D01*
X0101929Y0089926D01*
X0102642Y0090444D01*
X0103265Y0091068D01*
X0103783Y0091781D01*
X0104184Y0092566D01*
X0104456Y0093404D01*
X0104594Y0094275D01*
X0104594Y0094516D01*
X0104447Y0093378D02*
X0116607Y0093378D01*
X0116817Y0091779D02*
X0103782Y0091779D01*
X0102279Y0090181D02*
X0117852Y0090181D01*
X0119573Y0086984D02*
X0040556Y0086984D01*
X0041331Y0088582D02*
X0140833Y0088582D01*
X0140833Y0086984D02*
X0126841Y0086984D01*
X0126603Y0087082D02*
X0128073Y0086474D01*
X0129198Y0085348D01*
X0129807Y0083878D01*
X0129807Y0082287D01*
X0129198Y0080817D01*
X0128073Y0079691D01*
X0126603Y0079082D01*
X0119811Y0079082D01*
X0118341Y0079691D01*
X0117216Y0080817D01*
X0116607Y0082287D01*
X0116607Y0083878D01*
X0117216Y0085348D01*
X0118341Y0086474D01*
X0119811Y0087082D01*
X0126603Y0087082D01*
X0129161Y0085385D02*
X0140833Y0085385D01*
X0140833Y0083787D02*
X0129807Y0083787D01*
X0129766Y0082188D02*
X0140833Y0082188D01*
X0140833Y0080590D02*
X0128971Y0080590D01*
X0128073Y0076474D02*
X0126603Y0077082D01*
X0119811Y0077082D01*
X0118341Y0076474D01*
X0117216Y0075348D01*
X0116607Y0073878D01*
X0116607Y0072287D01*
X0117216Y0070817D01*
X0118341Y0069691D01*
X0119811Y0069082D01*
X0126603Y0069082D01*
X0128073Y0069691D01*
X0129198Y0070817D01*
X0129807Y0072287D01*
X0129807Y0073878D01*
X0129198Y0075348D01*
X0128073Y0076474D01*
X0128752Y0075794D02*
X0140833Y0075794D01*
X0140833Y0074196D02*
X0129676Y0074196D01*
X0129807Y0072597D02*
X0140833Y0072597D01*
X0140833Y0070999D02*
X0129274Y0070999D01*
X0127370Y0069400D02*
X0140833Y0069400D01*
X0140833Y0067802D02*
X0032520Y0067802D01*
X0030647Y0067802D02*
X0030647Y0067802D01*
X0030647Y0066203D02*
X0030647Y0066203D01*
X0030647Y0064605D02*
X0030647Y0064605D01*
X0030647Y0063452D02*
X0030647Y0059053D01*
X0030647Y0063452D01*
X0030647Y0063452D01*
X0030647Y0063006D02*
X0030647Y0063006D01*
X0030647Y0061408D02*
X0030647Y0061408D01*
X0030647Y0059809D02*
X0030647Y0059809D01*
X0033226Y0059809D02*
X0068633Y0059809D01*
X0068990Y0059453D02*
X0072304Y0059453D01*
X0074647Y0061796D01*
X0074647Y0065109D01*
X0072304Y0067453D01*
X0068990Y0067453D01*
X0066647Y0065109D01*
X0066647Y0061796D01*
X0068990Y0059453D01*
X0067035Y0061408D02*
X0034824Y0061408D01*
X0035047Y0063006D02*
X0066647Y0063006D01*
X0066647Y0064605D02*
X0035047Y0064605D01*
X0034119Y0066203D02*
X0067740Y0066203D01*
X0073553Y0066203D02*
X0118071Y0066203D01*
X0118341Y0066474D02*
X0117216Y0065348D01*
X0116607Y0063878D01*
X0116607Y0062287D01*
X0117216Y0060817D01*
X0118341Y0059691D01*
X0119811Y0059082D01*
X0126603Y0059082D01*
X0128073Y0059691D01*
X0129198Y0060817D01*
X0129807Y0062287D01*
X0129807Y0063878D01*
X0129198Y0065348D01*
X0128073Y0066474D01*
X0126603Y0067082D01*
X0119811Y0067082D01*
X0118341Y0066474D01*
X0116908Y0064605D02*
X0074647Y0064605D01*
X0074647Y0063006D02*
X0093406Y0063006D01*
X0093676Y0063275D02*
X0091332Y0060932D01*
X0091332Y0057618D01*
X0093676Y0055275D01*
X0096989Y0055275D01*
X0099332Y0057618D01*
X0099332Y0060932D01*
X0096989Y0063275D01*
X0093676Y0063275D01*
X0091808Y0061408D02*
X0074259Y0061408D01*
X0072660Y0059809D02*
X0091332Y0059809D01*
X0091332Y0058211D02*
X0026364Y0058211D01*
X0026364Y0059809D02*
X0028068Y0059809D01*
X0026469Y0061408D02*
X0026364Y0061408D01*
X0026364Y0066203D02*
X0027175Y0066203D01*
X0026364Y0067802D02*
X0028773Y0067802D01*
X0026364Y0069400D02*
X0119044Y0069400D01*
X0117141Y0070999D02*
X0102631Y0070999D01*
X0101939Y0070307D02*
X0103402Y0071770D01*
X0104194Y0073681D01*
X0104194Y0075750D01*
X0103402Y0077661D01*
X0101939Y0079124D01*
X0100028Y0079916D01*
X0097959Y0079916D01*
X0096048Y0079124D01*
X0094585Y0077661D01*
X0093794Y0075750D01*
X0093794Y0073681D01*
X0094585Y0071770D01*
X0096048Y0070307D01*
X0097959Y0069516D01*
X0100028Y0069516D01*
X0101939Y0070307D01*
X0103745Y0072597D02*
X0116607Y0072597D01*
X0116739Y0074196D02*
X0104194Y0074196D01*
X0104176Y0075794D02*
X0117662Y0075794D01*
X0117443Y0080590D02*
X0079484Y0080590D01*
X0079484Y0079904D02*
X0077141Y0077561D01*
X0073828Y0077561D01*
X0071484Y0079904D01*
X0071484Y0083218D01*
X0073828Y0085561D01*
X0077141Y0085561D01*
X0079484Y0083218D01*
X0079484Y0079904D01*
X0078572Y0078991D02*
X0095915Y0078991D01*
X0094474Y0077393D02*
X0030182Y0077393D01*
X0031780Y0078991D02*
X0032397Y0078991D01*
X0028583Y0075794D02*
X0093812Y0075794D01*
X0093794Y0074196D02*
X0026985Y0074196D01*
X0026364Y0072597D02*
X0094243Y0072597D01*
X0095357Y0070999D02*
X0026364Y0070999D01*
X0026364Y0056612D02*
X0092339Y0056612D01*
X0098326Y0056612D02*
X0102339Y0056612D01*
X0101332Y0057618D02*
X0103676Y0055275D01*
X0106989Y0055275D01*
X0109332Y0057618D01*
X0109332Y0060932D01*
X0106989Y0063275D01*
X0103676Y0063275D01*
X0101332Y0060932D01*
X0101332Y0057618D01*
X0101332Y0058211D02*
X0099332Y0058211D01*
X0099332Y0059809D02*
X0101332Y0059809D01*
X0101808Y0061408D02*
X0098857Y0061408D01*
X0097258Y0063006D02*
X0103406Y0063006D01*
X0107258Y0063006D02*
X0116607Y0063006D01*
X0116971Y0061408D02*
X0108857Y0061408D01*
X0109332Y0059809D02*
X0118224Y0059809D01*
X0118676Y0056612D02*
X0108326Y0056612D01*
X0109332Y0058211D02*
X0140833Y0058211D01*
X0140833Y0059809D02*
X0128191Y0059809D01*
X0129443Y0061408D02*
X0140833Y0061408D01*
X0140833Y0063006D02*
X0129807Y0063006D01*
X0129506Y0064605D02*
X0140833Y0064605D01*
X0140833Y0066203D02*
X0128343Y0066203D01*
X0127738Y0056612D02*
X0140833Y0056612D01*
X0140833Y0055014D02*
X0129337Y0055014D01*
X0129807Y0053415D02*
X0140833Y0053415D01*
X0140833Y0051817D02*
X0129612Y0051817D01*
X0128600Y0050218D02*
X0142040Y0050218D01*
X0143639Y0048620D02*
X0037974Y0048620D01*
X0037974Y0050218D02*
X0117815Y0050218D01*
X0117077Y0055014D02*
X0026364Y0055014D01*
X0036286Y0045423D02*
X0146836Y0045423D01*
X0145237Y0047021D02*
X0037884Y0047021D01*
X0043100Y0038451D02*
X0085130Y0038451D01*
X0096215Y0027365D01*
X0095656Y0031036D02*
X0161222Y0031036D01*
X0160713Y0029437D02*
X0162821Y0029437D01*
X0162311Y0027839D02*
X0164419Y0027839D01*
X0164490Y0027768D02*
X0169895Y0027768D01*
X0169921Y0027742D01*
X0171237Y0027196D01*
X0172662Y0027196D01*
X0173978Y0027742D01*
X0174986Y0028749D01*
X0175099Y0029024D01*
X0175213Y0028749D01*
X0176220Y0027742D01*
X0177537Y0027196D01*
X0178961Y0027196D01*
X0180277Y0027742D01*
X0181285Y0028749D01*
X0181830Y0030065D01*
X0181830Y0031490D01*
X0181815Y0031526D01*
X0182560Y0031674D01*
X0183284Y0031974D01*
X0183936Y0032410D01*
X0184491Y0032964D01*
X0184927Y0033616D01*
X0185227Y0034341D01*
X0185380Y0035110D01*
X0185380Y0035502D01*
X0185380Y0035894D01*
X0185227Y0036663D01*
X0184927Y0037388D01*
X0184491Y0038040D01*
X0183936Y0038594D01*
X0183284Y0039030D01*
X0182560Y0039330D01*
X0181791Y0039483D01*
X0181399Y0039483D01*
X0181399Y0035502D01*
X0185380Y0035502D01*
X0181399Y0035502D01*
X0181399Y0035502D01*
X0181398Y0035502D01*
X0181398Y0039483D01*
X0181006Y0039483D01*
X0180237Y0039330D01*
X0179513Y0039030D01*
X0178861Y0038594D01*
X0178306Y0038040D01*
X0178034Y0037632D01*
X0177453Y0038213D01*
X0177453Y0045800D01*
X0177618Y0046098D01*
X0177453Y0046678D01*
X0177453Y0047281D01*
X0177211Y0047522D01*
X0176933Y0048498D01*
X0176933Y0092360D01*
X0176960Y0092390D01*
X0176933Y0093266D01*
X0176933Y0094142D01*
X0176904Y0094171D01*
X0176903Y0094212D01*
X0176264Y0094811D01*
X0175644Y0095431D01*
X0175603Y0095431D01*
X0159202Y0110825D01*
X0159807Y0112287D01*
X0159807Y0113878D01*
X0159198Y0115348D01*
X0158073Y0116474D01*
X0156603Y0117082D01*
X0149811Y0117082D01*
X0148341Y0116474D01*
X0147216Y0115348D01*
X0146607Y0113878D01*
X0146607Y0112287D01*
X0147216Y0110817D01*
X0148341Y0109691D01*
X0149811Y0109082D01*
X0154629Y0109082D01*
X0156883Y0106966D01*
X0156603Y0107082D01*
X0149811Y0107082D01*
X0148341Y0106474D01*
X0147216Y0105348D01*
X0146607Y0103878D01*
X0146607Y0102287D01*
X0147216Y0100817D01*
X0148341Y0099691D01*
X0149811Y0099082D01*
X0155625Y0099082D01*
X0157600Y0097107D01*
X0157496Y0097160D01*
X0156837Y0097374D01*
X0156153Y0097482D01*
X0153207Y0097482D01*
X0150261Y0097482D01*
X0149577Y0097374D01*
X0148918Y0097160D01*
X0148301Y0096846D01*
X0147741Y0096439D01*
X0147251Y0095949D01*
X0146844Y0095389D01*
X0146529Y0094771D01*
X0146315Y0094113D01*
X0146207Y0093429D01*
X0146207Y0093083D01*
X0153207Y0093083D01*
X0153207Y0097482D01*
X0153207Y0093083D01*
X0153207Y0093083D01*
X0153207Y0093082D01*
X0153207Y0093082D01*
X0153207Y0088682D01*
X0150261Y0088682D01*
X0149577Y0088791D01*
X0148918Y0089005D01*
X0148301Y0089319D01*
X0147741Y0089726D01*
X0147251Y0090216D01*
X0146844Y0090776D01*
X0146529Y0091393D01*
X0146315Y0092052D01*
X0146207Y0092736D01*
X0146207Y0093082D01*
X0153207Y0093082D01*
X0153207Y0088682D01*
X0156153Y0088682D01*
X0156837Y0088791D01*
X0157496Y0089005D01*
X0158113Y0089319D01*
X0158673Y0089726D01*
X0159163Y0090216D01*
X0159570Y0090776D01*
X0159885Y0091393D01*
X0160099Y0092052D01*
X0160207Y0092736D01*
X0160207Y0093082D01*
X0153207Y0093082D01*
X0153207Y0093083D01*
X0160207Y0093083D01*
X0160207Y0093429D01*
X0160099Y0094113D01*
X0159885Y0094771D01*
X0159832Y0094876D01*
X0165251Y0089456D01*
X0165251Y0061216D01*
X0165181Y0061132D01*
X0165248Y0060359D01*
X0164926Y0060225D01*
X0163477Y0058777D01*
X0162693Y0056884D01*
X0162693Y0054835D01*
X0163477Y0052942D01*
X0164926Y0051494D01*
X0166819Y0050710D01*
X0168868Y0050710D01*
X0170760Y0051494D01*
X0172209Y0052942D01*
X0172533Y0053723D01*
X0172533Y0048760D01*
X0172367Y0048461D01*
X0172533Y0047882D01*
X0172533Y0047279D01*
X0172774Y0047037D01*
X0173053Y0046061D01*
X0173053Y0038520D01*
X0172063Y0037530D01*
X0171950Y0037256D01*
X0171836Y0037530D01*
X0170829Y0038538D01*
X0169512Y0039083D01*
X0168088Y0039083D01*
X0166772Y0038538D01*
X0165764Y0037530D01*
X0165219Y0036214D01*
X0165219Y0034790D01*
X0165764Y0033473D01*
X0166772Y0032466D01*
X0167491Y0032168D01*
X0166313Y0032168D01*
X0149106Y0049375D01*
X0149811Y0049082D01*
X0156603Y0049082D01*
X0158073Y0049691D01*
X0159198Y0050817D01*
X0159807Y0052287D01*
X0159807Y0053878D01*
X0159198Y0055348D01*
X0158073Y0056474D01*
X0156603Y0057082D01*
X0149811Y0057082D01*
X0148341Y0056474D01*
X0147216Y0055348D01*
X0146607Y0053878D01*
X0146607Y0052287D01*
X0146899Y0051582D01*
X0145233Y0053248D01*
X0145233Y0113407D01*
X0150908Y0119082D01*
X0156603Y0119082D01*
X0158073Y0119691D01*
X0159198Y0120817D01*
X0159807Y0122287D01*
X0159807Y0123878D01*
X0159198Y0125348D01*
X0192877Y0125348D01*
X0191980Y0123750D02*
X0159807Y0123750D01*
X0159751Y0122151D02*
X0191700Y0122151D01*
X0191903Y0120553D02*
X0158934Y0120553D01*
X0158789Y0115757D02*
X0193286Y0115757D01*
X0192150Y0114159D02*
X0159691Y0114159D01*
X0159807Y0112560D02*
X0191700Y0112560D01*
X0191734Y0110961D02*
X0159258Y0110961D01*
X0160759Y0109363D02*
X0192396Y0109363D01*
X0193881Y0107764D02*
X0162462Y0107764D01*
X0164166Y0106166D02*
X0193695Y0106166D01*
X0192319Y0104567D02*
X0165869Y0104567D01*
X0167572Y0102969D02*
X0191700Y0102969D01*
X0191700Y0101370D02*
X0169275Y0101370D01*
X0170978Y0099772D02*
X0192227Y0099772D01*
X0193472Y0098173D02*
X0172681Y0098173D01*
X0174385Y0096575D02*
X0194377Y0096575D01*
X0192506Y0094976D02*
X0176099Y0094976D01*
X0176933Y0093378D02*
X0191826Y0093378D01*
X0191700Y0091779D02*
X0176933Y0091779D01*
X0176933Y0090181D02*
X0192057Y0090181D01*
X0193063Y0088582D02*
X0176933Y0088582D01*
X0176933Y0086984D02*
X0195364Y0086984D01*
X0192915Y0085385D02*
X0176933Y0085385D01*
X0176933Y0083787D02*
X0191996Y0083787D01*
X0191700Y0082188D02*
X0176933Y0082188D01*
X0176933Y0080590D02*
X0191888Y0080590D01*
X0192654Y0078991D02*
X0176933Y0078991D01*
X0176933Y0077393D02*
X0194737Y0077393D01*
X0192758Y0075794D02*
X0176933Y0075794D01*
X0176933Y0074196D02*
X0191716Y0074196D01*
X0191317Y0072597D02*
X0176933Y0072597D01*
X0176933Y0070999D02*
X0191399Y0070999D01*
X0191435Y0070770D02*
X0191703Y0069947D01*
X0192096Y0069176D01*
X0192605Y0068475D01*
X0193217Y0067863D01*
X0193917Y0067354D01*
X0194689Y0066961D01*
X0195512Y0066694D01*
X0196367Y0066558D01*
X0196600Y0066558D01*
X0196600Y0071858D01*
X0191300Y0071858D01*
X0191300Y0071625D01*
X0191435Y0070770D01*
X0191982Y0069400D02*
X0176933Y0069400D01*
X0176933Y0067802D02*
X0193302Y0067802D01*
X0196600Y0067802D02*
X0197000Y0067802D01*
X0197000Y0069400D02*
X0196600Y0069400D01*
X0196600Y0070999D02*
X0197000Y0070999D01*
X0198262Y0066203D02*
X0176933Y0066203D01*
X0176933Y0064605D02*
X0198222Y0064605D01*
X0198183Y0063006D02*
X0176933Y0063006D01*
X0176933Y0061408D02*
X0185542Y0061408D01*
X0185544Y0061410D02*
X0182293Y0058158D01*
X0182293Y0055860D01*
X0187843Y0055860D01*
X0187843Y0061410D01*
X0185544Y0061410D01*
X0183944Y0059809D02*
X0176933Y0059809D01*
X0176933Y0058211D02*
X0182345Y0058211D01*
X0182293Y0056612D02*
X0176933Y0056612D01*
X0176933Y0055014D02*
X0182293Y0055014D01*
X0182293Y0055859D02*
X0182293Y0053561D01*
X0185544Y0050310D01*
X0187843Y0050310D01*
X0187843Y0055859D01*
X0187843Y0055859D01*
X0187843Y0050310D01*
X0190142Y0050310D01*
X0193393Y0053561D01*
X0193393Y0055859D01*
X0187843Y0055859D01*
X0182293Y0055859D01*
X0182439Y0053415D02*
X0176933Y0053415D01*
X0176933Y0051817D02*
X0184037Y0051817D01*
X0187843Y0051817D02*
X0187843Y0051817D01*
X0187843Y0053415D02*
X0187843Y0053415D01*
X0187843Y0055014D02*
X0187843Y0055014D01*
X0187843Y0055859D02*
X0187843Y0055860D01*
X0187843Y0055860D01*
X0187843Y0061410D01*
X0190142Y0061410D01*
X0193393Y0058158D01*
X0193393Y0055860D01*
X0187843Y0055860D01*
X0187843Y0055859D01*
X0187843Y0056612D02*
X0187843Y0056612D01*
X0187843Y0058211D02*
X0187843Y0058211D01*
X0187843Y0059809D02*
X0187843Y0059809D01*
X0187843Y0061408D02*
X0187843Y0061408D01*
X0190144Y0061408D02*
X0198143Y0061408D01*
X0198104Y0059809D02*
X0191742Y0059809D01*
X0193341Y0058211D02*
X0198064Y0058211D01*
X0198025Y0056612D02*
X0193393Y0056612D01*
X0193393Y0055014D02*
X0197985Y0055014D01*
X0197946Y0053415D02*
X0193248Y0053415D01*
X0191649Y0051817D02*
X0197906Y0051817D01*
X0197867Y0050218D02*
X0176933Y0050218D01*
X0176933Y0048620D02*
X0197827Y0048620D01*
X0197788Y0047021D02*
X0177453Y0047021D01*
X0177453Y0045423D02*
X0197748Y0045423D01*
X0197709Y0043824D02*
X0177453Y0043824D01*
X0177453Y0042225D02*
X0197669Y0042225D01*
X0197630Y0040627D02*
X0177453Y0040627D01*
X0177453Y0039028D02*
X0179511Y0039028D01*
X0181398Y0039028D02*
X0181399Y0039028D01*
X0181398Y0037430D02*
X0181399Y0037430D01*
X0181398Y0035831D02*
X0181399Y0035831D01*
X0183287Y0039028D02*
X0197590Y0039028D01*
X0197551Y0037430D02*
X0184898Y0037430D01*
X0185380Y0035831D02*
X0188088Y0035831D01*
X0187710Y0034233D02*
X0185182Y0034233D01*
X0184161Y0032634D02*
X0187322Y0032634D01*
X0185723Y0031036D02*
X0181830Y0031036D01*
X0181570Y0029437D02*
X0184125Y0029437D01*
X0182526Y0027839D02*
X0180375Y0027839D01*
X0179329Y0024642D02*
X0165508Y0024642D01*
X0165401Y0029968D02*
X0171140Y0029968D01*
X0171950Y0030778D01*
X0174076Y0027839D02*
X0176123Y0027839D01*
X0175099Y0035502D02*
X0175253Y0035655D01*
X0175253Y0046370D01*
X0174733Y0048190D01*
X0174733Y0093231D01*
X0153581Y0113082D01*
X0153207Y0113082D01*
X0149134Y0109363D02*
X0145233Y0109363D01*
X0145233Y0110961D02*
X0147156Y0110961D01*
X0146607Y0112560D02*
X0145233Y0112560D01*
X0145984Y0114159D02*
X0146723Y0114159D01*
X0147582Y0115757D02*
X0147625Y0115757D01*
X0149181Y0117356D02*
X0194826Y0117356D01*
X0192692Y0118954D02*
X0150780Y0118954D01*
X0151797Y0123082D02*
X0143033Y0114319D01*
X0143033Y0052337D01*
X0165401Y0029968D01*
X0165846Y0032634D02*
X0166603Y0032634D01*
X0165450Y0034233D02*
X0164248Y0034233D01*
X0165219Y0035831D02*
X0162649Y0035831D01*
X0161051Y0037430D02*
X0165723Y0037430D01*
X0167956Y0039028D02*
X0159452Y0039028D01*
X0157854Y0040627D02*
X0173053Y0040627D01*
X0173053Y0042225D02*
X0156255Y0042225D01*
X0154657Y0043824D02*
X0173053Y0043824D01*
X0173053Y0045423D02*
X0153058Y0045423D01*
X0151460Y0047021D02*
X0172779Y0047021D01*
X0172455Y0048620D02*
X0149861Y0048620D01*
X0146802Y0051817D02*
X0146664Y0051817D01*
X0146607Y0053415D02*
X0145233Y0053415D01*
X0145233Y0055014D02*
X0147077Y0055014D01*
X0148676Y0056612D02*
X0145233Y0056612D01*
X0145233Y0058211D02*
X0163243Y0058211D01*
X0162693Y0056612D02*
X0157738Y0056612D01*
X0159337Y0055014D02*
X0162693Y0055014D01*
X0163281Y0053415D02*
X0159807Y0053415D01*
X0159612Y0051817D02*
X0164603Y0051817D01*
X0167843Y0055860D02*
X0167451Y0060413D01*
X0167451Y0090367D01*
X0154736Y0103082D01*
X0153207Y0103082D01*
X0156033Y0107764D02*
X0145233Y0107764D01*
X0145233Y0106166D02*
X0148034Y0106166D01*
X0146893Y0104567D02*
X0145233Y0104567D01*
X0145233Y0102969D02*
X0146607Y0102969D01*
X0146987Y0101370D02*
X0145233Y0101370D01*
X0145233Y0099772D02*
X0148261Y0099772D01*
X0147928Y0096575D02*
X0145233Y0096575D01*
X0145233Y0098173D02*
X0156534Y0098173D01*
X0153207Y0096575D02*
X0153207Y0096575D01*
X0153207Y0094976D02*
X0153207Y0094976D01*
X0153207Y0093378D02*
X0153207Y0093378D01*
X0153207Y0091779D02*
X0153207Y0091779D01*
X0153207Y0090181D02*
X0153207Y0090181D01*
X0149811Y0087082D02*
X0148341Y0086474D01*
X0147216Y0085348D01*
X0146607Y0083878D01*
X0146607Y0082287D01*
X0147216Y0080817D01*
X0148341Y0079691D01*
X0149811Y0079082D01*
X0156603Y0079082D01*
X0158073Y0079691D01*
X0159198Y0080817D01*
X0159807Y0082287D01*
X0159807Y0083878D01*
X0159198Y0085348D01*
X0158073Y0086474D01*
X0156603Y0087082D01*
X0149811Y0087082D01*
X0149573Y0086984D02*
X0145233Y0086984D01*
X0145233Y0088582D02*
X0165251Y0088582D01*
X0165251Y0086984D02*
X0156841Y0086984D01*
X0159161Y0085385D02*
X0165251Y0085385D01*
X0165251Y0083787D02*
X0159807Y0083787D01*
X0159766Y0082188D02*
X0165251Y0082188D01*
X0165251Y0080590D02*
X0158971Y0080590D01*
X0158073Y0076474D02*
X0156603Y0077082D01*
X0149811Y0077082D01*
X0148341Y0076474D01*
X0147216Y0075348D01*
X0146607Y0073878D01*
X0146607Y0072287D01*
X0147216Y0070817D01*
X0148341Y0069691D01*
X0149811Y0069082D01*
X0156603Y0069082D01*
X0158073Y0069691D01*
X0159198Y0070817D01*
X0159807Y0072287D01*
X0159807Y0073878D01*
X0159198Y0075348D01*
X0158073Y0076474D01*
X0158752Y0075794D02*
X0165251Y0075794D01*
X0165251Y0074196D02*
X0159676Y0074196D01*
X0159807Y0072597D02*
X0165251Y0072597D01*
X0165251Y0070999D02*
X0159274Y0070999D01*
X0157370Y0069400D02*
X0165251Y0069400D01*
X0165251Y0067802D02*
X0145233Y0067802D01*
X0145233Y0069400D02*
X0149044Y0069400D01*
X0149811Y0067082D02*
X0148341Y0066474D01*
X0147216Y0065348D01*
X0146607Y0063878D01*
X0146607Y0062287D01*
X0147216Y0060817D01*
X0148341Y0059691D01*
X0149811Y0059082D01*
X0156603Y0059082D01*
X0158073Y0059691D01*
X0159198Y0060817D01*
X0159807Y0062287D01*
X0159807Y0063878D01*
X0159198Y0065348D01*
X0158073Y0066474D01*
X0156603Y0067082D01*
X0149811Y0067082D01*
X0148071Y0066203D02*
X0145233Y0066203D01*
X0145233Y0064605D02*
X0146908Y0064605D01*
X0146607Y0063006D02*
X0145233Y0063006D01*
X0145233Y0061408D02*
X0146971Y0061408D01*
X0148224Y0059809D02*
X0145233Y0059809D01*
X0145233Y0070999D02*
X0147141Y0070999D01*
X0146607Y0072597D02*
X0145233Y0072597D01*
X0145233Y0074196D02*
X0146739Y0074196D01*
X0147662Y0075794D02*
X0145233Y0075794D01*
X0145233Y0077393D02*
X0165251Y0077393D01*
X0165251Y0078991D02*
X0145233Y0078991D01*
X0145233Y0080590D02*
X0147443Y0080590D01*
X0146648Y0082188D02*
X0145233Y0082188D01*
X0145233Y0083787D02*
X0146607Y0083787D01*
X0147253Y0085385D02*
X0145233Y0085385D01*
X0145233Y0090181D02*
X0147286Y0090181D01*
X0146404Y0091779D02*
X0145233Y0091779D01*
X0145233Y0093378D02*
X0146207Y0093378D01*
X0146634Y0094976D02*
X0145233Y0094976D01*
X0140833Y0094976D02*
X0129352Y0094976D01*
X0129807Y0093378D02*
X0140833Y0093378D01*
X0140833Y0091779D02*
X0129597Y0091779D01*
X0128562Y0090181D02*
X0140833Y0090181D01*
X0140833Y0078991D02*
X0102072Y0078991D01*
X0103513Y0077393D02*
X0140833Y0077393D01*
X0158343Y0066203D02*
X0165251Y0066203D01*
X0165251Y0064605D02*
X0159506Y0064605D01*
X0159807Y0063006D02*
X0165251Y0063006D01*
X0165251Y0061408D02*
X0159443Y0061408D01*
X0158191Y0059809D02*
X0164509Y0059809D01*
X0172405Y0053415D02*
X0172533Y0053415D01*
X0172533Y0051817D02*
X0171083Y0051817D01*
X0172533Y0050218D02*
X0158600Y0050218D01*
X0150033Y0042225D02*
X0108292Y0042225D01*
X0108736Y0041781D02*
X0106393Y0044125D01*
X0103079Y0044125D01*
X0100736Y0041781D01*
X0100736Y0038468D01*
X0103079Y0036125D01*
X0106393Y0036125D01*
X0108736Y0038468D01*
X0108736Y0041781D01*
X0108736Y0040627D02*
X0151631Y0040627D01*
X0153230Y0039028D02*
X0108736Y0039028D01*
X0107698Y0037430D02*
X0154828Y0037430D01*
X0156427Y0035831D02*
X0090860Y0035831D01*
X0091773Y0037430D02*
X0089262Y0037430D01*
X0090736Y0039028D02*
X0087663Y0039028D01*
X0087330Y0039362D02*
X0087330Y0039362D01*
X0086065Y0040627D02*
X0090736Y0040627D01*
X0092459Y0034233D02*
X0158025Y0034233D01*
X0159624Y0032634D02*
X0094057Y0032634D01*
X0097698Y0037430D02*
X0101773Y0037430D01*
X0100736Y0039028D02*
X0098736Y0039028D01*
X0098736Y0040627D02*
X0100736Y0040627D01*
X0101180Y0042225D02*
X0098292Y0042225D01*
X0096693Y0043824D02*
X0102778Y0043824D01*
X0106693Y0043824D02*
X0148434Y0043824D01*
X0159286Y0024642D02*
X0087931Y0024642D01*
X0087835Y0032634D02*
X0045300Y0032634D01*
X0046862Y0021445D02*
X0047212Y0021445D01*
X0038572Y0078991D02*
X0072397Y0078991D01*
X0071484Y0080590D02*
X0039484Y0080590D01*
X0039484Y0082188D02*
X0071484Y0082188D01*
X0072054Y0083787D02*
X0039007Y0083787D01*
X0039782Y0085385D02*
X0073652Y0085385D01*
X0077317Y0085385D02*
X0117253Y0085385D01*
X0116607Y0083787D02*
X0078915Y0083787D01*
X0079484Y0082188D02*
X0116648Y0082188D01*
X0118261Y0099772D02*
X0101406Y0099772D01*
X0099194Y0099772D02*
X0098794Y0099772D01*
X0098794Y0098173D02*
X0099194Y0098173D01*
X0099194Y0096575D02*
X0098794Y0096575D01*
X0098794Y0094976D02*
X0099194Y0094976D01*
X0099194Y0093378D02*
X0098794Y0093378D01*
X0098794Y0091779D02*
X0099194Y0091779D01*
X0099194Y0090181D02*
X0098794Y0090181D01*
X0095708Y0090181D02*
X0041870Y0090181D01*
X0041791Y0091779D02*
X0094205Y0091779D01*
X0093540Y0093378D02*
X0041791Y0093378D01*
X0041791Y0094976D02*
X0093394Y0094976D01*
X0093710Y0096575D02*
X0041791Y0096575D01*
X0042676Y0098173D02*
X0055941Y0098173D01*
X0057292Y0096822D02*
X0059591Y0096822D01*
X0059591Y0102372D01*
X0059591Y0107922D01*
X0057292Y0107922D01*
X0054041Y0104671D01*
X0054041Y0102372D01*
X0059591Y0102372D01*
X0059591Y0102372D01*
X0059591Y0102372D01*
X0059591Y0107922D01*
X0061890Y0107922D01*
X0065141Y0104671D01*
X0065141Y0102372D01*
X0059591Y0102372D01*
X0054041Y0102372D01*
X0054041Y0100073D01*
X0057292Y0096822D01*
X0059591Y0096822D02*
X0061890Y0096822D01*
X0065141Y0100073D01*
X0065141Y0102372D01*
X0059591Y0102372D01*
X0059591Y0102372D01*
X0059591Y0102372D01*
X0059591Y0096822D01*
X0059591Y0098173D02*
X0059591Y0098173D01*
X0059591Y0099772D02*
X0059591Y0099772D01*
X0059591Y0101370D02*
X0059591Y0101370D01*
X0059591Y0102969D02*
X0059591Y0102969D01*
X0059591Y0104567D02*
X0059591Y0104567D01*
X0059591Y0106166D02*
X0059591Y0106166D01*
X0059591Y0107764D02*
X0059591Y0107764D01*
X0062047Y0107764D02*
X0072110Y0107764D01*
X0071138Y0109363D02*
X0042529Y0109363D01*
X0042529Y0110961D02*
X0071007Y0110961D01*
X0071577Y0112560D02*
X0042529Y0112560D01*
X0042529Y0107764D02*
X0057135Y0107764D01*
X0055536Y0106166D02*
X0043080Y0106166D01*
X0044256Y0104567D02*
X0054041Y0104567D01*
X0054041Y0102969D02*
X0044741Y0102969D01*
X0044741Y0101370D02*
X0054041Y0101370D01*
X0054342Y0099772D02*
X0044089Y0099772D01*
X0063242Y0098173D02*
X0094584Y0098173D01*
X0096582Y0099772D02*
X0064840Y0099772D01*
X0065141Y0101370D02*
X0116987Y0101370D01*
X0116607Y0102969D02*
X0065141Y0102969D01*
X0065141Y0104567D02*
X0116893Y0104567D01*
X0118034Y0106166D02*
X0063646Y0106166D01*
X0077460Y0107764D02*
X0081165Y0107764D01*
X0080345Y0109363D02*
X0078431Y0109363D01*
X0078563Y0110961D02*
X0080245Y0110961D01*
X0080786Y0112560D02*
X0077993Y0112560D01*
X0084391Y0112560D02*
X0084391Y0112560D01*
X0084391Y0110961D02*
X0084391Y0110961D01*
X0084391Y0109363D02*
X0084391Y0109363D01*
X0084391Y0107764D02*
X0084391Y0107764D01*
X0087617Y0107764D02*
X0091110Y0107764D01*
X0090138Y0109363D02*
X0088437Y0109363D01*
X0088537Y0110961D02*
X0090007Y0110961D01*
X0090577Y0112560D02*
X0087996Y0112560D01*
X0083553Y0126947D02*
X0119483Y0126947D01*
X0117216Y0125348D02*
X0116607Y0123878D01*
X0116663Y0122151D02*
X0042529Y0122151D01*
X0042529Y0120553D02*
X0117480Y0120553D01*
X0123207Y0117482D02*
X0123207Y0113083D01*
X0123207Y0113083D01*
X0123207Y0113082D01*
X0123207Y0113083D01*
X0130207Y0113083D01*
X0130207Y0113429D01*
X0130099Y0114113D01*
X0129885Y0114771D01*
X0129570Y0115389D01*
X0129163Y0115949D01*
X0128673Y0116439D01*
X0128113Y0116846D01*
X0127496Y0117160D01*
X0126837Y0117374D01*
X0126153Y0117482D01*
X0123207Y0117482D01*
X0123207Y0117356D02*
X0123207Y0117356D01*
X0123207Y0115757D02*
X0123207Y0115757D01*
X0123207Y0114159D02*
X0123207Y0114159D01*
X0123207Y0112560D02*
X0123207Y0112560D01*
X0123207Y0110961D02*
X0123207Y0110961D01*
X0123207Y0109363D02*
X0123207Y0109363D01*
X0128173Y0109363D02*
X0140833Y0109363D01*
X0140833Y0110961D02*
X0129665Y0110961D01*
X0130179Y0112560D02*
X0140833Y0112560D01*
X0140833Y0114159D02*
X0130084Y0114159D01*
X0129303Y0115757D02*
X0141360Y0115757D01*
X0142958Y0117356D02*
X0126895Y0117356D01*
X0126931Y0126947D02*
X0149483Y0126947D01*
X0149811Y0127082D02*
X0148341Y0126474D01*
X0147216Y0125348D01*
X0149811Y0127082D02*
X0156603Y0127082D01*
X0158073Y0126474D01*
X0159198Y0125348D01*
X0156931Y0126947D02*
X0195275Y0126947D01*
X0193101Y0128545D02*
X0084329Y0128545D01*
X0084329Y0130144D02*
X0117889Y0130144D01*
X0116833Y0131742D02*
X0083624Y0131742D01*
X0077765Y0147445D02*
X0120680Y0147445D01*
X0122318Y0149082D01*
X0126603Y0149082D01*
X0128073Y0149691D01*
X0129198Y0150817D01*
X0129807Y0152287D01*
X0129807Y0153062D01*
X0131730Y0151138D01*
X0131730Y0149521D01*
X0129587Y0147378D01*
X0124391Y0147378D01*
X0124096Y0147082D01*
X0119811Y0147082D01*
X0118341Y0146474D01*
X0117216Y0145348D01*
X0116607Y0143878D01*
X0116607Y0142287D01*
X0117216Y0140817D01*
X0118341Y0139691D01*
X0119811Y0139082D01*
X0126603Y0139082D01*
X0128073Y0139691D01*
X0129198Y0140817D01*
X0129807Y0142287D01*
X0129807Y0142978D01*
X0131410Y0142978D01*
X0132698Y0144267D01*
X0136130Y0147699D01*
X0136130Y0152961D01*
X0134842Y0154250D01*
X0128736Y0160355D01*
X0129198Y0160817D01*
X0129807Y0162287D01*
X0129807Y0163878D01*
X0129198Y0165348D01*
X0128073Y0166474D01*
X0126603Y0167082D01*
X0119811Y0167082D01*
X0118341Y0166474D01*
X0117216Y0165348D01*
X0116607Y0163878D01*
X0116607Y0162287D01*
X0117216Y0160817D01*
X0117599Y0160434D01*
X0116309Y0160434D01*
X0095007Y0181736D01*
X0068262Y0181736D01*
X0053989Y0196009D01*
X0054521Y0197295D01*
X0055198Y0195662D01*
X0056632Y0194227D01*
X0058507Y0193451D01*
X0060536Y0193451D01*
X0062410Y0194227D01*
X0063845Y0195662D01*
X0064621Y0197536D01*
X0064621Y0199565D01*
X0063845Y0201440D01*
X0062410Y0202874D01*
X0060536Y0203651D01*
X0058507Y0203651D01*
X0056632Y0202874D01*
X0055198Y0201440D01*
X0054521Y0199806D01*
X0053845Y0201440D01*
X0052410Y0202874D01*
X0050536Y0203651D01*
X0048507Y0203651D01*
X0046632Y0202874D01*
X0045198Y0201440D01*
X0044521Y0199806D01*
X0043845Y0201440D01*
X0042410Y0202874D01*
X0040536Y0203651D01*
X0038507Y0203651D01*
X0036632Y0202874D01*
X0035198Y0201440D01*
X0034731Y0200314D01*
X0034618Y0200662D01*
X0034225Y0201433D01*
X0033716Y0202134D01*
X0033104Y0202746D01*
X0032404Y0203255D01*
X0031633Y0203648D01*
X0030809Y0203915D01*
X0029954Y0204051D01*
X0029721Y0204051D01*
X0029721Y0198751D01*
X0029321Y0198751D01*
X0029321Y0204051D01*
X0029088Y0204051D01*
X0028233Y0203915D01*
X0027410Y0203648D01*
X0026639Y0203255D01*
X0025938Y0202746D01*
X0025326Y0202134D01*
X0024817Y0201433D01*
X0024424Y0200662D01*
X0024311Y0200314D01*
X0023845Y0201440D01*
X0022410Y0202874D01*
X0020536Y0203651D01*
X0018507Y0203651D01*
X0016632Y0202874D01*
X0015198Y0201440D01*
X0014521Y0199806D01*
X0013845Y0201440D01*
X0012410Y0202874D01*
X0010536Y0203651D01*
X0008507Y0203651D01*
X0006632Y0202874D01*
X0005198Y0201440D01*
X0004421Y0199565D01*
X0004421Y0197536D01*
X0005198Y0195662D01*
X0006632Y0194227D01*
X0008507Y0193451D01*
X0010536Y0193451D01*
X0012410Y0194227D01*
X0013845Y0195662D01*
X0014521Y0197295D01*
X0015198Y0195662D01*
X0016632Y0194227D01*
X0018507Y0193451D01*
X0020536Y0193451D01*
X0022410Y0194227D01*
X0023845Y0195662D01*
X0024311Y0196787D01*
X0024424Y0196439D01*
X0024817Y0195668D01*
X0025326Y0194968D01*
X0025938Y0194355D01*
X0026639Y0193847D01*
X0027410Y0193454D01*
X0028233Y0193186D01*
X0029088Y0193051D01*
X0029321Y0193051D01*
X0029321Y0198351D01*
X0029721Y0198351D01*
X0029721Y0193051D01*
X0029954Y0193051D01*
X0030809Y0193186D01*
X0031633Y0193454D01*
X0032404Y0193847D01*
X0033104Y0194355D01*
X0033716Y0194968D01*
X0034225Y0195668D01*
X0034618Y0196439D01*
X0034731Y0196787D01*
X0035198Y0195662D01*
X0036632Y0194227D01*
X0037321Y0193942D01*
X0037321Y0187888D01*
X0076476Y0148733D01*
X0077765Y0147445D01*
X0077482Y0147727D02*
X0003600Y0147727D01*
X0003600Y0146129D02*
X0003658Y0146129D01*
X0003600Y0149326D02*
X0075883Y0149326D01*
X0074285Y0150924D02*
X0003600Y0150924D01*
X0003600Y0152523D02*
X0072686Y0152523D01*
X0071088Y0154121D02*
X0003600Y0154121D01*
X0003600Y0155720D02*
X0069489Y0155720D01*
X0067891Y0157318D02*
X0003600Y0157318D01*
X0003600Y0158917D02*
X0066292Y0158917D01*
X0064694Y0160515D02*
X0003600Y0160515D01*
X0003600Y0162114D02*
X0063095Y0162114D01*
X0061497Y0163712D02*
X0003600Y0163712D01*
X0003600Y0165311D02*
X0059898Y0165311D01*
X0058300Y0166909D02*
X0003600Y0166909D01*
X0003600Y0168508D02*
X0056701Y0168508D01*
X0055103Y0170106D02*
X0003600Y0170106D01*
X0003600Y0171705D02*
X0053504Y0171705D01*
X0051906Y0173303D02*
X0003600Y0173303D01*
X0003600Y0174902D02*
X0050307Y0174902D01*
X0048709Y0176500D02*
X0003600Y0176500D01*
X0003600Y0178099D02*
X0047110Y0178099D01*
X0045512Y0179697D02*
X0003600Y0179697D01*
X0003600Y0181296D02*
X0043913Y0181296D01*
X0042315Y0182894D02*
X0003600Y0182894D01*
X0003600Y0184493D02*
X0040716Y0184493D01*
X0039118Y0186092D02*
X0003600Y0186092D01*
X0003600Y0187690D02*
X0037519Y0187690D01*
X0037321Y0189289D02*
X0003600Y0189289D01*
X0003600Y0190887D02*
X0037321Y0190887D01*
X0037321Y0192486D02*
X0003600Y0192486D01*
X0003600Y0194084D02*
X0006977Y0194084D01*
X0005189Y0195683D02*
X0003600Y0195683D01*
X0003600Y0197281D02*
X0004527Y0197281D01*
X0004421Y0198880D02*
X0003600Y0198880D01*
X0003600Y0200478D02*
X0004799Y0200478D01*
X0005835Y0202077D02*
X0003600Y0202077D01*
X0003600Y0203675D02*
X0027495Y0203675D01*
X0029321Y0203675D02*
X0029721Y0203675D01*
X0029721Y0202077D02*
X0029321Y0202077D01*
X0029321Y0200478D02*
X0029721Y0200478D01*
X0029721Y0198880D02*
X0029321Y0198880D01*
X0029321Y0197281D02*
X0029721Y0197281D01*
X0029721Y0195683D02*
X0029321Y0195683D01*
X0029321Y0194084D02*
X0029721Y0194084D01*
X0032731Y0194084D02*
X0036977Y0194084D01*
X0035189Y0195683D02*
X0034233Y0195683D01*
X0034678Y0200478D02*
X0034799Y0200478D01*
X0035835Y0202077D02*
X0033758Y0202077D01*
X0031548Y0203675D02*
X0200787Y0203675D01*
X0200787Y0202077D02*
X0109466Y0202077D01*
X0109240Y0202303D02*
X0107417Y0202303D01*
X0105595Y0202303D01*
X0103017Y0199725D01*
X0103017Y0197903D01*
X0107417Y0197903D01*
X0107417Y0197903D01*
X0107417Y0202303D01*
X0107417Y0197903D01*
X0107417Y0197903D01*
X0103017Y0197903D01*
X0103017Y0196080D01*
X0105595Y0193503D01*
X0107417Y0193503D01*
X0107417Y0197903D01*
X0107417Y0197903D01*
X0111817Y0197903D01*
X0111817Y0199725D01*
X0109240Y0202303D01*
X0107417Y0202077D02*
X0107417Y0202077D01*
X0107417Y0200478D02*
X0107417Y0200478D01*
X0107417Y0198880D02*
X0107417Y0198880D01*
X0107417Y0197903D02*
X0107417Y0197903D01*
X0107417Y0193503D01*
X0109240Y0193503D01*
X0111817Y0196080D01*
X0111817Y0197903D01*
X0107417Y0197903D01*
X0107417Y0197281D02*
X0107417Y0197281D01*
X0107417Y0195683D02*
X0107417Y0195683D01*
X0107417Y0194084D02*
X0107417Y0194084D01*
X0105013Y0194084D02*
X0062065Y0194084D01*
X0063853Y0195683D02*
X0103415Y0195683D01*
X0103017Y0197281D02*
X0064516Y0197281D01*
X0064621Y0198880D02*
X0103017Y0198880D01*
X0103770Y0200478D02*
X0064243Y0200478D01*
X0063208Y0202077D02*
X0105369Y0202077D01*
X0111064Y0200478D02*
X0114336Y0200478D01*
X0113417Y0199560D02*
X0113417Y0196246D01*
X0115760Y0193903D01*
X0119074Y0193903D01*
X0121417Y0196246D01*
X0121417Y0199560D01*
X0119074Y0201903D01*
X0115760Y0201903D01*
X0113417Y0199560D01*
X0113417Y0198880D02*
X0111817Y0198880D01*
X0111817Y0197281D02*
X0113417Y0197281D01*
X0113981Y0195683D02*
X0111420Y0195683D01*
X0109821Y0194084D02*
X0115579Y0194084D01*
X0119256Y0194084D02*
X0127711Y0194084D01*
X0128806Y0192989D02*
X0126229Y0195566D01*
X0126229Y0197389D01*
X0130629Y0197389D01*
X0130629Y0201789D01*
X0132452Y0201789D01*
X0135029Y0199211D01*
X0135029Y0197389D01*
X0130629Y0197389D01*
X0130629Y0197389D01*
X0130629Y0201789D01*
X0128806Y0201789D01*
X0126229Y0199211D01*
X0126229Y0197389D01*
X0130629Y0197389D01*
X0130629Y0197389D01*
X0130629Y0197389D01*
X0135029Y0197389D01*
X0135029Y0195566D01*
X0132452Y0192989D01*
X0130629Y0192989D01*
X0130629Y0197388D01*
X0130629Y0197388D01*
X0130629Y0192989D01*
X0128806Y0192989D01*
X0130629Y0194084D02*
X0130629Y0194084D01*
X0130629Y0195683D02*
X0130629Y0195683D01*
X0130629Y0197281D02*
X0130629Y0197281D01*
X0130629Y0198880D02*
X0130629Y0198880D01*
X0130629Y0200478D02*
X0130629Y0200478D01*
X0127496Y0200478D02*
X0120499Y0200478D01*
X0121417Y0198880D02*
X0126229Y0198880D01*
X0126229Y0197281D02*
X0121417Y0197281D01*
X0120854Y0195683D02*
X0126229Y0195683D01*
X0133547Y0194084D02*
X0138277Y0194084D01*
X0138972Y0193389D02*
X0136629Y0195732D01*
X0136629Y0199045D01*
X0138972Y0201389D01*
X0142286Y0201389D01*
X0144629Y0199045D01*
X0144629Y0195732D01*
X0142286Y0193389D01*
X0138972Y0193389D01*
X0136678Y0195683D02*
X0135029Y0195683D01*
X0135029Y0197281D02*
X0136629Y0197281D01*
X0136629Y0198880D02*
X0135029Y0198880D01*
X0133762Y0200478D02*
X0138062Y0200478D01*
X0143196Y0200478D02*
X0200787Y0200478D01*
X0200787Y0198880D02*
X0144629Y0198880D01*
X0144629Y0197281D02*
X0200787Y0197281D01*
X0200787Y0195683D02*
X0144580Y0195683D01*
X0142981Y0194084D02*
X0200787Y0194084D01*
X0200787Y0192486D02*
X0057512Y0192486D01*
X0056977Y0194084D02*
X0055914Y0194084D01*
X0055189Y0195683D02*
X0054315Y0195683D01*
X0054516Y0197281D02*
X0054527Y0197281D01*
X0054799Y0200478D02*
X0054243Y0200478D01*
X0053208Y0202077D02*
X0055835Y0202077D01*
X0049521Y0198551D02*
X0049521Y0197365D01*
X0067350Y0179536D01*
X0094096Y0179536D01*
X0115398Y0158234D01*
X0127746Y0158234D01*
X0133930Y0152050D01*
X0133930Y0148610D01*
X0130498Y0145178D01*
X0125303Y0145178D01*
X0123207Y0143082D01*
X0120963Y0147727D02*
X0129937Y0147727D01*
X0131535Y0149326D02*
X0127190Y0149326D01*
X0129243Y0150924D02*
X0131730Y0150924D01*
X0130346Y0152523D02*
X0129807Y0152523D01*
X0133371Y0155720D02*
X0147588Y0155720D01*
X0147216Y0155348D02*
X0146607Y0153878D01*
X0146607Y0152287D01*
X0147216Y0150817D01*
X0148341Y0149691D01*
X0149811Y0149082D01*
X0156603Y0149082D01*
X0158073Y0149691D01*
X0159198Y0150817D01*
X0159807Y0152287D01*
X0159807Y0153878D01*
X0159198Y0155348D01*
X0158073Y0156474D01*
X0156603Y0157082D01*
X0149811Y0157082D01*
X0148341Y0156474D01*
X0147216Y0155348D01*
X0146708Y0154121D02*
X0134970Y0154121D01*
X0136130Y0152523D02*
X0146607Y0152523D01*
X0147171Y0150924D02*
X0136130Y0150924D01*
X0136130Y0149326D02*
X0149224Y0149326D01*
X0149811Y0147082D02*
X0148341Y0146474D01*
X0147216Y0145348D01*
X0146607Y0143878D01*
X0146607Y0142287D01*
X0147216Y0140817D01*
X0148341Y0139691D01*
X0149811Y0139082D01*
X0156603Y0139082D01*
X0158073Y0139691D01*
X0159198Y0140817D01*
X0159807Y0142287D01*
X0159807Y0143878D01*
X0159198Y0145348D01*
X0158073Y0146474D01*
X0156603Y0147082D01*
X0149811Y0147082D01*
X0147996Y0146129D02*
X0134561Y0146129D01*
X0136130Y0147727D02*
X0200276Y0147727D01*
X0200237Y0146129D02*
X0199942Y0146129D01*
X0200316Y0149326D02*
X0157190Y0149326D01*
X0159243Y0150924D02*
X0200355Y0150924D01*
X0200395Y0152523D02*
X0159807Y0152523D01*
X0159706Y0154121D02*
X0200434Y0154121D01*
X0200474Y0155720D02*
X0158827Y0155720D01*
X0156603Y0159082D02*
X0158073Y0159691D01*
X0159198Y0160817D01*
X0159807Y0162287D01*
X0159807Y0163878D01*
X0159198Y0165348D01*
X0158073Y0166474D01*
X0156603Y0167082D01*
X0149811Y0167082D01*
X0148341Y0166474D01*
X0147216Y0165348D01*
X0146607Y0163878D01*
X0146607Y0162287D01*
X0147216Y0160817D01*
X0148341Y0159691D01*
X0149811Y0159082D01*
X0156603Y0159082D01*
X0158897Y0160515D02*
X0200592Y0160515D01*
X0200553Y0158917D02*
X0130174Y0158917D01*
X0128897Y0160515D02*
X0147517Y0160515D01*
X0146679Y0162114D02*
X0129735Y0162114D01*
X0129807Y0163712D02*
X0146607Y0163712D01*
X0147201Y0165311D02*
X0129214Y0165311D01*
X0127021Y0166909D02*
X0149394Y0166909D01*
X0149577Y0168791D02*
X0148918Y0169005D01*
X0148301Y0169319D01*
X0147741Y0169726D01*
X0147251Y0170216D01*
X0146844Y0170776D01*
X0146529Y0171393D01*
X0146315Y0172052D01*
X0146207Y0172736D01*
X0146207Y0173082D01*
X0153207Y0173082D01*
X0153207Y0173082D01*
X0153207Y0168682D01*
X0150261Y0168682D01*
X0149577Y0168791D01*
X0147361Y0170106D02*
X0128488Y0170106D01*
X0128073Y0169691D02*
X0129198Y0170817D01*
X0129807Y0172287D01*
X0129807Y0173878D01*
X0129198Y0175348D01*
X0128073Y0176474D01*
X0126603Y0177082D01*
X0119811Y0177082D01*
X0118341Y0176474D01*
X0117216Y0175348D01*
X0116607Y0173878D01*
X0116607Y0172287D01*
X0117216Y0170817D01*
X0118341Y0169691D01*
X0119811Y0169082D01*
X0126603Y0169082D01*
X0128073Y0169691D01*
X0129566Y0171705D02*
X0146428Y0171705D01*
X0146207Y0173083D02*
X0153207Y0173083D01*
X0153207Y0177482D01*
X0150261Y0177482D01*
X0149577Y0177374D01*
X0148918Y0177160D01*
X0148301Y0176846D01*
X0147741Y0176439D01*
X0147251Y0175949D01*
X0146844Y0175389D01*
X0146529Y0174771D01*
X0146315Y0174113D01*
X0146207Y0173429D01*
X0146207Y0173083D01*
X0146207Y0173303D02*
X0129807Y0173303D01*
X0129383Y0174902D02*
X0146596Y0174902D01*
X0147826Y0176500D02*
X0128008Y0176500D01*
X0126603Y0179082D02*
X0128073Y0179691D01*
X0129198Y0180817D01*
X0129807Y0182287D01*
X0129807Y0183878D01*
X0129198Y0185348D01*
X0128073Y0186474D01*
X0126603Y0187082D01*
X0119811Y0187082D01*
X0118341Y0186474D01*
X0117216Y0185348D01*
X0116607Y0183878D01*
X0116607Y0182287D01*
X0117216Y0180817D01*
X0118341Y0179691D01*
X0119811Y0179082D01*
X0126603Y0179082D01*
X0128079Y0179697D02*
X0148335Y0179697D01*
X0148341Y0179691D02*
X0149811Y0179082D01*
X0156603Y0179082D01*
X0158073Y0179691D01*
X0159198Y0180817D01*
X0159807Y0182287D01*
X0159807Y0183878D01*
X0159198Y0185348D01*
X0158073Y0186474D01*
X0156603Y0187082D01*
X0149811Y0187082D01*
X0148341Y0186474D01*
X0147216Y0185348D01*
X0146607Y0183878D01*
X0146607Y0182287D01*
X0147216Y0180817D01*
X0148341Y0179691D01*
X0147018Y0181296D02*
X0129397Y0181296D01*
X0129807Y0182894D02*
X0146607Y0182894D01*
X0146862Y0184493D02*
X0129552Y0184493D01*
X0128455Y0186092D02*
X0147959Y0186092D01*
X0153207Y0177482D02*
X0153207Y0173083D01*
X0153207Y0173083D01*
X0153207Y0173082D01*
X0153207Y0168682D01*
X0156153Y0168682D01*
X0156837Y0168791D01*
X0157496Y0169005D01*
X0158113Y0169319D01*
X0158673Y0169726D01*
X0159163Y0170216D01*
X0159570Y0170776D01*
X0159885Y0171393D01*
X0160099Y0172052D01*
X0160207Y0172736D01*
X0160207Y0173082D01*
X0153207Y0173082D01*
X0153207Y0173083D01*
X0160207Y0173083D01*
X0160207Y0173429D01*
X0160099Y0174113D01*
X0159885Y0174771D01*
X0159570Y0175389D01*
X0159163Y0175949D01*
X0158673Y0176439D01*
X0158113Y0176846D01*
X0157496Y0177160D01*
X0156837Y0177374D01*
X0156153Y0177482D01*
X0153207Y0177482D01*
X0153207Y0176500D02*
X0153207Y0176500D01*
X0153207Y0174902D02*
X0153207Y0174902D01*
X0153207Y0173303D02*
X0153207Y0173303D01*
X0153207Y0171705D02*
X0153207Y0171705D01*
X0153207Y0170106D02*
X0153207Y0170106D01*
X0157021Y0166909D02*
X0200750Y0166909D01*
X0200711Y0165311D02*
X0159214Y0165311D01*
X0159807Y0163712D02*
X0200671Y0163712D01*
X0200632Y0162114D02*
X0159735Y0162114D01*
X0159054Y0170106D02*
X0200787Y0170106D01*
X0200787Y0168508D02*
X0108235Y0168508D01*
X0106637Y0170106D02*
X0117926Y0170106D01*
X0116848Y0171705D02*
X0105038Y0171705D01*
X0103440Y0173303D02*
X0116607Y0173303D01*
X0117031Y0174902D02*
X0101841Y0174902D01*
X0100243Y0176500D02*
X0118406Y0176500D01*
X0118335Y0179697D02*
X0097046Y0179697D01*
X0098644Y0178099D02*
X0200787Y0178099D01*
X0200787Y0179697D02*
X0158079Y0179697D01*
X0159397Y0181296D02*
X0200787Y0181296D01*
X0200787Y0182894D02*
X0159807Y0182894D01*
X0159552Y0184493D02*
X0200787Y0184493D01*
X0200787Y0186092D02*
X0158455Y0186092D01*
X0158588Y0176500D02*
X0200787Y0176500D01*
X0200787Y0174902D02*
X0159818Y0174902D01*
X0160207Y0173303D02*
X0200787Y0173303D01*
X0200787Y0171705D02*
X0159986Y0171705D01*
X0158418Y0146129D02*
X0193658Y0146129D01*
X0192304Y0144530D02*
X0159537Y0144530D01*
X0159807Y0142932D02*
X0191700Y0142932D01*
X0191700Y0141333D02*
X0159412Y0141333D01*
X0158116Y0139735D02*
X0192242Y0139735D01*
X0193510Y0138136D02*
X0010090Y0138136D01*
X0009313Y0136538D02*
X0118496Y0136538D01*
X0118298Y0139735D02*
X0011358Y0139735D01*
X0011900Y0141333D02*
X0117002Y0141333D01*
X0116607Y0142932D02*
X0011900Y0142932D01*
X0011296Y0144530D02*
X0116877Y0144530D01*
X0117996Y0146129D02*
X0009942Y0146129D01*
X0046939Y0184493D02*
X0059282Y0184493D01*
X0057684Y0186092D02*
X0045340Y0186092D01*
X0043742Y0187690D02*
X0056085Y0187690D01*
X0054487Y0189289D02*
X0042143Y0189289D01*
X0041721Y0189710D02*
X0041721Y0193942D01*
X0042410Y0194227D01*
X0043845Y0195662D01*
X0044521Y0197295D01*
X0045198Y0195662D01*
X0046632Y0194227D01*
X0048507Y0193451D01*
X0050325Y0193451D01*
X0065150Y0178625D01*
X0066439Y0177336D01*
X0093185Y0177336D01*
X0113198Y0157323D01*
X0114487Y0156034D01*
X0117902Y0156034D01*
X0117216Y0155348D01*
X0116607Y0153878D01*
X0116607Y0152287D01*
X0116790Y0151844D01*
X0079587Y0151844D01*
X0066286Y0165146D01*
X0066363Y0165146D01*
X0066363Y0170546D01*
X0060963Y0170546D01*
X0060963Y0170469D01*
X0041721Y0189710D01*
X0041721Y0190887D02*
X0052888Y0190887D01*
X0051290Y0192486D02*
X0041721Y0192486D01*
X0042065Y0194084D02*
X0046977Y0194084D01*
X0045189Y0195683D02*
X0043853Y0195683D01*
X0044516Y0197281D02*
X0044527Y0197281D01*
X0044799Y0200478D02*
X0044243Y0200478D01*
X0043208Y0202077D02*
X0045835Y0202077D01*
X0039521Y0198551D02*
X0039521Y0188799D01*
X0078676Y0149645D01*
X0119769Y0149645D01*
X0123207Y0153082D01*
X0117588Y0155720D02*
X0075712Y0155720D01*
X0074113Y0157318D02*
X0113202Y0157318D01*
X0111604Y0158917D02*
X0072515Y0158917D01*
X0070916Y0160515D02*
X0110005Y0160515D01*
X0108407Y0162114D02*
X0069318Y0162114D01*
X0067719Y0163712D02*
X0106808Y0163712D01*
X0105210Y0165311D02*
X0067958Y0165311D01*
X0067874Y0165284D02*
X0068713Y0165556D01*
X0069498Y0165956D01*
X0070211Y0166474D01*
X0070834Y0167098D01*
X0071352Y0167811D01*
X0071753Y0168596D01*
X0072025Y0169434D01*
X0072163Y0170305D01*
X0072163Y0170546D01*
X0066763Y0170546D01*
X0066763Y0170946D01*
X0066363Y0170946D01*
X0066363Y0176346D01*
X0066122Y0176346D01*
X0065252Y0176208D01*
X0064413Y0175936D01*
X0063628Y0175535D01*
X0062915Y0175017D01*
X0062291Y0174394D01*
X0061773Y0173681D01*
X0061373Y0172895D01*
X0061101Y0172057D01*
X0060963Y0171187D01*
X0060963Y0170946D01*
X0066363Y0170946D01*
X0066363Y0170546D01*
X0066763Y0170546D01*
X0066763Y0165146D01*
X0067004Y0165146D01*
X0067874Y0165284D01*
X0066763Y0165311D02*
X0066363Y0165311D01*
X0066363Y0166909D02*
X0066763Y0166909D01*
X0066763Y0168508D02*
X0066363Y0168508D01*
X0066363Y0170106D02*
X0066763Y0170106D01*
X0066763Y0170946D02*
X0072163Y0170946D01*
X0072163Y0171187D01*
X0072025Y0172057D01*
X0071753Y0172895D01*
X0071352Y0173681D01*
X0070834Y0174394D01*
X0070211Y0175017D01*
X0069498Y0175535D01*
X0068713Y0175936D01*
X0067874Y0176208D01*
X0067004Y0176346D01*
X0066763Y0176346D01*
X0066763Y0170946D01*
X0066763Y0171705D02*
X0066363Y0171705D01*
X0066363Y0173303D02*
X0066763Y0173303D01*
X0066763Y0174902D02*
X0066363Y0174902D01*
X0065676Y0178099D02*
X0053333Y0178099D01*
X0054931Y0176500D02*
X0094020Y0176500D01*
X0095619Y0174902D02*
X0089761Y0174902D01*
X0089508Y0175154D02*
X0087597Y0175946D01*
X0085529Y0175946D01*
X0083617Y0175154D01*
X0082155Y0173691D01*
X0081363Y0171780D01*
X0081363Y0169711D01*
X0082155Y0167800D01*
X0083617Y0166337D01*
X0085529Y0165546D01*
X0087597Y0165546D01*
X0089508Y0166337D01*
X0090971Y0167800D01*
X0091763Y0169711D01*
X0091763Y0171780D01*
X0090971Y0173691D01*
X0089508Y0175154D01*
X0091132Y0173303D02*
X0097217Y0173303D01*
X0098816Y0171705D02*
X0091763Y0171705D01*
X0091763Y0170106D02*
X0100414Y0170106D01*
X0102013Y0168508D02*
X0091264Y0168508D01*
X0090080Y0166909D02*
X0103611Y0166909D01*
X0109834Y0166909D02*
X0119394Y0166909D01*
X0117201Y0165311D02*
X0111432Y0165311D01*
X0113031Y0163712D02*
X0116607Y0163712D01*
X0116679Y0162114D02*
X0114629Y0162114D01*
X0116228Y0160515D02*
X0117517Y0160515D01*
X0116708Y0154121D02*
X0077310Y0154121D01*
X0078909Y0152523D02*
X0116607Y0152523D01*
X0129807Y0142932D02*
X0146607Y0142932D01*
X0146877Y0144530D02*
X0132962Y0144530D01*
X0129412Y0141333D02*
X0147002Y0141333D01*
X0148298Y0139735D02*
X0128116Y0139735D01*
X0127918Y0136538D02*
X0148496Y0136538D01*
X0148341Y0136474D02*
X0147216Y0135348D01*
X0146607Y0133878D01*
X0146607Y0132287D01*
X0147216Y0130817D01*
X0148341Y0129691D01*
X0149811Y0129082D01*
X0156603Y0129082D01*
X0158073Y0129691D01*
X0159198Y0130817D01*
X0159807Y0132287D01*
X0159807Y0133878D01*
X0159198Y0135348D01*
X0158073Y0136474D01*
X0156603Y0137082D01*
X0149811Y0137082D01*
X0148341Y0136474D01*
X0147047Y0134939D02*
X0129368Y0134939D01*
X0129807Y0133341D02*
X0146607Y0133341D01*
X0146833Y0131742D02*
X0129581Y0131742D01*
X0128525Y0130144D02*
X0147889Y0130144D01*
X0151797Y0123082D02*
X0153207Y0123082D01*
X0158525Y0130144D02*
X0192073Y0130144D01*
X0191700Y0131742D02*
X0159581Y0131742D01*
X0159807Y0133341D02*
X0191811Y0133341D01*
X0192473Y0134939D02*
X0159368Y0134939D01*
X0157918Y0136538D02*
X0194287Y0136538D01*
X0200513Y0157318D02*
X0131773Y0157318D01*
X0117018Y0181296D02*
X0095447Y0181296D01*
X0083365Y0174902D02*
X0070326Y0174902D01*
X0071545Y0173303D02*
X0081994Y0173303D01*
X0081363Y0171705D02*
X0072081Y0171705D01*
X0072131Y0170106D02*
X0081363Y0170106D01*
X0081861Y0168508D02*
X0071708Y0168508D01*
X0070646Y0166909D02*
X0083045Y0166909D01*
X0067103Y0182894D02*
X0116607Y0182894D01*
X0116862Y0184493D02*
X0065505Y0184493D01*
X0063906Y0186092D02*
X0117959Y0186092D01*
X0064078Y0179697D02*
X0051734Y0179697D01*
X0050136Y0181296D02*
X0062479Y0181296D01*
X0060881Y0182894D02*
X0048537Y0182894D01*
X0056530Y0174902D02*
X0062799Y0174902D01*
X0061581Y0173303D02*
X0058128Y0173303D01*
X0059727Y0171705D02*
X0061045Y0171705D01*
X0062308Y0187690D02*
X0200787Y0187690D01*
X0200787Y0189289D02*
X0060709Y0189289D01*
X0059111Y0190887D02*
X0200787Y0190887D01*
X0200787Y0205274D02*
X0003600Y0205274D01*
X0013208Y0202077D02*
X0015835Y0202077D01*
X0014799Y0200478D02*
X0014243Y0200478D01*
X0014516Y0197281D02*
X0014527Y0197281D01*
X0015189Y0195683D02*
X0013853Y0195683D01*
X0012065Y0194084D02*
X0016977Y0194084D01*
X0022065Y0194084D02*
X0026312Y0194084D01*
X0024810Y0195683D02*
X0023853Y0195683D01*
X0024243Y0200478D02*
X0024365Y0200478D01*
X0025285Y0202077D02*
X0023208Y0202077D01*
X0159128Y0090181D02*
X0164527Y0090181D01*
X0162928Y0091779D02*
X0160010Y0091779D01*
X0160207Y0093378D02*
X0161330Y0093378D01*
X0169644Y0039028D02*
X0173053Y0039028D01*
X0172022Y0037430D02*
X0171878Y0037430D01*
X0193694Y0035831D02*
X0197511Y0035831D01*
X0197472Y0034233D02*
X0194072Y0034233D01*
X0194072Y0032634D02*
X0197432Y0032634D01*
X0197393Y0031036D02*
X0194072Y0031036D01*
D23*
X0190891Y0033092D03*
M02*
